<?xml version="1.0" encoding="utf-8"?>
<!-- Generator: Adobe Illustrator 19.2.0, SVG Export Plug-In . SVG Version: 6.00 Build 0)  -->
<svg version="1.1" id="Layer_1" xmlns="http://www.w3.org/2000/svg" xmlns:xlink="http://www.w3.org/1999/xlink" x="0px" y="0px"
	 viewBox="0 0 800 800" style="enable-background:new 0 0 800 800;" xml:space="preserve">
<style type="text/css">
	.st0{fill:#FFFFFF;}
	.st1{fill:#FF807D;}
	.st2{fill:#E6E7E8;}
	.st3{fill:#A7A9AC;}
	.st4{fill:#FFF5D1;}
	.st5{fill:#E6DCBC;}
	.st6{fill:#F1F2F2;}
	.st7{fill:#D1D3D4;}
	.st8{fill:#4C89C9;}
</style>
<g>
	<g>
		<rect class="st0" width="800" height="800"/>
	</g>
	<g>
		<g>
			<g>
				<path class="st0" d="M551.2,383.5c0-5.5-4.5-10-10-10H258.7c-5.5,0-10,4.5-10,10v12.4h302.4V383.5z"/>
				<path d="M551.2,397.4H248.8c-0.8,0-1.4-0.6-1.4-1.4v-12.4c0-6.3,5.1-11.4,11.4-11.4h282.5c6.3,0,11.4,5.1,11.4,11.4v12.4
					C552.6,396.7,552,397.4,551.2,397.4z M250.2,394.5h299.6v-11c0-4.7-3.8-8.5-8.5-8.5H258.7c-4.7,0-8.5,3.8-8.5,8.5V394.5z"/>
			</g>
			<g>
				<polygon class="st1" points="248.8,395.9 248.8,550.3 268.7,550.3 531.3,550.3 551.2,550.3 551.2,395.9 				"/>
				<path d="M551.2,551.7H248.8c-0.8,0-1.4-0.6-1.4-1.4V395.9c0-0.8,0.6-1.4,1.4-1.4h302.4c0.8,0,1.4,0.6,1.4,1.4v154.3
					C552.6,551.1,552,551.7,551.2,551.7z M250.2,548.8h299.6V397.4H250.2V548.8z"/>
			</g>
		</g>
		<g>
			<polygon class="st2" points="445.1,588.6 400,588.6 354.9,588.6 337.4,633.4 400,633.4 462.6,633.4 			"/>
			<path d="M462.6,634.8H337.4c-0.5,0-0.9-0.2-1.2-0.6c-0.3-0.4-0.3-0.9-0.2-1.3l17.5-44.8c0.2-0.6,0.7-0.9,1.3-0.9h90.2
				c0.6,0,1.1,0.4,1.3,0.9l17.5,44.8c0.2,0.4,0.1,0.9-0.2,1.3C463.5,634.6,463.1,634.8,462.6,634.8z M339.5,632h121l-16.4-42h-88.2
				L339.5,632z"/>
		</g>
		<g>
			<line class="st0" x1="316" y1="633.4" x2="484" y2="633.4"/>
			<path d="M484,634.8H316c-0.8,0-1.4-0.6-1.4-1.4c0-0.8,0.6-1.4,1.4-1.4H484c0.8,0,1.4,0.6,1.4,1.4
				C485.5,634.2,484.8,634.8,484,634.8z"/>
		</g>
		<g>
			<path class="st0" d="M531.3,550.3H268.7h-19.9v28.3c0,5.5,4.5,10,10,10h282.5c5.5,0,10-4.5,10-10v-28.3H531.3z"/>
			<path d="M541.3,590H258.7c-6.3,0-11.4-5.1-11.4-11.4v-28.3c0-0.8,0.6-1.4,1.4-1.4h302.4c0.8,0,1.4,0.6,1.4,1.4v28.3
				C552.6,584.9,547.5,590,541.3,590z M250.2,551.7v26.9c0,4.7,3.8,8.5,8.5,8.5h282.5c4.7,0,8.5-3.8,8.5-8.5v-26.9H250.2z"/>
		</g>
		<g>
			<path d="M411.2,570.9h-22.4c-0.8,0-1.4-0.6-1.4-1.4c0-0.8,0.6-1.4,1.4-1.4h22.4c0.8,0,1.4,0.6,1.4,1.4
				C412.6,570.2,412,570.9,411.2,570.9z"/>
		</g>
		<g>
			<path d="M400,582c-0.8,0-1.4-0.6-1.4-1.4v-22.4c0-0.8,0.6-1.4,1.4-1.4c0.8,0,1.4,0.6,1.4,1.4v22.4C401.4,581.4,400.8,582,400,582
				z"/>
		</g>
		<g>
			<path class="st3" d="M495.9,255H304.1c-15,0-27.2,12.2-27.2,27.2v106.5c0,15,12.2,27.2,27.2,27.2h67.6l28.3,38.2l28.3-38.2h67.6
				c15.1,0,27.3-12.2,27.3-27.2V282.3C523.2,267.2,511,255,495.9,255z"/>
			<path d="M400,455.6L400,455.6c-0.5,0-0.9-0.2-1.1-0.6L371,417.4h-66.9c-15.8,0-28.7-12.9-28.7-28.7V282.3
				c0-15.8,12.9-28.7,28.7-28.7h191.9c15.8,0,28.7,12.9,28.7,28.7v106.5c0,15.8-12.9,28.7-28.7,28.7H429L401.1,455
				C400.9,455.4,400.4,455.6,400,455.6z M304.1,256.4c-14.2,0-25.8,11.6-25.8,25.8v106.5c0,14.2,11.6,25.8,25.8,25.8h67.6
				c0.5,0,0.9,0.2,1.1,0.6l27.1,36.6l27.2-36.6c0.3-0.4,0.7-0.6,1.1-0.6h67.6c14.2,0,25.8-11.6,25.8-25.8V282.3
				c0-14.2-11.6-25.8-25.8-25.8H304.1z"/>
		</g>
		<g>
			<g>
				<path class="st4" d="M372.8,305v15.7h54.3V305c0.5-17.7,8.8-30.7,15.7-36.8c15.8-12.6,25.9-32,25.9-53.8
					c0-38-30.8-68.9-68.9-68.9c-38,0-68.9,30.8-68.9,68.9c0,21.8,10.1,41.2,25.9,53.8C367.4,275.8,372.3,287.3,372.8,305z"/>
				<path d="M427.2,322.1h-54.3c-0.8,0-1.4-0.6-1.4-1.4V305c-0.5-17.3-5.2-28.3-15.2-35.7c-16.9-13.5-26.5-33.5-26.5-54.9
					c0-38.8,31.5-70.3,70.3-70.3c38.8,0,70.3,31.5,70.3,70.3c0,21.5-9.7,41.5-26.5,54.9c-7,6.1-14.7,18.7-15.2,35.8v15.7
					C428.6,321.5,427.9,322.1,427.2,322.1z M374.3,319.3h51.5V305c0.6-18,8.7-31.4,16.2-37.9c16.2-12.9,25.5-32.1,25.5-52.7
					c0-37.2-30.2-67.4-67.4-67.4c-37.2,0-67.4,30.2-67.4,67.4c0,20.6,9.3,39.8,25.4,52.7c10.7,7.9,15.7,19.6,16.3,37.9V319.3z"/>
			</g>
			<g>
				<path class="st0" d="M400,320.7c0-23.7,0-83,0-106.7"/>
				<path d="M400,322.1c-0.8,0-1.4-0.6-1.4-1.4V214c0-0.8,0.6-1.4,1.4-1.4c0.8,0,1.4,0.6,1.4,1.4v106.7
					C401.4,321.5,400.8,322.1,400,322.1z"/>
			</g>
			<g>
				<line class="st0" x1="372.1" y1="237.2" x2="427.9" y2="237.2"/>
				<path d="M427.9,238.6h-55.8c-0.8,0-1.4-0.6-1.4-1.4c0-0.8,0.6-1.4,1.4-1.4h55.8c0.8,0,1.4,0.6,1.4,1.4
					C429.3,238,428.7,238.6,427.9,238.6z"/>
			</g>
			<g>
				<polygon class="st5" points="422.4,237.2 400,276 377.6,237.2 				"/>
				<path d="M400,277.4c-0.5,0-1-0.3-1.2-0.7l-22.4-38.8c-0.3-0.4-0.3-1,0-1.4c0.3-0.4,0.7-0.7,1.2-0.7h44.8c0.5,0,1,0.3,1.2,0.7
					c0.3,0.4,0.3,1,0,1.4l-22.4,38.8C401,277.2,400.5,277.4,400,277.4z M380.1,238.6l19.9,34.5l19.9-34.5H380.1z"/>
			</g>
			<g>
				<rect x="366.8" y="320.7" class="st6" width="66.4" height="14"/>
				<path d="M433.2,336.2h-66.4c-0.8,0-1.4-0.6-1.4-1.4v-14c0-0.8,0.6-1.4,1.4-1.4h66.4c0.8,0,1.4,0.6,1.4,1.4v14
					C434.6,335.5,434,336.2,433.2,336.2z M368.2,333.3h63.6v-11.1h-63.6V333.3z"/>
			</g>
			<g>
				<path class="st0" d="M400,386.8c5,0,9.1-4.1,9.1-9.1h-18.2C390.9,382.8,395,386.8,400,386.8z"/>
				<path d="M400,388.3c-5.8,0-10.5-4.7-10.5-10.5c0-0.8,0.6-1.4,1.4-1.4h18.2c0.8,0,1.4,0.6,1.4,1.4
					C410.5,383.6,405.8,388.3,400,388.3z M392.5,379.2c0.7,3.5,3.8,6.2,7.5,6.2c3.7,0,6.8-2.7,7.5-6.2H392.5z"/>
			</g>
			<g>
				<path class="st0" d="M372.2,334.7v26c0,6.8,3.1,13,7.9,17.1h10.9h18.2H420c4.8-4.1,7.9-10.2,7.9-17.1v-26H372.2z"/>
				<path d="M420,379.2H380c-0.3,0-0.7-0.1-0.9-0.3c-5.3-4.6-8.4-11.2-8.4-18.2v-26c0-0.8,0.6-1.4,1.4-1.4h55.7
					c0.8,0,1.4,0.6,1.4,1.4v26c0,7-3.1,13.6-8.4,18.2C420.6,379.1,420.3,379.2,420,379.2z M380.6,376.3h38.8c4.5-4,7-9.7,7-15.6
					v-24.5h-52.8v24.5C373.6,366.7,376.1,372.3,380.6,376.3z"/>
			</g>
			<g>
				<line class="st0" x1="367.8" y1="341.9" x2="432.2" y2="347.2"/>
				<path d="M432.2,348.6c0,0-0.1,0-0.1,0l-64.5-5.3c-0.8-0.1-1.4-0.8-1.3-1.5c0.1-0.8,0.8-1.3,1.5-1.3l64.5,5.3
					c0.8,0.1,1.4,0.8,1.3,1.5C433.6,348.1,433,348.6,432.2,348.6z"/>
			</g>
			<g>
				<line class="st0" x1="367.8" y1="353.6" x2="432.2" y2="358.9"/>
				<path d="M432.2,360.3c0,0-0.1,0-0.1,0l-64.5-5.3c-0.8-0.1-1.4-0.8-1.3-1.5c0.1-0.8,0.8-1.3,1.5-1.3l64.5,5.3
					c0.8,0.1,1.4,0.8,1.3,1.5C433.6,359.7,433,360.3,432.2,360.3z"/>
			</g>
		</g>
		<g>
			<g>
				<path class="st7" d="M535.8,550.3l-1-11.9c-1.4-12.3-10.8-13.9-10.8-13.9l-15.6-5.6l-5.3-6l-0.7,0.9l-12.5,17l-12.5-17l-0.7-0.9
					l-5.3,6l-15.6,5.6c0,0-9.4,1.6-10.8,13.9l-1.2,11.9H535.8z"/>
				<path d="M535.8,551.7h-92.1c-0.4,0-0.8-0.2-1.1-0.5c-0.3-0.3-0.4-0.7-0.4-1.1l1.2-11.9c1.5-13.2,11.9-15.2,12-15.2l15-5.4
					l5.1-5.8c0.3-0.3,0.7-0.5,1.1-0.5c0.4,0,0.8,0.2,1.1,0.6l12,16.4l12-16.4c0.3-0.3,0.7-0.6,1.1-0.6c0.5,0,0.9,0.2,1.1,0.5
					l5.1,5.8l15.3,5.5c0,0,0,0,0,0c0.1,0,10.3,2.1,11.8,15.1l1,12c0,0.4-0.1,0.8-0.4,1.1C536.6,551.5,536.2,551.7,535.8,551.7z
					 M445.4,548.8h88.9l-0.9-10.4c-1.3-10.9-9.3-12.5-9.7-12.6l-15.8-5.7c-0.2-0.1-0.4-0.2-0.6-0.4l-4.2-4.7L491,531.6
					c-0.3,0.4-0.7,0.6-1.2,0.6l0,0c-0.5,0-0.9-0.2-1.2-0.6l-12.1-16.6l-4.1,4.7c-0.2,0.2-0.4,0.3-0.6,0.4l-15.6,5.6
					c-0.6,0.1-8.6,1.7-9.9,12.7L445.4,548.8z"/>
			</g>
			<g>
				<path class="st4" d="M508.9,492.7c0,10.3-8.4,18.7-18.7,18.7h-0.8c-10.3,0-18.7-8.4-18.7-18.7v-10.5c0-10.3,8.4-18.7,18.7-18.7
					h0.8c10.3,0,18.7,8.4,18.7,18.7V492.7z"/>
				<path d="M490.2,512.9h-0.8c-11.1,0-20.2-9-20.2-20.2v-10.5c0-11.1,9-20.2,20.2-20.2h0.8c11.1,0,20.2,9,20.2,20.2v10.5
					C510.4,503.8,501.3,512.9,490.2,512.9z M489.4,464.9c-9.5,0-17.3,7.8-17.3,17.3v10.5c0,9.5,7.8,17.3,17.3,17.3h0.8
					c9.5,0,17.3-7.8,17.3-17.3v-10.5c0-9.5-7.8-17.3-17.3-17.3H489.4z"/>
			</g>
			<g>
				<path class="st7" d="M356.2,550.3l-1-11.9c-1.4-12.3-10.8-13.9-10.8-13.9l-15.6-5.6l-5.3-6l-0.7,0.9l-12.5,17l-12.5-17l-0.7-0.9
					l-5.3,6l-15.6,5.6c0,0-9.4,1.6-10.8,13.9l-1.2,11.9H356.2z"/>
				<path d="M356.2,551.7h-92.1c-0.4,0-0.8-0.2-1.1-0.5c-0.3-0.3-0.4-0.7-0.4-1.1l1.2-11.9c1.5-13.2,11.9-15.2,12-15.2l15-5.4
					l5.1-5.8c0.3-0.3,0.7-0.5,1.1-0.5c0.4,0,0.8,0.2,1.1,0.6l12,16.4l12-16.4c0.3-0.3,0.7-0.6,1.1-0.6c0.4,0,0.9,0.2,1.1,0.5
					l5.1,5.8l15.3,5.5c0,0,0,0,0,0c0.1,0,10.3,2.1,11.8,15.1l1,12c0,0.4-0.1,0.8-0.4,1.1C357,551.5,356.6,551.7,356.2,551.7z
					 M265.7,548.8h88.9l-0.9-10.4c-1.3-10.9-9.3-12.5-9.7-12.6l-15.8-5.7c-0.2-0.1-0.4-0.2-0.6-0.4l-4.2-4.7l-12.1,16.6
					c-0.3,0.4-0.7,0.6-1.2,0.6l0,0c-0.5,0-0.9-0.2-1.2-0.6L297,515.1l-4.2,4.7c-0.2,0.2-0.4,0.3-0.6,0.4l-15.6,5.6
					c-0.6,0.1-8.6,1.7-9.9,12.7L265.7,548.8z"/>
			</g>
			<g>
				<path class="st4" d="M329.3,492.7c0,10.3-8.4,18.7-18.7,18.7h-0.8c-10.3,0-18.7-8.4-18.7-18.7v-10.5c0-10.3,8.4-18.7,18.7-18.7
					h0.8c10.3,0,18.7,8.4,18.7,18.7V492.7z"/>
				<path d="M310.6,512.9h-0.8c-11.1,0-20.2-9-20.2-20.2v-10.5c0-11.1,9-20.2,20.2-20.2h0.8c11.1,0,20.2,9,20.2,20.2v10.5
					C330.7,503.8,321.7,512.9,310.6,512.9z M309.8,464.9c-9.5,0-17.3,7.8-17.3,17.3v10.5c0,9.5,7.8,17.3,17.3,17.3h0.8
					c9.5,0,17.3-7.8,17.3-17.3v-10.5c0-9.5-7.8-17.3-17.3-17.3H309.8z"/>
			</g>
			<g>
				<path class="st8" d="M455.9,550.3l-1.2-14.5c-1.7-14.9-13.2-16.9-13.2-16.9l-19-6.8l-6.5-7.3l-0.8,1.1l-15.2,20.7l-15.2-20.7
					l-0.8-1.1l-6.5,7.3l-19,6.8c0,0-11.5,2-13.2,16.9l-1.4,14.5H455.9z"/>
				<path d="M455.9,551.7H344.1c-0.4,0-0.8-0.2-1.1-0.5c-0.3-0.3-0.4-0.7-0.4-1.1l1.4-14.5c1.8-15.8,14.2-18.1,14.3-18.2l18.4-6.6
					l6.2-7.1c0.3-0.3,0.7-0.5,1.1-0.5c0.4,0,0.8,0.2,1.1,0.6l14.9,20.3l14.9-20.3c0.3-0.3,0.7-0.6,1.1-0.6c0.4,0,0.9,0.2,1.1,0.5
					l6.2,7.1l18.6,6.7c0,0,0,0,0,0c0.1,0,12.3,2.4,14.1,18.1l1.2,14.5c0,0.4-0.1,0.8-0.4,1.1C456.7,551.5,456.3,551.7,455.9,551.7z
					 M345.7,548.8h108.7l-1.1-12.9c-1.6-13.5-11.6-15.5-12-15.6l-19.2-6.9c-0.2-0.1-0.4-0.2-0.6-0.4l-5.3-6l-15,20.4
					c-0.5,0.7-1.8,0.7-2.3,0L384,507l-5.3,6c-0.2,0.2-0.4,0.3-0.6,0.4l-19,6.8c-0.7,0.1-10.7,2.1-12.2,15.7L345.7,548.8z"/>
			</g>
			<g>
				<path class="st4" d="M423.2,480.4c0,12.6-10.2,22.8-22.7,22.8h-0.9c-12.6,0-22.7-10.2-22.7-22.8v-12.8
					c0-12.6,10.2-22.8,22.7-22.8h0.9c12.6,0,22.7,10.2,22.7,22.8V480.4z"/>
				<path d="M400.5,504.5h-0.9c-13.3,0-24.2-10.8-24.2-24.2v-12.8c0-13.3,10.8-24.2,24.2-24.2h0.9c13.3,0,24.2,10.8,24.2,24.2v12.8
					C424.7,493.7,413.8,504.5,400.5,504.5z M399.5,446.3c-11.8,0-21.3,9.6-21.3,21.3v12.8c0,11.8,9.6,21.3,21.3,21.3h0.9
					c11.8,0,21.3-9.6,21.3-21.3v-12.8c0-11.8-9.6-21.3-21.3-21.3H399.5z"/>
			</g>
		</g>
	</g>
	<g>
		<path d="M491.5,342.4h-46.2c-0.8,0-1.4-0.6-1.4-1.4c0-0.8,0.6-1.4,1.4-1.4h46.2c0.8,0,1.4,0.6,1.4,1.4
			C493,341.8,492.3,342.4,491.5,342.4z"/>
	</g>
	<g>
		<path d="M472.7,357.6h-27.4c-0.8,0-1.4-0.6-1.4-1.4c0-0.8,0.6-1.4,1.4-1.4h27.4c0.8,0,1.4,0.6,1.4,1.4
			C474.1,356.9,473.5,357.6,472.7,357.6z"/>
	</g>
	<g>
		<path d="M472.7,327.3h-27.4c-0.8,0-1.4-0.6-1.4-1.4c0-0.8,0.6-1.4,1.4-1.4h27.4c0.8,0,1.4,0.6,1.4,1.4
			C474.1,326.7,473.5,327.3,472.7,327.3z"/>
	</g>
	<g>
		<path d="M354.7,342.4h-46.3c-0.8,0-1.4-0.6-1.4-1.4c0-0.8,0.6-1.4,1.4-1.4h46.3c0.8,0,1.4,0.6,1.4,1.4
			C356.1,341.8,355.5,342.4,354.7,342.4z"/>
	</g>
	<g>
		<path d="M354.7,357.6h-27.4c-0.8,0-1.4-0.6-1.4-1.4c0-0.8,0.6-1.4,1.4-1.4h27.4c0.8,0,1.4,0.6,1.4,1.4
			C356.1,356.9,355.5,357.6,354.7,357.6z"/>
	</g>
	<g>
		<path d="M354.7,327.3h-27.4c-0.8,0-1.4-0.6-1.4-1.4c0-0.8,0.6-1.4,1.4-1.4h27.4c0.8,0,1.4,0.6,1.4,1.4
			C356.1,326.7,355.5,327.3,354.7,327.3z"/>
	</g>
	<g>
		<g>
			<path class="st0" d="M83.4,74.4h84.5c15.6,0,28.2,12.6,28.2,28.2v173.5l42.6,55.5h-70.8h-20.7H83.4c-15.5,0-28.2-12.6-28.2-28.2
				V102.6C55.2,87,67.8,74.4,83.4,74.4z"/>
			<path d="M238.7,333C238.7,333,238.7,333,238.7,333H83.4c-16.3,0-29.6-13.3-29.6-29.6V102.6C53.8,86.3,67,73,83.4,73h84.5
				c16.3,0,29.6,13.3,29.6,29.6v173l42.1,54.9c0.3,0.3,0.5,0.7,0.5,1.1C240.2,332.4,239.5,333,238.7,333z M83.4,75.9
				c-14.7,0-26.7,12-26.7,26.7v200.8c0,14.7,12,26.7,26.7,26.7h152.4l-40.9-53.2c-0.2-0.3-0.3-0.6-0.3-0.9V102.6
				c0-14.7-12-26.7-26.7-26.7H83.4z"/>
		</g>
		<g>
			<g>
				<path class="st8" d="M73.8,199.6l1.1-13.4c1.6-13.8,12.2-15.6,12.2-15.6l17.6-6.3l6-6.8l0.8,1.1l14.1,19.2l14.1-19.2l0.8-1.1
					l6,6.8l17.6,6.3c0,0,10.6,1.9,12.2,15.6l1.3,13.4H73.8z"/>
				<path d="M177.5,201C177.5,201,177.5,201,177.5,201H73.8c-0.4,0-0.8-0.2-1.1-0.5c-0.3-0.3-0.4-0.7-0.4-1.1l1.1-13.4
					c1.7-14.7,13.3-16.9,13.4-16.9l17-6.1l5.7-6.5c0.3-0.3,0.7-0.5,1.1-0.5c0.4,0,0.8,0.2,1.1,0.6l13.7,18.7l13.7-18.7
					c0.3-0.3,0.7-0.6,1.1-0.6c0.4,0,0.9,0.2,1.1,0.5l5.7,6.5l17.2,6.2c0,0,0,0,0,0c0.1,0,11.5,2.3,13.1,16.8l1.3,13.1
					c0.1,0.2,0.1,0.3,0.1,0.5C178.9,200.4,178.3,201,177.5,201z M75.3,198.2h100.5l-1.2-11.9c-1.5-12.6-10.9-14.4-11-14.4l-17.8-6.4
					c-0.2-0.1-0.4-0.2-0.6-0.4l-4.8-5.5l-13.8,18.8c-0.5,0.7-1.8,0.7-2.3,0l-13.8-18.8l-4.8,5.5c-0.2,0.2-0.4,0.3-0.6,0.4l-17.6,6.3
					c-0.6,0.1-9.8,2-11.3,14.5L75.3,198.2z"/>
			</g>
			<g>
				<path class="st4" d="M104.1,134.8c0,11.6,9.4,21.1,21.1,21.1h0.9c11.6,0,21.1-9.4,21.1-21.1V123c0-11.6-9.4-21.1-21.1-21.1h-0.9
					c-11.6,0-21.1,9.4-21.1,21.1V134.8z"/>
				<path d="M126.1,157.3h-0.9c-12.4,0-22.5-10.1-22.5-22.5V123c0-12.4,10.1-22.5,22.5-22.5h0.9c12.4,0,22.5,10.1,22.5,22.5v11.9
					C148.6,147.2,138.5,157.3,126.1,157.3z M125.2,103.3c-10.8,0-19.7,8.8-19.7,19.6v11.9c0,10.8,8.8,19.7,19.7,19.7h0.9
					c10.8,0,19.6-8.8,19.6-19.7V123c0-10.8-8.8-19.6-19.6-19.6H125.2z"/>
			</g>
		</g>
		<g>
			<path d="M174.9,226.7H76.3c-0.8,0-1.4-0.6-1.4-1.4c0-0.8,0.6-1.4,1.4-1.4h98.6c0.8,0,1.4,0.6,1.4,1.4
				C176.3,226,175.7,226.7,174.9,226.7z"/>
		</g>
		<g>
			<path d="M174.9,256.6H76.3c-0.8,0-1.4-0.6-1.4-1.4c0-0.8,0.6-1.4,1.4-1.4h98.6c0.8,0,1.4,0.6,1.4,1.4
				C176.3,256,175.7,256.6,174.9,256.6z"/>
		</g>
		<g>
			<path d="M174.9,286.5H76.3c-0.8,0-1.4-0.6-1.4-1.4c0-0.8,0.6-1.4,1.4-1.4h98.6c0.8,0,1.4,0.6,1.4,1.4
				C176.3,285.9,175.7,286.5,174.9,286.5z"/>
		</g>
	</g>
	<g>
		<circle class="st0" cx="266.4" cy="196.5" r="34.6"/>
		<path d="M266.4,232.5c-19.9,0-36-16.2-36-36c0-19.9,16.2-36,36-36c19.9,0,36,16.2,36,36C302.4,216.3,286.3,232.5,266.4,232.5z
			 M266.4,163.3c-18.3,0-33.2,14.9-33.2,33.2c0,18.3,14.9,33.2,33.2,33.2s33.2-14.9,33.2-33.2C299.6,178.2,284.7,163.3,266.4,163.3z
			"/>
	</g>
	<g>
		<path d="M289.3,197.9h-45.9c-0.8,0-1.4-0.6-1.4-1.4c0-0.8,0.6-1.4,1.4-1.4h45.9c0.8,0,1.4,0.6,1.4,1.4
			C290.8,197.2,290.1,197.9,289.3,197.9z"/>
	</g>
	<g>
		<path d="M266.4,220.8c-0.8,0-1.4-0.6-1.4-1.4v-45.9c0-0.8,0.6-1.4,1.4-1.4c0.8,0,1.4,0.6,1.4,1.4v45.9
			C267.8,220.2,267.2,220.8,266.4,220.8z"/>
	</g>
	<g>
		<g>
			<path d="M645.3,103.6c-0.4,0-0.7-0.1-1-0.4l-18.1-18.1c-0.6-0.6-0.6-1.5,0-2c0.6-0.6,1.5-0.6,2,0l18.1,18.1c0.6,0.6,0.6,1.5,0,2
				C646,103.5,645.6,103.6,645.3,103.6z"/>
		</g>
		<g>
			<path d="M627.1,103.6c-0.4,0-0.7-0.1-1-0.4c-0.6-0.6-0.6-1.5,0-2l18.1-18.1c0.6-0.6,1.5-0.6,2,0c0.6,0.6,0.6,1.5,0,2l-18.1,18.1
				C627.9,103.5,627.5,103.6,627.1,103.6z"/>
		</g>
	</g>
	<g>
		<g>
			<path class="st4" d="M563.2,340.6h179.9V98.9L563.2,340.6z M710.5,308h-82.3l82.3-110.7V308z"/>
			<path d="M743.1,342H563.2c-0.5,0-1-0.3-1.3-0.8c-0.2-0.5-0.2-1.1,0.1-1.5L741.9,98c0.4-0.5,1-0.7,1.6-0.5c0.6,0.2,1,0.7,1,1.4
				v241.7C744.5,341.4,743.9,342,743.1,342z M566.1,339.2h175.6v-236L566.1,339.2z M710.5,309.4h-82.3c-0.5,0-1-0.3-1.3-0.8
				c-0.2-0.5-0.2-1.1,0.1-1.5l82.3-110.7c0.4-0.5,1-0.7,1.6-0.5c0.6,0.2,1,0.7,1,1.4V308C711.9,308.8,711.3,309.4,710.5,309.4z
				 M631,306.6h78.1V201.6L631,306.6z"/>
		</g>
		<g>
			<line class="st0" x1="743.1" y1="126" x2="734.7" y2="126"/>
			<path d="M743.1,127.5h-8.4c-0.8,0-1.4-0.6-1.4-1.4c0-0.8,0.6-1.4,1.4-1.4h8.4c0.8,0,1.4,0.6,1.4,1.4
				C744.5,126.8,743.9,127.5,743.1,127.5z"/>
		</g>
		<g>
			<line class="st0" x1="743.1" y1="145.8" x2="734.7" y2="145.8"/>
			<path d="M743.1,147.2h-8.4c-0.8,0-1.4-0.6-1.4-1.4c0-0.8,0.6-1.4,1.4-1.4h8.4c0.8,0,1.4,0.6,1.4,1.4
				C744.5,146.6,743.9,147.2,743.1,147.2z"/>
		</g>
		<g>
			<line class="st0" x1="743.1" y1="165.6" x2="734.7" y2="165.6"/>
			<path d="M743.1,167h-8.4c-0.8,0-1.4-0.6-1.4-1.4s0.6-1.4,1.4-1.4h8.4c0.8,0,1.4,0.6,1.4,1.4S743.9,167,743.1,167z"/>
		</g>
		<g>
			<line class="st0" x1="743.1" y1="185.3" x2="734.7" y2="185.3"/>
			<path d="M743.1,186.8h-8.4c-0.8,0-1.4-0.6-1.4-1.4c0-0.8,0.6-1.4,1.4-1.4h8.4c0.8,0,1.4,0.6,1.4,1.4
				C744.5,186.1,743.9,186.8,743.1,186.8z"/>
		</g>
		<g>
			<line class="st0" x1="743.1" y1="205.1" x2="734.7" y2="205.1"/>
			<path d="M743.1,206.5h-8.4c-0.8,0-1.4-0.6-1.4-1.4c0-0.8,0.6-1.4,1.4-1.4h8.4c0.8,0,1.4,0.6,1.4,1.4
				C744.5,205.9,743.9,206.5,743.1,206.5z"/>
		</g>
		<g>
			<line class="st0" x1="743.1" y1="224.9" x2="734.7" y2="224.9"/>
			<path d="M743.1,226.3h-8.4c-0.8,0-1.4-0.6-1.4-1.4c0-0.8,0.6-1.4,1.4-1.4h8.4c0.8,0,1.4,0.6,1.4,1.4
				C744.5,225.7,743.9,226.3,743.1,226.3z"/>
		</g>
		<g>
			<line class="st0" x1="743.1" y1="244.6" x2="734.7" y2="244.6"/>
			<path d="M743.1,246.1h-8.4c-0.8,0-1.4-0.6-1.4-1.4c0-0.8,0.6-1.4,1.4-1.4h8.4c0.8,0,1.4,0.6,1.4,1.4
				C744.5,245.4,743.9,246.1,743.1,246.1z"/>
		</g>
		<g>
			<line class="st0" x1="743.1" y1="264.4" x2="734.7" y2="264.4"/>
			<path d="M743.1,265.8h-8.4c-0.8,0-1.4-0.6-1.4-1.4s0.6-1.4,1.4-1.4h8.4c0.8,0,1.4,0.6,1.4,1.4S743.9,265.8,743.1,265.8z"/>
		</g>
		<g>
			<line class="st0" x1="743.1" y1="284.2" x2="734.7" y2="284.2"/>
			<path d="M743.1,285.6h-8.4c-0.8,0-1.4-0.6-1.4-1.4c0-0.8,0.6-1.4,1.4-1.4h8.4c0.8,0,1.4,0.6,1.4,1.4
				C744.5,284.9,743.9,285.6,743.1,285.6z"/>
		</g>
		<g>
			<line class="st0" x1="743.1" y1="303.9" x2="734.7" y2="303.9"/>
			<path d="M743.1,305.4h-8.4c-0.8,0-1.4-0.6-1.4-1.4c0-0.8,0.6-1.4,1.4-1.4h8.4c0.8,0,1.4,0.6,1.4,1.4
				C744.5,304.7,743.9,305.4,743.1,305.4z"/>
		</g>
		<g>
			<line class="st0" x1="743.1" y1="323.7" x2="734.7" y2="323.7"/>
			<path d="M743.1,325.1h-8.4c-0.8,0-1.4-0.6-1.4-1.4c0-0.8,0.6-1.4,1.4-1.4h8.4c0.8,0,1.4,0.6,1.4,1.4
				C744.5,324.5,743.9,325.1,743.1,325.1z"/>
		</g>
	</g>
	<g>
		<path class="st3" d="M502.8,699.1v-20.2l14.3-14.2h37.4c-7.8-11.7-21.2-19.4-36.3-19.4c-15.7,0-29.4,8.3-37.1,20.7H318.9
			c-7.7-12.4-21.4-20.7-37.1-20.7c-15.1,0-28.5,7.7-36.3,19.4H283l14.3,14.2v20.2L283,713.3h-37.4c7.8,11.7,21.2,19.4,36.3,19.4
			c15.7,0,29.4-8.3,37.1-20.7h162.1c7.7,12.4,21.4,20.7,37.1,20.7c15.1,0,28.5-7.7,36.3-19.4H517L502.8,699.1z"/>
		<path d="M518.1,734.1c-15.4,0-29.5-7.7-37.9-20.7H319.7c-8.4,12.9-22.5,20.7-37.9,20.7c-15.1,0-29.1-7.5-37.5-20
			c-0.3-0.4-0.3-1-0.1-1.5c0.2-0.5,0.7-0.8,1.3-0.8h36.8l13.4-13.4v-19l-13.4-13.4h-36.8c-0.5,0-1-0.3-1.3-0.8
			c-0.2-0.5-0.2-1,0.1-1.5c8.4-12.5,22.4-20,37.5-20c15.4,0,29.5,7.7,37.9,20.7h160.6c8.4-12.9,22.5-20.7,37.9-20.7
			c15,0,28.9,7.4,37.3,19.7c0.3,0.3,0.5,0.6,0.5,1.1c0,0.8-0.6,1.4-1.4,1.4c0,0,0,0-0.1,0h-36.8l-13.4,13.4v19l13.4,13.4h36.8
			c0.5,0,1,0.3,1.3,0.8c0.2,0.5,0.2,1-0.1,1.5C547.2,726.6,533.2,734.1,518.1,734.1z M318.9,710.6h162.1c0.5,0,1,0.3,1.2,0.7
			c7.8,12.5,21.2,20,35.9,20c13.2,0,25.5-6.1,33.5-16.5H517c-0.4,0-0.7-0.1-1-0.4l-14.3-14.2c-0.3-0.3-0.4-0.6-0.4-1v-20.2
			c0-0.4,0.2-0.7,0.4-1l14.3-14.2c0.3-0.3,0.6-0.4,1-0.4h34.6c-8-10.4-20.3-16.5-33.5-16.5c-14.7,0-28.1,7.5-35.9,20
			c-0.3,0.4-0.7,0.7-1.2,0.7H318.9c-0.5,0-1-0.3-1.2-0.7c-7.8-12.5-21.2-20-35.9-20c-13.2,0-25.5,6.1-33.5,16.5H283
			c0.4,0,0.7,0.2,1,0.4l14.2,14.2c0.3,0.3,0.4,0.6,0.4,1v20.2c0,0.4-0.2,0.7-0.4,1L284,714.3c-0.3,0.3-0.6,0.4-1,0.4h-34.6
			c8,10.4,20.3,16.5,33.5,16.5c14.7,0,28.1-7.5,35.9-20C318,710.9,318.4,710.6,318.9,710.6z"/>
	</g>
	<g>
		<path d="M479.4,700.1H320.6c-0.8,0-1.4-0.6-1.4-1.4v-13.8c0-0.8,0.6-1.4,1.4-1.4c0.8,0,1.4,0.6,1.4,1.4v12.4H478v-12.4
			c0-0.8,0.6-1.4,1.4-1.4c0.8,0,1.4,0.6,1.4,1.4v13.8C480.8,699.5,480.2,700.1,479.4,700.1z"/>
	</g>
	<g>
		<g>
			<path class="st6" d="M648.9,393.4c-34.5,0-62.4,28-62.4,62.4v76.3h93.7c34.5,0,62.4-28,62.4-62.4v-76.3H648.9z"/>
			<path d="M680.2,533.6h-93.7c-0.8,0-1.4-0.6-1.4-1.4v-76.3c0-35.2,28.7-63.9,63.9-63.9h93.7c0.8,0,1.4,0.6,1.4,1.4v76.3
				C744,504.9,715.4,533.6,680.2,533.6z M587.9,530.7h92.2c33.6,0,61-27.4,61-61v-74.9h-92.2c-33.6,0-61,27.4-61,61V530.7z"/>
		</g>
		<g>
			<path d="M712.7,427.6h-96.4c-0.8,0-1.4-0.6-1.4-1.4c0-0.8,0.6-1.4,1.4-1.4h96.4c0.8,0,1.4,0.6,1.4,1.4
				C714.1,427,713.5,427.6,712.7,427.6z"/>
		</g>
		<g>
			<path d="M712.7,452h-96.4c-0.8,0-1.4-0.6-1.4-1.4c0-0.8,0.6-1.4,1.4-1.4h96.4c0.8,0,1.4,0.6,1.4,1.4
				C714.1,451.4,713.5,452,712.7,452z"/>
		</g>
		<g>
			<path d="M712.7,476.4h-96.4c-0.8,0-1.4-0.6-1.4-1.4c0-0.8,0.6-1.4,1.4-1.4h96.4c0.8,0,1.4,0.6,1.4,1.4
				C714.1,475.8,713.5,476.4,712.7,476.4z"/>
		</g>
		<g>
			<path d="M712.7,500.8h-96.4c-0.8,0-1.4-0.6-1.4-1.4c0-0.8,0.6-1.4,1.4-1.4h96.4c0.8,0,1.4,0.6,1.4,1.4
				C714.1,500.1,713.5,500.8,712.7,500.8z"/>
		</g>
	</g>
	<g>
		<path d="M221.1,734.1H55.2c-0.8,0-1.4-0.6-1.4-1.4c0-0.8,0.6-1.4,1.4-1.4h165.9c0.8,0,1.4,0.6,1.4,1.4
			C222.6,733.5,221.9,734.1,221.1,734.1z"/>
	</g>
	<g>
		<g>
			<polygon class="st4" points="61.2,645.3 71.9,645.3 71.9,732.7 99.7,732.7 99.7,645.3 110.5,645.3 85.8,611.7 			"/>
			<path d="M99.7,734.1H71.9c-0.8,0-1.4-0.6-1.4-1.4v-86h-9.3c-0.5,0-1-0.3-1.3-0.8c-0.2-0.5-0.2-1.1,0.1-1.5l24.6-33.6
				c0.5-0.7,1.8-0.7,2.3,0l24.4,33.3c0.3,0.3,0.5,0.7,0.5,1.1c0,0.8-0.6,1.4-1.4,1.4c0,0,0,0-0.1,0h-9.3v86
				C101.1,733.5,100.5,734.1,99.7,734.1z M73.4,731.3h24.9v-86c0-0.8,0.6-1.4,1.4-1.4h7.9l-21.8-29.8L64,643.8h7.9
				c0.8,0,1.4,0.6,1.4,1.4V731.3z"/>
		</g>
		<g>
			<polygon class="st8" points="113.5,588.6 124.3,588.6 124.3,732.7 152.1,732.7 152.1,588.6 162.8,588.6 138.2,555 			"/>
			<path d="M152.1,734.1h-27.8c-0.8,0-1.4-0.6-1.4-1.4V590h-9.3c-0.5,0-1-0.3-1.3-0.8c-0.2-0.5-0.2-1.1,0.1-1.5l24.6-33.6
				c0.5-0.7,1.8-0.7,2.3,0l24.4,33.3c0.3,0.3,0.5,0.7,0.5,1.1c0,0.8-0.6,1.4-1.4,1.4c0,0,0,0-0.1,0h-9.3v142.7
				C153.5,733.5,152.8,734.1,152.1,734.1z M125.7,731.3h24.9V588.6c0-0.8,0.6-1.4,1.4-1.4h7.9l-21.8-29.8l-21.8,29.8h7.9
				c0.8,0,1.4,0.6,1.4,1.4V731.3z"/>
		</g>
		<g>
			<polygon class="st1" points="190.5,651.3 165.9,684.9 176.6,684.9 176.6,732.7 204.4,732.7 204.4,684.9 215.1,684.9 			"/>
			<path d="M204.4,734.1h-27.8c-0.8,0-1.4-0.6-1.4-1.4v-46.4h-9.3c-0.5,0-1-0.3-1.3-0.8c-0.2-0.5-0.2-1.1,0.1-1.5l24.6-33.6
				c0.3-0.4,0.7-0.6,1.2-0.6l0,0c0.5,0,0.9,0.2,1.2,0.6l24.6,33.6c0.3,0.4,0.4,1,0.1,1.5c-0.2,0.5-0.7,0.8-1.3,0.8h-9.3v46.4
				C205.8,733.5,205.2,734.1,204.4,734.1z M178.1,731.3H203v-46.4c0-0.8,0.6-1.4,1.4-1.4h7.9l-21.8-29.8l-21.8,29.8h7.9
				c0.8,0,1.4,0.6,1.4,1.4V731.3z"/>
		</g>
	</g>
	<g>
		<g>
			<path class="st1" d="M741.6,651.3c0-43.4-35.2-78.6-78.6-78.6c-16.2,0-31.2,4.9-43.7,13.2l0,0l-39.2-4.9l11.5,37.3
				c-4.6,10-7.3,21.2-7.3,33c0,43.4,35.2,78.6,78.6,78.6C706.4,729.9,741.6,694.7,741.6,651.3z"/>
			<path d="M663,731.3c-44.1,0-80-35.9-80-80c0-11.5,2.4-22.6,7.2-33.1l-11.4-36.8c-0.1-0.5,0-1,0.3-1.3c0.3-0.4,0.8-0.6,1.3-0.5
				l38.7,4.8c13.1-8.6,28.3-13.2,44-13.2c44.1,0,80,35.9,80,80C743,695.4,707.1,731.3,663,731.3z M582.1,582.7l10.9,35.2
				c0.1,0.3,0.1,0.7-0.1,1c-4.7,10.2-7.1,21.1-7.1,32.4c0,42.5,34.6,77.2,77.2,77.2c42.6,0,77.2-34.6,77.2-77.2
				c0-42.6-34.6-77.2-77.2-77.2c-15.3,0-30.2,4.5-42.9,13c-0.4,0.2-0.8,0.3-1.2,0.2L582.1,582.7z"/>
		</g>
		<g>
			<circle class="st0" cx="660.9" cy="651.3" r="50"/>
			<path d="M660.9,702.7c-28.4,0-51.5-23.1-51.5-51.5c0-28.4,23.1-51.5,51.5-51.5c28.4,0,51.5,23.1,51.5,51.5
				C712.3,679.7,689.2,702.7,660.9,702.7z M660.9,602.7c-26.8,0-48.6,21.8-48.6,48.6c0,26.8,21.8,48.6,48.6,48.6
				c26.8,0,48.6-21.8,48.6-48.6C709.5,624.5,687.7,602.7,660.9,602.7z"/>
		</g>
		<g>
			<path d="M660.9,685.5c-0.8,0-1.4-0.6-1.4-1.4v-65.5c0-0.8,0.6-1.4,1.4-1.4c0.8,0,1.4,0.6,1.4,1.4V684
				C662.3,684.8,661.6,685.5,660.9,685.5z"/>
		</g>
		<g>
			<path d="M693.6,652.7h-65.5c-0.8,0-1.4-0.6-1.4-1.4c0-0.8,0.6-1.4,1.4-1.4h65.5c0.8,0,1.4,0.6,1.4,1.4
				C695,652.1,694.4,652.7,693.6,652.7z"/>
		</g>
		<g>
			<rect x="674.7" y="665.9" class="st0" width="82.6" height="11.2"/>
			<path d="M757.3,678.6h-82.6c-0.8,0-1.4-0.6-1.4-1.4v-11.2c0-0.8,0.6-1.4,1.4-1.4h82.6c0.8,0,1.4,0.6,1.4,1.4v11.2
				C758.7,677.9,758.1,678.6,757.3,678.6z M676.2,675.7h79.7v-8.4h-79.7V675.7z"/>
		</g>
		<g>
			<rect x="674.7" y="687" class="st0" width="69" height="11.2"/>
			<path d="M743.8,699.7h-69c-0.8,0-1.4-0.6-1.4-1.4V687c0-0.8,0.6-1.4,1.4-1.4h69c0.8,0,1.4,0.6,1.4,1.4v11.2
				C745.2,699,744.6,699.7,743.8,699.7z M676.2,696.8h66.2v-8.4h-66.2V696.8z"/>
		</g>
		<g>
			<rect x="674.7" y="707.1" class="st0" width="69" height="11.2"/>
			<path d="M743.8,719.7h-69c-0.8,0-1.4-0.6-1.4-1.4v-11.2c0-0.8,0.6-1.4,1.4-1.4h69c0.8,0,1.4,0.6,1.4,1.4v11.2
				C745.2,719.1,744.6,719.7,743.8,719.7z M676.2,716.8h66.2v-8.4h-66.2V716.8z"/>
		</g>
	</g>
	<g>
		<path d="M495.9,256.4c-0.8,0-1.4-0.6-1.4-1.4v-82.1c0-0.8,0.6-1.4,1.4-1.4h63.1c0.8,0,1.4,0.6,1.4,1.4c0,0.8-0.6,1.4-1.4,1.4
			h-61.7V255C497.4,255.8,496.7,256.4,495.9,256.4z"/>
	</g>
	<g>
		<path d="M559.1,227.3h-63.1c-0.8,0-1.4-0.6-1.4-1.4c0-0.8,0.6-1.4,1.4-1.4h63.1c0.8,0,1.4,0.6,1.4,1.4
			C560.5,226.7,559.8,227.3,559.1,227.3z"/>
	</g>
	<g>
		<circle class="st4" cx="574.6" cy="225.9" r="15.5"/>
		<path d="M574.5,242.8c-9.3,0-16.9-7.6-16.9-16.9c0-9.3,7.6-16.9,16.9-16.9c9.3,0,16.9,7.6,16.9,16.9
			C591.5,235.2,583.9,242.8,574.5,242.8z M574.5,211.8c-7.8,0-14.1,6.3-14.1,14.1c0,7.8,6.3,14.1,14.1,14.1
			c7.8,0,14.1-6.3,14.1-14.1C588.6,218.1,582.3,211.8,574.5,211.8z"/>
	</g>
	<g>
		<circle class="st1" cx="574.6" cy="172.9" r="15.5"/>
		<path d="M574.5,189.8c-9.3,0-16.9-7.6-16.9-16.9c0-9.3,7.6-16.9,16.9-16.9c9.3,0,16.9,7.6,16.9,16.9
			C591.5,182.2,583.9,189.8,574.5,189.8z M574.5,158.8c-7.8,0-14.1,6.3-14.1,14.1c0,7.8,6.3,14.1,14.1,14.1
			c7.8,0,14.1-6.3,14.1-14.1C588.6,165.1,582.3,158.8,574.5,158.8z"/>
	</g>
	<g>
		<g>
			<path class="st1" d="M132.7,395.1c-14.5,0-26.2,11.7-26.2,26.2c0,8.3,3.9,15.7,9.9,20.5c3.9,2.9,5.8,7.3,6,14v6H143v-6
				c0.2-6.7,3.3-11.7,6-14c6-4.8,9.9-12.2,9.9-20.5C158.9,406.8,147.1,395.1,132.7,395.1z"/>
			<path d="M143,463.2h-20.7c-0.8,0-1.4-0.6-1.4-1.4v-6c-0.2-6.2-1.9-10.2-5.4-12.9c-6.7-5.3-10.4-13.2-10.4-21.6
				c0-15.2,12.4-27.6,27.6-27.6c15.2,0,27.6,12.4,27.6,27.6c0,8.4-3.8,16.3-10.4,21.6c-2.4,2.1-5.3,6.7-5.5,12.9v5.9
				C144.4,462.5,143.8,463.2,143,463.2z M123.8,460.3h17.8v-4.5c0.2-7.2,3.5-12.5,6.5-15.1c6-4.8,9.4-11.8,9.4-19.4
				c0-13.7-11.1-24.8-24.7-24.8c-13.6,0-24.8,11.1-24.8,24.8c0,7.6,3.4,14.6,9.3,19.3c4.2,3.1,6.3,7.9,6.5,15.1V460.3z"/>
		</g>
		<g>
			<path d="M160,533.4c-0.8,0-1.4-0.6-1.4-1.4v-25.1c0-0.4,0.1-0.7,0.4-1l14.6-14.8c0.6-0.6,1.2-1.2,1.7-1.7l0.3-0.3
				c0-0.1,0.1-0.1,0.2-0.2c8.9-9.6,13.8-22.1,13.8-35.1v-37.6c0-28.5-23.2-51.7-51.7-51.7H129c-28.5,0-51.7,23.2-51.7,51.7v6.1
				c0,0.2-0.1,0.5-0.2,0.7l-13.8,24.6c-0.7,0.9-2.2,3.4-1.5,5c0.6,1.3,2.6,1.7,4.2,1.9l9.8,0c0.8,0,1.4,0.6,1.4,1.4v24.5
				c0,13.9,11.3,25.1,25.1,25.1h3.3c0.8,0,1.4,0.6,1.4,1.4V532c0,0.8-0.6,1.4-1.4,1.4c-0.8,0-1.4-0.6-1.4-1.4v-23.7h-1.9
				c-15.4,0-28-12.6-28-28v-23.1h-8.5c-3.6-0.3-5.8-1.5-6.7-3.6c-1.5-3.3,1.4-7.2,1.7-7.7l13.5-24.1v-5.7
				c0-30.1,24.5-54.6,54.6-54.6h8.9c30.1,0,54.6,24.5,54.6,54.6v37.6c0,13.6-5.1,26.7-14.3,36.8c-0.1,0.1-0.1,0.2-0.2,0.3l-0.5,0.5
				c-0.6,0.6-1.2,1.2-1.8,1.8l-14.2,14.4V532C161.4,532.7,160.8,533.4,160,533.4z"/>
		</g>
		<g>
			<rect x="122.5" y="461.7" class="st0" width="20.4" height="18.5"/>
			<path d="M142.9,481.7h-20.4c-0.8,0-1.4-0.6-1.4-1.4v-18.5c0-0.8,0.6-1.4,1.4-1.4h20.4c0.8,0,1.4,0.6,1.4,1.4v18.5
				C144.3,481,143.7,481.7,142.9,481.7z M123.9,478.8h17.6v-15.6h-17.6V478.8z"/>
		</g>
	</g>
	<g>
		<path d="M215.1,533.4h-31.5c-0.8,0-1.4-0.6-1.4-1.4c0-0.8,0.6-1.4,1.4-1.4h31.5c0.8,0,1.4,0.6,1.4,1.4
			C216.6,532.7,215.9,533.4,215.1,533.4z"/>
	</g>
	<g>
		<path d="M202.9,514.2h-19.3c-0.8,0-1.4-0.6-1.4-1.4c0-0.8,0.6-1.4,1.4-1.4h19.3c0.8,0,1.4,0.6,1.4,1.4
			C204.3,513.6,203.7,514.2,202.9,514.2z"/>
	</g>
	<g>
		<path d="M85.8,533.4H39.1c-0.8,0-1.4-0.6-1.4-1.4c0-0.8,0.6-1.4,1.4-1.4h46.7c0.8,0,1.4,0.6,1.4,1.4
			C87.3,532.7,86.6,533.4,85.8,533.4z"/>
	</g>
	<g>
		<path d="M66.3,499.7H39.1c-0.8,0-1.4-0.6-1.4-1.4c0-0.8,0.6-1.4,1.4-1.4h27.2c0.8,0,1.4,0.6,1.4,1.4
			C67.7,499,67.1,499.7,66.3,499.7z"/>
	</g>
	<g>
		<g>
			<path d="M641,191.3c-0.3,0-0.6-0.1-0.9-0.3l-27.5-21c-0.6-0.5-0.7-1.4-0.3-2l17.8-23.3c0.2-0.3,0.6-0.5,0.9-0.6
				c0.4,0,0.8,0,1.1,0.3l27.5,21c0.3,0.2,0.5,0.6,0.5,0.9c0.1,0.4-0.1,0.8-0.3,1.1l-17.8,23.3C641.9,191.1,641.5,191.3,641,191.3z
				 M615.6,168.6l25.2,19.2l16-21l-25.2-19.2L615.6,168.6z"/>
		</g>
		<g>
			
				<rect x="628" y="104.3" transform="matrix(0.6065 -0.7951 0.7951 0.6065 167.5806 581.6711)" class="st8" width="86.9" height="34.6"/>
			<path d="M658.8,168c-0.3,0-0.6-0.1-0.9-0.3l-27.5-21c-0.6-0.5-0.7-1.4-0.3-2l52.7-69.1c0.5-0.6,1.4-0.7,2-0.3l27.5,21
				c0.3,0.2,0.5,0.6,0.6,0.9c0.1,0.4-0.1,0.8-0.3,1.1l-52.7,69.1c-0.2,0.3-0.6,0.5-0.9,0.5C658.9,168,658.9,168,658.8,168z
				 M633.3,145.3l25.2,19.2l50.9-66.8l-25.2-19.2L633.3,145.3z"/>
		</g>
	</g>
	<g>
		<g>
			<path d="M714.3,75.1c-0.2,0-0.3,0-0.5-0.1l-12.8-4.3c-0.6-0.2-1-0.7-1-1.3c0-0.6,0.3-1.1,0.9-1.4l14-5.7c0.5-0.2,1-0.1,1.4,0.2
				c0.4,0.3,0.6,0.8,0.6,1.3l-1.2,10c0,0.4-0.3,0.8-0.7,1C714.9,75,714.6,75.1,714.3,75.1z M705.6,69.3l7.5,2.5l0.7-5.8L705.6,69.3z
				"/>
		</g>
		<g>
			<path d="M711.5,98.9c-0.3,0-0.6-0.1-0.9-0.3l-27.5-21c-0.4-0.3-0.6-0.8-0.5-1.3c0.1-0.5,0.4-0.9,0.9-1.1l17.5-7.1
				c0.3-0.1,0.7-0.1,1,0l12.8,4.3c0.6,0.2,1,0.9,1,1.5l-2.8,23.8c-0.1,0.5-0.4,0.9-0.9,1.1C711.9,98.9,711.7,98.9,711.5,98.9z
				 M686.9,76.9l23.5,17.9l2.4-20.2l-11.2-3.7L686.9,76.9z"/>
		</g>
	</g>
</g>
</svg>
