<?xml version="1.0" encoding="utf-8"?>
<!-- Generator: Adobe Illustrator 20.1.0, SVG Export Plug-In . SVG Version: 6.00 Build 0)  -->
<svg version="1.1" id="Capa_1" xmlns="http://www.w3.org/2000/svg" xmlns:xlink="http://www.w3.org/1999/xlink" x="0px" y="0px"
	 viewBox="0 0 133 175" style="enable-background:new 0 0 133 175;" xml:space="preserve">
<style type="text/css">
	.st0{fill:#FFFFFF;}
</style>
<g>
	<path class="st0" d="M93.3,69.7V42.1c0-0.1-0.1-0.2-0.2-0.2H39.9c-0.1,0-0.2,0.1-0.2,0.2v27.6c0,0,0,0,0,0.1c0.2,9.6,3,18.6,7.9,26
		c4.8,7.2,11.5,12.3,18.8,14.4h0.1c7.3-2,14-7.1,18.8-14.4C90.3,88.4,93,79.4,93.3,69.7C93.3,69.8,93.3,69.8,93.3,69.7L93.3,69.7z
		 M92.2,69.6L92.2,69.6c-0.4,19-11,35.2-25.7,39.5c-14.7-4.2-25.2-20.4-25.7-39.4v-0.1V43.1h51.4V69.6L92.2,69.6z"/>
	<path class="st0" d="M66.4,102.6L66.4,102.6c11.5-4.3,19.7-17.8,20-33c0-0.1,0-0.2,0-0.3v-20c0-0.1-0.1-0.2-0.2-0.2H46.6
		c-0.1,0-0.2,0.1-0.2,0.2v20c0,0.1,0,0.2,0,0.3C46.9,84.7,55.1,98.3,66.4,102.6L66.4,102.6z M66.5,101.4
		C55.7,97.2,47.9,84,47.6,69.5c0-0.1,0-0.2,0-0.3c0,0,0-15.3,0-18.6c0.1,0.3,0.2,0.5,0.3,0.6c0.3,0.5,1,1.7,1,1.7s0.1,0.6-0.2,0.7
		c-0.2,0.1,0.3,0.4,0.5,0.6c0.2,0.2,0.5,0.9,0.8,1s0.4-0.3,0.2-0.7s-0.7-1.4-0.7-1.4s-0.1-0.5-0.3-1.1c-0.2-0.5-0.5-1.2-0.5-1.2
		s1.3,0.3,1.4,1c0.1,0.3,0.5,2,0.9,3.1c0.2,0.6,0.6,1.1,1,1.6s1.3,1.4,2.4,1.7c1.1,0.3,2.3-0.4,2.8,0s1.5,1.4,2.2,1.6
		c0.7,0.2,2.5,0.6,2.9,1.4c0.4,0.8,1.3,0.8,1.7,0.9c0.5,0.1,2,0.7,2,2.1l-1.2,2.5c0,0-0.9,1-1.1,1.9c-0.2,0.9-0.6,1.4,0.3,2.8
		s1.5,3,1.6,4.3c0.1,1.2,1.2,1.4,2,1.9s0,1.1-0.5,2.2s-0.2,3.5-0.7,5s-1,2.1-1,3.3c0,1.2,0.1,2.5-0.4,3.6s-0.2,2.1-0.2,3.2
		c-0.1,1.1,0.2,2.5,1,3.5s2.5,1.4,2.3-0.1s0.1-3.5,1-4.5s0.9-1,0.9-1s-0.2-1.4,0.8-2.1c0.9-0.6,1.5-1.1,1-1.3
		c-0.5-0.2,0-0.8,0.5-0.8s0.8,0.2,2-1.2c1.2-1.4,1.6-1.7,2.8-2.4c1.2-0.7,1.7-2.1,2.4-2.8c0.8-0.8,2.1-1.4,3-1.6
		c0.8-0.2,1.3-1,1.3-2s-0.3-1.7,0.4-2.7c0.6-1,0.3-1.3,0.9-1.8C83.3,86.8,76.1,97.6,66.5,101.4L66.5,101.4z M85.4,69.2
		c0,0.1,0,0.2,0,0.3c0,0.6,0,1.2-0.1,1.8c-0.6-0.6-1.5-0.9-2-1.5c-0.6-0.7-1.4-1.1-1.7-1.3c-0.3-0.2-0.5-0.5-1.3-0.3s-1.5,0-1.7-0.8
		s-0.1-1.7-0.9-2.1c-0.8-0.5-1.4-1-2-1.4c-0.6-0.5-1.2-1.3-1.4-1.4c-0.2-0.1-1.8,0.1-1.8,0.1s-0.9-0.8-2.3-0.5c0,0-0.8-1.3-1.7-0.6
		c-0.9,0.7-1.7,1.1-2.2,0.5c-0.5-0.7-1.4-0.4-2.1-0.3c-0.6,0.1-1.1-1-1.3-1.4c-0.2-0.5,0-1.1-0.2-1.1S61.6,59.5,61,59
		c-0.6-0.5-0.3-0.9-0.1-1.3c0.2-0.4,0.5-1.9,0.4-2.2l-0.7-0.1c0,0-0.8-0.2-1,0.5c-0.2,0.6-1.2,1.2-2.1,1c-0.8-0.2-1.4-0.8-1.7-1.6
		s-0.2-1.4-0.1-1.8c0.2-0.5-0.5-1.3-0.8-1.5c-0.2-0.2-0.2,0.1-0.7-0.6c-0.2-0.4-0.6-0.7-0.9-1h32C85.4,51.9,85.4,69.2,85.4,69.2
		L85.4,69.2z"/>
	<path class="st0" d="M51.8,20.1c-1.1-0.5-2.2-0.3-2.6,0.2c-0.3,0.3-0.4,0.4-0.5,0.4c-0.2,0-1.7-0.1-2.4,0.8c-0.3,0.4-0.4,1-0.1,1.7
		c0.9,2.5,1,2.9,1,2.9v0.1c0,0,1.6,1.6,0.9,3.1c-0.8,1.6-0.6,2,0.3,2.5c0.7,0.4,1,0.8,1,2.4v0.1c0,1.1,0,2.1,0.5,2.6
		c0.3,0.3,0.6,0.4,1.1,0.4c0.4,0,0.7-0.1,0.9-0.4c0.7-0.9,0.5-3,0.3-4c-0.2-0.8-0.6-2.8,0-3.3c0.7-0.5,1-0.7,1.4-0.2
		c0,0,0.1,0.1,0.1,0c0.3,0,1-0.3,0.9-1c0-0.3-0.1-0.5-0.2-0.6l0,0c0.1,0,0.1,0,0.3,0.1c0.5,0.1,0.9,0,1.1-0.3
		c0.2-0.3,0.3-0.7,0.1-1.1c-0.3-0.7-1.4-2.6-2.2-3.3L53.5,23c-0.5-0.4-0.5-0.4-0.4-0.9C53.3,21.3,52.8,20.6,51.8,20.1L51.8,20.1z
		 M53.8,28.1c0,0.1,0,0.1,0.1,0.2c-0.8-0.3-1.6,0.2-2.1,0.6c-1.1,0.8-0.8,2.6-0.4,4.3c0.3,1.2,0.3,2.7-0.1,3.2
		c0,0.1-0.1,0.1-0.2,0.1c-0.2,0-0.4,0-0.5-0.1c-0.3-0.3-0.3-1.2-0.3-2v-0.1c0-1.8-0.4-2.6-1.5-3.2c-0.2-0.1-0.2-0.1-0.3-0.2
		c0-0.1,0.1-0.4,0.4-1.1c0.8-1.8-0.5-3.4-1-4c-0.1-0.4-0.4-1.1-1-2.8c-0.1-0.4-0.2-0.7,0-0.8c0.3-0.3,1.2-0.4,1.6-0.4
		c0.1,0,0.1,0,0.2,0c0.2,0,0.6-0.2,1-0.8c0.1-0.1,0.8-0.3,1.5,0c0.8,0.4,1,0.8,1,0.9c-0.1,0.8,0.1,1.1,0.7,1.6l0.2,0.2
		c0.7,0.6,1.7,2.3,2,3c0,0.1,0,0.1,0,0.1s-0.1,0-0.2,0c-0.4-0.1-0.9-0.2-1.2,0.2C53.6,27.5,53.8,27.9,53.8,28.1L53.8,28.1z"/>
	<path class="st0" d="M49.9,23.6c-0.5,0-0.8,0.4-0.8,0.8c0,0.5,0.4,0.8,0.8,0.8c0.5,0,0.8-0.4,0.8-0.8
		C50.7,23.9,50.3,23.6,49.9,23.6L49.9,23.6z"/>
	<path class="st0" d="M41.4,24c-0.1,0-3.6,1-3.6,3.2c0,2.3,2.2,2.4,2.3,2.4s0.1,0,0.1-0.1s0-0.1,0-0.2c-0.3-0.4-0.5-0.7-0.4-1
		s0.4-0.5,0.7-0.7c0.4-0.2,0.9-0.5,0.8-1.1c-0.2-1.1,0.3-2.4,0.3-2.5s0-0.1,0-0.1C41.5,24,41.4,24,41.4,24L41.4,24z M38.9,28
		c-0.1-0.2-0.2-0.5-0.2-0.8c0-0.8,0.9-1.5,1.7-1.9c-0.1,0.5-0.1,0.9,0,1.3c-0.1,0.1-0.3,0.2-0.3,0.2C39.6,27.1,39.1,27.4,38.9,28
		L38.9,28z"/>
	<path class="st0" d="M43.3,28c-1.5,0.8-2.4,1.4-2.4,1.4c-0.1,0-0.1,0.1-0.1,0.2s0.1,0.1,0.1,0.1c0.5,0.1,4.5,1,5.2,0.9
		c0.4-0.1,1.2-0.4,1.6-1.2c0.3-0.7,0.1-1.6-0.6-2.7c-1.2-2.3-1.9-4-1.9-4c0-0.1-0.1-0.1-0.2-0.1c0,0-3.8,0.9-3.2,4.5
		c0,0.1,0.1,0.1,0.1,0.1h1.3c0.2,0.1,0.5,0.2,0.5,0.3C43.8,27.5,43.8,27.7,43.3,28L43.3,28z M44.8,27.3c-0.1-0.8-1-1.1-1.2-1.1
		c-0.1,0-0.1,0-0.2,0h-0.6c0.1-1.5,1.2-2.2,1.9-2.5c0.3,0.7,0.9,1.9,1.6,3.4v0.1c0.4,0.5,0.7,1.3,0.5,1.8c-0.2,0.4-0.7,0.6-0.9,0.7
		c-0.2,0-1.3-0.1-2.9-0.4c0.2-0.1,0.4-0.2,0.6-0.3C44,28.7,44.9,28.2,44.8,27.3L44.8,27.3z"/>
	<path class="st0" d="M49.7,37.6c0-0.1-0.1-0.2-0.3-0.3l-0.9-0.5l0,0c0,0-0.5-0.1-1,0.4l-4,2.9c-0.1,0.1-0.4,0.4-0.4,0.6
		c0,0.1,0.1,0.2,0.4,0.3c0.6,0.1,2.4,0.3,2.4,0.3s0.9,0,1.3-0.4c0.3-0.4,2.1-2.5,2.2-2.6C49.5,38.3,49.8,37.9,49.7,37.6L49.7,37.6z
		 M46.5,40.3c0,0-0.3,0.1-0.5,0.1l-1.1-0.1l3.2-2.3l0.1-0.1l0.1-0.1l0.3,0.2C47.9,38.7,46.8,40,46.5,40.3L46.5,40.3z"/>
	<path class="st0" d="M48,41.4c0.6,0.1,1.5,0.2,1.6,0.2s0.6,0.1,1.1-0.7l1.1-2c0-0.1,0.2-0.3,0.1-0.6c0-0.1-0.1-0.3-0.4-0.3
		c-0.6-0.1-0.8-0.2-0.8-0.2s-0.6-0.2-0.9,0.3c-0.2,0.4-1.9,2.4-2,2.5c0,0-0.3,0.4-0.2,0.7C47.6,41.3,47.8,41.4,48,41.4L48,41.4z
		 M49.7,40.7c-0.1,0-0.4,0-0.8-0.1c0.5-0.6,1.2-1.5,1.5-1.9c0,0,0.1,0,0.3,0.1c-0.2,0.5-0.9,1.7-0.9,1.7
		C49.8,40.6,49.7,40.6,49.7,40.7L49.7,40.7z"/>
	<path class="st0" d="M52.1,41.6h1.3c0.3,0,0.8-0.2,0.8-1v-2.2v-0.1c0,0-0.3-0.4-0.8-0.4c-0.4,0-0.8,0-0.8,0s-0.4,0-0.6,0.5
		c-0.1,0.4-0.8,1.9-0.8,2c0,0-0.2,0.4,0,0.7C51.3,41.5,51.6,41.6,52.1,41.6L52.1,41.6z M53.2,40.7L53.2,40.7h-1.1l0,0
		c0.2-0.4,0.6-1.3,0.7-1.7c0.1,0,0.3,0,0.4,0L53.2,40.7L53.2,40.7z"/>
	<path class="st0" d="M57.9,41.5l1.1-0.1c0,0,0.2,0,0.3-0.2s0.1-0.4,0-0.7c-0.3-0.6-1.6-3.4-1.7-3.5l0,0c0,0-0.3-0.4-0.6-0.3l0,0
		l-0.7,0.4c-0.2,0.1-0.4,0.3-0.3,0.8c0.2,0.5,0.9,3,1,3l0,0C57,41.2,57.3,41.5,57.9,41.5L57.9,41.5z M57,37.8
		c0.3,0.7,0.9,1.9,1.3,2.7c-0.2,0-0.5,0-0.5,0l0,0C57.7,40,57.2,38.5,57,37.8L57,37.8L57,37.8z"/>
	<path class="st0" d="M54.8,41.7c0.3,0,1.6-0.1,1.6-0.1s0.3,0,0.4-0.2c0.1-0.1,0.1-0.3,0-0.6l-1-2.8l0,0c-0.1-0.2-0.3-0.5-0.7-0.3
		c-0.3,0.1-0.7,0.2-0.8,0.2l0,0c0,0-0.2,0.1-0.2,0.5c0,0.3,0.1,2.5,0.1,2.6C54.3,41.3,54.4,41.7,54.8,41.7L54.8,41.7z M55.2,40.7
		c0-0.8-0.1-1.6-0.1-2l0,0l0.7,2H55.2L55.2,40.7z"/>
	<path class="st0" d="M60.3,41.3c0.4-0.1,1.1-0.2,1.2-0.2c0.1,0,0.4,0,0.6-0.3c0.1-0.2,0.1-0.6-0.1-1c-0.5-1-2.5-4.1-2.6-4.3
		c0,0-0.1-0.2-0.3-0.3c-0.1,0-0.3,0-0.4,0.2L58,36.1c-0.1,0.1-0.4,0.5-0.2,0.9c0.3,0.6,1.8,3.7,1.8,3.7l0,0
		C59.6,41,59.8,41.3,60.3,41.3L60.3,41.3z M58.6,36.7c0.1-0.1,0.2-0.2,0.3-0.3c0.5,0.8,1.8,2.9,2.3,3.7c-0.2,0-0.5,0.1-0.8,0.1
		C60.1,39.9,58.9,37.4,58.6,36.7L58.6,36.7z"/>
	<path class="st0" d="M36.1,74.3c-2-0.9-3.9-0.2-3.9,1.6c0,4.1,8.5,3.5,7.1-3.6c-0.8-4.1-3.3-9.4-3.9-17.1
		C34.7,47.5,38.8,45,38.8,45v-2c-6.5,3.2-5.2,17.2-3.3,23.7C37.5,73.3,36.1,74.3,36.1,74.3L36.1,74.3z"/>
	<path class="st0" d="M101,75.9c0-1.8-1.9-2.6-3.9-1.6c0,0-1.5-1,0.5-7.5s3.2-20.5-3.3-23.7v2c0,0,4.1,2.5,3.5,10.2
		s-3.1,13-3.9,17.1C92.5,79.4,101,80,101,75.9L101,75.9z"/>
	<path class="st0" d="M33.5,80.1l-4,3.3c-4.6-3.6-6.7,0.7-6.7,0.7c1.7-0.3,3.1,0.2,3.1,0.2c-3.6,1-2.7,3.3-2.7,3.3s3.7-2.2,5.2,0.3
		c2,3.2-0.5,5.8-0.5,5.8c6.1,0,4.1-8.1,4.1-8.1l5.4-5.3h-3.9V80.1z"/>
	<path class="st0" d="M109.4,84c0,0-2-4.2-6.7-0.7l-4-3.3h-3.9l5.4,5.3c0,0-2,8.1,4.1,8.1c0,0-2.5-2.5-0.5-5.8
		c1.5-2.5,5.2-0.3,5.2-0.3s0.9-2.3-2.7-3.3C106.3,84.2,107.7,83.7,109.4,84L109.4,84z"/>
	<path class="st0" d="M38.7,49.6l0.1-3.2c-0.1,0.6-0.6,1.1-1.2,1.4c-0.6,0.3-0.3,0.8-0.3,0.8C38.5,48.5,38.7,49.6,38.7,49.6
		L38.7,49.6z"/>
	<path class="st0" d="M38,58c0.2,2.2,0.8,1.4,0.8,1.4s-0.2-3.6-0.2-4.3c-0.1-0.7-2.2-0.3-2.3,0.4c0,0.7,0.4,3.9,0.4,3.9l0.6-0.1
		l-0.1-2.7C37.3,56.5,37.8,55.8,38,58L38,58z"/>
	<path class="st0" d="M38.5,65.6c0.5,0.7,0.6-2.9,0.4-3.6c0,0-1.6-0.5-1.5,0.4C37.6,63.2,37.8,64.6,38.5,65.6L38.5,65.6z"/>
	<path class="st0" d="M36.4,51.6c0,0.7,2.2,0.4,2.2,0.4v-1.2C38.6,50.8,36.4,50.5,36.4,51.6L36.4,51.6z"/>
	<path class="st0" d="M38.6,53.8v-1.2c0,0-2.2-0.3-2.2,0.7C36.4,54.1,38.6,53.8,38.6,53.8L38.6,53.8z"/>
	<path class="st0" d="M44.6,93.6c0-0.4-0.3-0.7-0.7-0.7s-0.7,0.3-0.7,0.7c0,0.4,0.3,0.7,0.7,0.7C44.3,94.3,44.6,94,44.6,93.6
		L44.6,93.6z"/>
	<path class="st0" d="M96,86.3c-0.4,0-0.7,0.3-0.7,0.7c0,0.4,0.3,0.7,0.7,0.7c0.4,0,0.7-0.3,0.7-0.7C96.7,86.6,96.4,86.3,96,86.3
		L96,86.3z"/>
	<path class="st0" d="M94.4,87.3c0-0.4-0.3-0.7-0.7-0.7c-0.4,0-0.7,0.3-0.7,0.7c0,0.4,0.3,0.7,0.7,0.7S94.4,87.7,94.4,87.3
		L94.4,87.3z"/>
	<path class="st0" d="M92.4,87.6c0-0.4-0.3-0.7-0.7-0.7c-0.4,0-0.7,0.3-0.7,0.7c0,0.4,0.3,0.7,0.7,0.7C92.1,88.3,92.4,88,92.4,87.6
		L92.4,87.6z"/>
	<path class="st0" d="M37.7,99.5l0.3-4c0,0-0.3-0.8-1.5-0.2l-0.2,3.1c0,0-0.7,1.2-2.2-0.1l0.2-3.1c0,0-0.5-0.7-1.4-0.2l-0.2,4.1
		C32.6,98.9,34.6,101.6,37.7,99.5L37.7,99.5z"/>
	<path class="st0" d="M35.3,97.8c0.2,0,0.4-0.2,0.4-0.4l0.1-1.3c0-0.2-0.2-0.4-0.4-0.4S35,95.9,35,96.1l-0.1,1.3
		C34.9,97.6,35,97.8,35.3,97.8L35.3,97.8z"/>
	<path class="st0" d="M43.3,100.3l0.3-3.9c0,0-0.3-0.8-1.5-0.2l-0.1,3c0,0-0.7,1.1-2.1-0.1l0.2-3c0,0-0.5-0.6-1.4-0.2l-0.2,4
		C38.5,99.8,40.4,102.3,43.3,100.3L43.3,100.3z"/>
	<path class="st0" d="M41,98.7c0.2,0,0.4-0.2,0.4-0.4l0.1-1.3c0-0.2-0.2-0.4-0.4-0.4s-0.4,0.2-0.4,0.4l-0.1,1.3
		C40.7,98.5,40.8,98.7,41,98.7L41,98.7z"/>
	<path class="st0" d="M48.4,100.7l0.1-2c0,0-0.2-1-1.2-0.3l-0.1,0.9c0,0-0.5,0.7-0.4-0.5c0.1-1.3,0.1-1.3,0.1-1.3s-0.3-0.4-0.6,0.1
		v1.6c0,0-0.3,0.3-0.8,0l0.2-2.3c0,0-0.3-0.9-1.3-0.2l-0.2,3.5C44.2,100.2,45.6,102.7,48.4,100.7L48.4,100.7z"/>
	<path class="st0" d="M35.3,92.2c0-0.4-0.3-0.7-0.7-0.7s-0.7,0.3-0.7,0.7c0,0.4,0.3,0.7,0.7,0.7C35,92.8,35.3,92.5,35.3,92.2
		L35.3,92.2z"/>
	<path class="st0" d="M38.6,92.7c0-0.4-0.3-0.7-0.7-0.7s-0.7,0.3-0.7,0.7c0,0.4,0.3,0.7,0.7,0.7C38.3,93.3,38.6,93,38.6,92.7
		L38.6,92.7z"/>
	<path class="st0" d="M41.3,93.1c0-0.4-0.3-0.7-0.7-0.7s-0.7,0.3-0.7,0.7c0,0.4,0.3,0.7,0.7,0.7C41,93.8,41.3,93.5,41.3,93.1
		L41.3,93.1z"/>
	<path class="st0" d="M38,81.5v2.4l1.5,1.3C39.6,85.1,40.4,82.2,38,81.5L38,81.5z"/>
	<path class="st0" d="M40.2,87.6c-0.2,0.2-0.5,0.7-0.7-0.1c-0.2-0.8-0.9-0.7-1.2-0.7c-0.4,0-0.9,1.5-1.2,0.4c-0.3-1-0.5-1.6-1.7-1.3
		v2.5l6.2,1.4c0,0,0-1.7-0.3-1.9C41.1,87.5,40.4,87.4,40.2,87.6L40.2,87.6z"/>
	<path class="st0" d="M41.9,90.8c0,0-4.3-1.3-6.3-1.4v1l6.5,1.5C42,91.9,42.3,91.7,41.9,90.8L41.9,90.8z"/>
	<path class="st0" d="M99.9,98.9l-0.2-4.1c-0.9-0.5-1.4,0.2-1.4,0.2l0.2,3.1c-1.5,1.3-2.2,0.1-2.2,0.1l-0.2-3.1
		c-1.2-0.6-1.5,0.2-1.5,0.2l0.3,4C98,101.6,99.9,98.9,99.9,98.9L99.9,98.9z"/>
	<path class="st0" d="M96.9,97.4c0,0.2,0.2,0.4,0.4,0.4c0.2,0,0.4-0.2,0.4-0.4l-0.1-1.3c0-0.2-0.2-0.4-0.4-0.4
		c-0.2,0-0.4,0.2-0.4,0.4L96.9,97.4L96.9,97.4z"/>
	<path class="st0" d="M94,99.8l-0.2-4c-0.9-0.4-1.4,0.2-1.4,0.2l0.2,3c-1.4,1.2-2.1,0.1-2.1,0.1l-0.2-2.9c-1.1-0.6-1.5,0.2-1.5,0.2
		l0.3,3.9C92.2,102.3,94,99.8,94,99.8L94,99.8z"/>
	<path class="st0" d="M91.4,96.7c-0.2,0-0.4,0.2-0.4,0.4l0.1,1.3c0,0.2,0.2,0.4,0.4,0.4c0.2,0,0.4-0.2,0.4-0.4l-0.1-1.3
		C91.8,96.8,91.6,96.7,91.4,96.7L91.4,96.7z"/>
	<path class="st0" d="M85.4,99.3l-0.1-0.9c-1-0.7-1.2,0.3-1.2,0.3l0.1,2c2.8,2,4.2-0.5,4.2-0.5l-0.2-3.5C87.3,96,87,96.9,87,96.9
		l0.2,2.3c-0.5,0.3-0.8,0-0.8,0v-1.6c-0.3-0.5-0.6-0.1-0.6-0.1s0,0,0.1,1.3C85.9,100,85.4,99.3,85.4,99.3L85.4,99.3z"/>
	<path class="st0" d="M17.2,21c0.5-0.2,0.9-0.6,0.6-1.2l-2-5.1l-0.5,0.2l2,5c0.2,0.4,0.1,0.6-0.2,0.7c-0.3,0.1-0.5,0-0.6-0.4l-2-5
		L14,15.4l2,5.1C16.2,21.2,16.8,21.2,17.2,21L17.2,21z"/>
	<polygon class="st0" points="19.6,20.1 18,14.7 18,14.7 20.3,19.9 21.1,19.6 19.3,13.5 18.8,13.7 20.3,18.9 20.3,18.9 18.1,13.9 
		17.3,14.1 19.1,20.2 	"/>
	<polygon class="st0" points="22.7,19.2 21.1,13.1 20.5,13.2 22.1,19.4 	"/>
	<polygon class="st0" points="24.9,18.7 24.2,12.3 23.6,12.5 24.3,18.2 24.3,18.3 22.5,12.7 21.9,12.9 24.1,18.9 	"/>
	<polygon class="st0" points="27.8,18.1 27.7,17.6 26.8,17.8 26.3,15.3 27.2,15.1 27.1,14.6 26.2,14.8 25.7,12.5 26.7,12.4 
		26.6,11.9 25.1,12.2 26.3,18.4 	"/>
	<path class="st0" d="M29.3,17.9l-0.5-3l0.4-0.1c0.3,0,0.5,0,0.5,0.3l0.5,2.6l0.6-0.1l-0.5-2.7c-0.1-0.4-0.3-0.5-0.8-0.5l0,0
		c0.4-0.1,0.6-0.3,0.5-0.8L29.7,12c-0.1-0.6-0.5-0.7-1-0.6l-1.1,0.2l1.1,6.3L29.3,17.9L29.3,17.9z M28.3,12.1l0.3-0.1
		c0.3-0.1,0.5,0,0.6,0.3l0.2,1.4c0.1,0.4-0.1,0.5-0.3,0.5l-0.4,0.1L28.3,12.1L28.3,12.1z"/>
	<path class="st0" d="M31,12.8c0,0.3,0.2,0.5,0.4,0.8l1.1,1.3c0.2,0.2,0.2,0.4,0.3,0.6l0.1,0.9c0,0.3,0,0.5-0.3,0.5
		s-0.4-0.1-0.4-0.4L32,15.6l-0.6,0.1l0.1,0.9c0.1,0.6,0.4,0.9,1.1,0.8c0.6-0.1,0.9-0.5,0.8-1.1l-0.2-1c0-0.3-0.2-0.5-0.3-0.7
		l-1.2-1.4c-0.1-0.2-0.2-0.3-0.2-0.5L31.4,12c0-0.2,0-0.4,0.3-0.5c0.3,0,0.4,0.1,0.4,0.4l0.1,0.8l0.6-0.1l-0.1-0.8
		c-0.1-0.6-0.4-0.8-1-0.7C31,11,30.8,11.4,30.9,12L31,12.8L31,12.8z"/>
	<polygon class="st0" points="35,17 34.2,10.6 33.6,10.7 34.5,17 	"/>
	<path class="st0" d="M37.2,16.7c0.8-0.1,0.9-0.5,0.9-1.1l-0.5-4.3c-0.1-0.6-0.3-1-1.1-0.9l-1,0.1l0.8,6.3L37.2,16.7L37.2,16.7z
		 M36.3,10.9c0.4,0,0.5,0.1,0.6,0.4l0.5,4.4c0,0.4-0.1,0.5-0.4,0.6h-0.3L36,10.9H36.3L36.3,10.9z"/>
	<path class="st0" d="M39.5,14.6l1-0.1l0.4,1.7l0.6-0.1l-1.6-6.2L39.1,10l-0.2,6.4l0.6-0.1L39.5,14.6L39.5,14.6z M39.5,10.4
		L39.5,10.4l0.9,3.6l-0.9,0.1V10.4L39.5,10.4z"/>
	<path class="st0" d="M43.3,16c0.8-0.1,0.9-0.5,0.9-1.1l-0.4-4.3c-0.1-0.6-0.3-1-1.1-0.9l-1,0.1l0.6,6.3L43.3,16L43.3,16z
		 M42.7,10.2c0.4,0,0.5,0.1,0.6,0.4l0.4,4.4c0,0.4-0.1,0.5-0.5,0.5h-0.3l-0.5-5.4L42.7,10.2L42.7,10.2z"/>
	<polygon class="st0" points="47.3,15.7 46.9,10 46.9,10 48.1,15.6 48.9,15.5 48.5,9.2 47.9,9.2 48.3,14.7 48.3,14.7 47.2,9.3 
		46.4,9.3 46.8,15.7 	"/>
	<path class="st0" d="M50.4,13.7l1-0.1l0.3,1.7h0.6L51,9h-0.8l-0.5,6.4h0.6L50.4,13.7L50.4,13.7z M50.7,9.5L50.7,9.5l0.7,3.6
		l-0.9,0.1L50.7,9.5L50.7,9.5z"/>
	<path class="st0" d="M54,15.3c0.6,0,0.9-0.4,0.9-0.9v-0.9h-0.6v0.9c0,0.3-0.1,0.4-0.3,0.4s-0.3-0.1-0.3-0.4l-0.2-4.7
		c0-0.3,0.1-0.4,0.3-0.4S54,9.4,54,9.7v0.8h0.6V9.7c0-0.5-0.3-0.9-1-0.8c-0.6,0-0.9,0.4-0.9,0.9l0.2,4.7C53,15,53.4,15.3,54,15.3
		L54,15.3z"/>
	<polygon class="st0" points="56.3,15.1 56.1,8.8 55.5,8.8 55.7,15.2 	"/>
	<path class="st0" d="M58.5,15.1c0.8,0,1-0.5,1-1.1l-0.1-4.3c0-0.6-0.3-1.1-1.1-1c-0.8,0-1,0.5-1,1.1l0.1,4.3
		C57.4,14.7,57.7,15.1,58.5,15.1L58.5,15.1z M58.3,9.1c0.4,0,0.4,0.2,0.5,0.6l0.1,4.3c0,0.4-0.1,0.6-0.4,0.6c-0.4,0-0.4-0.2-0.5-0.6
		l-0.1-4.3C57.8,9.4,57.9,9.1,58.3,9.1L58.3,9.1z"/>
	<polygon class="st0" points="61.1,15 61,9.3 61,9.3 61.8,15 62.7,15 62.5,8.6 62,8.6 62.1,14.1 62.1,14.1 61.3,8.6 60.4,8.6 
		60.6,15 	"/>
	<path class="st0" d="M64.2,13.2h1l0.2,1.8H66l-1-6.4h-0.8L63.4,15H64L64.2,13.2L64.2,13.2z M64.7,9L64.7,9l0.5,3.7h-0.9L64.7,9
		L64.7,9z"/>
	<polygon class="st0" points="68.4,14.5 67.5,14.4 67.5,8.6 66.9,8.6 66.9,14.9 68.4,14.9 	"/>
	<path class="st0" d="M71.1,13.2h1l0.2,1.8h0.6l-0.8-6.4h-0.8l-1,6.4h0.6L71.1,13.2L71.1,13.2z M71.7,9.1L71.7,9.1l0.4,3.7h-0.9
		L71.7,9.1L71.7,9.1z"/>
	<path class="st0" d="M74.7,15.1c0.5,0,1-0.2,1.1-0.9L76,8.7h-0.6L75.2,14c0,0.5-0.2,0.6-0.5,0.6s-0.4-0.2-0.4-0.6l0.2-5.3h-0.6
		l-0.2,5.5C73.7,14.9,74.2,15.1,74.7,15.1L74.7,15.1z"/>
	<polygon class="st0" points="77.2,15.2 77.8,15.2 78.1,9.3 78.7,9.3 78.7,8.9 76.8,8.8 76.8,9.3 77.5,9.3 	"/>
	<path class="st0" d="M80.3,15.4c0.8,0,1-0.4,1.1-1l0.2-4.3c0-0.6-0.2-1.1-1-1.1s-1,0.4-1.1,1l-0.2,4.3
		C79.3,14.9,79.5,15.3,80.3,15.4L80.3,15.4z M79.9,14.3l0.2-4.3c0-0.4,0.1-0.6,0.5-0.6S81,9.7,81,10l-0.2,4.3c0,0.4-0.1,0.6-0.5,0.6
		C80,14.9,79.9,14.6,79.9,14.3L79.9,14.3z"/>
	<polygon class="st0" points="83.3,9.8 83.3,9.8 83.7,15.5 84.5,15.6 84.9,9.2 84.4,9.2 84.1,14.6 84,14.6 83.7,9.1 82.8,9.1 
		82.4,15.4 82.9,15.5 	"/>
	<path class="st0" d="M86.6,15.8c0.8,0.1,1.1-0.4,1.1-1l0.3-4.3c0.1-0.6-0.2-1.1-0.9-1.2c-0.8-0.1-1.1,0.4-1.1,1l-0.3,4.3
		C85.6,15.3,85.8,15.7,86.6,15.8L86.6,15.8z M86.2,14.7l0.3-4.3c0-0.4,0.1-0.6,0.5-0.6s0.4,0.3,0.4,0.6l-0.3,4.3
		c0,0.4-0.1,0.6-0.5,0.6S86.2,15,86.2,14.7L86.2,14.7z"/>
	<polygon class="st0" points="89.7,10.1 89.7,10.1 89.8,16 90.6,16.1 91.8,10.3 91.8,10.3 91.2,16.2 91.8,16.2 92.4,9.9 91.5,9.8 
		90.3,15.4 90.3,15.4 90.2,9.7 89.3,9.6 88.6,15.9 89.2,16 	"/>
	<path class="st0" d="M93.5,14.6l1,0.1v1.8l0.6,0.1l-0.2-6.4l-0.8-0.1l-1.7,6.2l0.6,0.1L93.5,14.6L93.5,14.6z M94.5,10.6L94.5,10.6
		v3.7l-0.9-0.1L94.5,10.6L94.5,10.6z"/>
	<polygon class="st0" points="103.3,11.8 103.3,11.8 103,17.7 103.7,17.9 105.3,12.2 105.4,12.2 104.3,18 104.8,18.1 105.9,11.8 
		105.1,11.6 103.4,17.1 103.4,17.1 103.8,11.4 102.9,11.3 101.8,17.5 102.3,17.6 	"/>
	<polygon class="st0" points="107.4,18.6 107.5,18.1 106.5,17.9 107,15.4 107.9,15.6 108,15.1 107.1,14.9 107.6,12.6 108.6,12.8 
		108.7,12.3 107.1,12 105.9,18.3 	"/>
	<polygon class="st0" points="107.9,18.7 108.5,18.8 109.6,16.3 109.7,16.4 109.6,19.1 110.2,19.2 110.1,15.9 111.6,13 111,12.9 
		109.9,15.3 109.9,15.3 110,12.6 109.4,12.5 109.5,15.8 	"/>
	<polygon class="st0" points="111.4,19.6 113.1,13.4 112.5,13.2 110.9,19.4 	"/>
	<path class="st0" d="M113.3,20.2c0.6,0.2,1-0.1,1.1-0.6l0.3-0.9l-0.6-0.2l-0.3,0.9c-0.1,0.3-0.2,0.4-0.4,0.3
		c-0.2-0.1-0.3-0.2-0.2-0.5l1.4-4.5c0.1-0.3,0.2-0.4,0.4-0.3c0.2,0.1,0.3,0.2,0.2,0.5l-0.2,0.8l0.6,0.2l0.2-0.8
		c0.2-0.5,0-0.9-0.6-1.1c-0.6-0.2-1,0.1-1.1,0.6l-1.4,4.5C112.5,19.6,112.7,20,113.3,20.2L113.3,20.2z"/>
	<path class="st0" d="M115.8,21c0.7,0.3,1.1,0,1.4-0.6l1.6-4c0.2-0.6,0.2-1.1-0.5-1.4c-0.7-0.3-1.1,0-1.4,0.6l-1.6,4
		C115.1,20.2,115.1,20.8,115.8,21L115.8,21z M115.8,19.9l1.6-4c0.1-0.3,0.3-0.5,0.6-0.4c0.3,0.1,0.3,0.4,0.2,0.7l-1.6,4
		c-0.1,0.3-0.3,0.5-0.6,0.4C115.7,20.4,115.7,20.2,115.8,19.9L115.8,19.9z"/>
	<path class="st0" d="M11.1,19.4c1.1,1.5,1.4,2,1.4,3.2V23c0,1,0,2.1,0.7,2.8c0.6,0.6,1.6,0.9,3.1,0.9c1.1,0,2.7-0.3,4.5-0.6
		c2.8-0.5,6.2-1.2,9.3-0.9c-0.7,0.7-3.1,2.6-7.9,2.1s-9.9-0.7-11.6,1.8c-1,1.4-0.8,3.4,0.5,6c0,0.1,0.1,0.1,0.2,0.1
		c0,0,3.7-1.3,2.9-5.3c1.4,0.1,2.8,0.6,4.3,1.1c0.3,0.1,0.6,0.2,0.9,0.3c-3,0.8-5.4,2.1-5.4,3.4c0,0.8,0.9,1.1,3.1,2.1
		s4.4,1.8,6.3,2.8c5.5,2.7,9.5,5.1,10.1,4.5c0.8-0.8-12.4-6-9.3-10.5c1.7-2.5,4.6,0.8,2.3,1.4c-2.4,0.5,3.4,6.4,10.2,8.4
		c0,0,1.2-1.3,2.1-1.7c0,0,1-0.8-0.5-1.2s-10.8-3.3-7-6.8c1.1-1.1,1.2-1.8,0.8-2.3c1.3-0.5,2.4-1.2,3.2-2s1.2-1.7,1.2-2.5
		c0-2.4-3-5.8-4.2-6.9c8.9-1.4,20.6-2.4,34.2-2.4c14.1,0,26.1,1.1,35.1,2.5c-1.1,1.1-4.2,4.5-4.2,7c0,0.9,0.4,1.7,1.2,2.5
		c0.6,0.6,1.3,1,2.1,1.5c-1,0.6-1.5,1.2-1.5,1.7c0,2.1,1.9,2.8,1.9,2.8c0.2,2.4-5.5,5-7.1,5.6c0.4,0.1,1.1,0.5,2,1
		c5.5-1.6,7-4.4,8.1-5.9c1.2-1.6-1.9-0.8-1.9-2.4c0-1.6,4.7-2.8,3.8,1.6c-0.9,3.9-6.5,6.4-9,7.3c0.3,0.3,0.7,0.6,1,0.9
		c0.1,0.2,0.5,0.7,0.7,0.6c0.3-0.1,0.1-0.9,0.5-0.8c0.5,0.1,0.8,0.3,1-0.2s0.2-0.9,0.6-0.7c0.4,0.3,0.5,0.5,0.8,0.4
		c0.4-0.1-0.3-1.2,0.5-0.9c0.9,0.3,1-0.2,0.8-0.7c-0.2-0.4,0.4-0.2,0.9,0.2s0.6-0.4,0.3-0.8c-0.3-0.4,0.1-0.8,0.6-0.3
		s1.4,0.3,0.8-0.4c-0.7-0.7,0.1-1.3,0.8-0.8c0.7,0.6,0.6,0.2,0.2-0.5s-0.1-0.9,0.8-0.3c0.9,0.6,1.5,0.4,0.5-0.4
		c-1-0.8-0.6-1.3,0.4-0.7s2.3,0.8,1.1-0.1c-1.1-1-1.5-1.7-0.1-1c1.3,0.7,2.4,0.6,0.4-0.7s1.1-0.1,1.8,0.5c0.7,0.6,0.9-0.4-0.5-1.1
		c-1.4-0.8-0.6-1,1.3-0.1c1.8,0.9,1.8,0.1,0.3-0.5s-2.1-1.7-0.3-0.7c1.9,0.9,3.8,1.1,1.9,0.1c-0.9-0.4-1.5-0.8-1.7-1.1
		c0.6-0.2,1.3,0,2.6,0.9c2.5,1.8,0.1,3.6-2,4.5c-3.2,1.2-4.4,2.5-7.8,4.9c-2,1.4-4.6,1.9-6.4,2c0.2,0.3,0.4,0.7,0.5,1.1
		c2.9-0.1,6.3-1.1,8.3-2.3c2.7-1.7,7.4-4.3,10.7-5.1c2.6-0.6,5.1-2,1.1-4.9c-1.4-1-2.7-1.8-4.1-2.4c0.1,0,0.2-0.1,0.2-0.1
		c1.5-0.5,2.9-0.9,4.3-1.1c-0.8,4,2.8,5.3,2.9,5.3s0.2,0,0.2-0.1c1.3-2.6,1.4-4.7,0.5-6c-1.8-2.5-6.9-2.3-11.6-1.8
		c-5.4,0.6-7.7-1.8-8.1-2.3c0.6-0.1,1.3-0.1,2,0c1.5,0.1,3.2,0.4,4.8,0.7c3.9,0.7,7.9,1.3,9.8,0c0.6-0.4,0.9-1.1,1-1.9
		c0.2-1.7,1-3.2,1.8-4.5s1.5-2.5,1.2-3.6c-0.2-0.7-0.9-1.3-2.1-1.8C117,11.9,109,9.9,99.7,8.4C89.1,6.7,77.6,5.9,66.1,5.9
		c-22.2,0-42.8,2.8-53.8,7.3c-0.1,0-2.2,0.8-2.7,2.3C9.3,16.2,9.5,17,10,17.8C10.4,18.5,10.8,19,11.1,19.4L11.1,19.4z M12.6,14.1
		C12.6,14.1,12.6,14,12.6,14.1c11-4.5,31.4-7.3,53.5-7.3c27,0,46.8,4.4,55.5,8.2c0.9,0.4,1.4,0.8,1.6,1.2c0.2,0.6-0.4,1.6-1.1,2.8
		c-0.8,1.4-1.7,2.9-1.9,4.9c-0.1,0.5-0.3,0.9-0.6,1.2c0,0,0,0-0.1,0c-0.1-0.3-0.2-0.6-0.5-0.9c-3.7-3.7-26.2-7.8-52.5-7.8
		c-13.5,0-26.8,1.1-37.4,3c-4.7,0.8-8.7,1.8-11.4,2.8c-2.3,0.9-3.7,1.7-4.1,2.5c-0.2-0.5-0.2-1.1-0.2-1.7v-0.4
		c0-1.6-0.4-2.1-1.5-3.8c-0.3-0.4-0.6-0.9-1.1-1.6c-0.4-0.6-0.5-1.1-0.3-1.5C10.8,14.9,12.1,14.2,12.6,14.1L12.6,14.1z M110.5,25
		c-1.7-0.3-3.4-0.6-4.9-0.7c-3.8-0.3-6.1,1.1-7.3,2.3c0.3-1.9,2.9-4.8,4.5-6.4c8.5,1.5,14.1,3.3,15.5,4.8c0.2,0.2,0.3,0.4,0.3,0.5
		s0,0.1-0.1,0.2C116.6,26,113.4,25.5,110.5,25L110.5,25z M102.4,25.6l0.4,0.2c0.5,0.6,3.1,3.2,8.9,2.6c2.4-0.3,7.8-0.8,10.1,0.8
		c-2.4-0.4-4.5,0.3-6.7,1.1c-0.4,0.1-0.8,0.3-1.3,0.4c-5.1-2-9.5-1.4-12.2-0.3c-1.1-0.5-1.9-1-2.5-1.6c-0.3-0.3-0.6-0.7-0.7-1.1
		c0.6-0.7,1.8-1.8,3.9-2.3C102.3,25.5,102.3,25.6,102.4,25.6L102.4,25.6z M120.6,30c0.7,0,1.3,0.1,2.1,0.3c0.4,0.9,0.2,2.2-0.5,3.9
		C121.3,33.6,120,32.4,120.6,30L120.6,30z M35.3,25.9C31,23.3,25,24.4,20.6,25.2c-1.7,0.3-3.2,0.6-4.3,0.6c-0.8,0-1.4-0.1-1.9-0.3
		c-0.1-0.1-0.1-0.2-0.1-0.2c0-0.1,0.1-0.2,0.3-0.5C16.1,23.4,22,21.5,31,20C32.5,21.4,34.7,24,35.3,25.9L35.3,25.9z M30.9,30.6
		c-1.9-0.6-5.1-0.5-7-0.3C23,30.4,22,30.6,21,30.8c-0.8-0.2-1.6-0.5-2.4-0.8c-2.2-0.7-4.3-1.4-6.7-1.1c2.3-1.6,7.7-1,10.1-0.8
		c5.8,0.6,8.4-2,8.9-2.6l0.4-0.2l0,0c1.5,0.3,2.9,0.8,4.1,1.7C35.2,28.4,33.5,29.8,30.9,30.6L30.9,30.6z M11.5,34
		c-0.7-1.6-0.9-2.9-0.5-3.9c0.7-0.2,1.4-0.3,2.1-0.3C13.6,32.2,12.4,33.5,11.5,34L11.5,34z"/>
	<path class="st0" d="M69.8,38.1L69.8,38.1L69.8,38.1c-0.1,0.1,0.2,3.2,3.6,3.2c3,0,5.8-2.4,6.4-3.1c0.4,0.7,2,3.1,3.5,3
		c0.6-0.1,1.1-0.6,1.5-1.6c0.4,0.5,1.7,1.6,3.2,1.5c1.3-0.1,2.4-1,3.4-2.6c0-0.1,0-0.1,0-0.2c0,0-0.1-0.1-0.2-0.1
		c0,0-2.9,0.9-4.7-0.4c-1-0.7-1.5-1.9-1.5-3.6c0-2.6,0.2-4.1,0.5-5c0.8,0.4,1.9,0.8,3,0.8c3.2,0.1,3.8-1.9,3.9-2v-0.1
		c0,0-0.1-0.1-0.1,0c-1.1,0.2-1.9,0-2.3-0.1c1.5-0.5,2.6-0.5,3.1,0c0.6,0.5,0.4,1.4,0.4,1.4c0,0.1,0,0.1,0.1,0.2c0.1,0,0.1,0,0.2,0
		c1.1-1.3,1.6-2.3,1.3-3.2c-0.5-1.5-3-2.1-5.3-2.6c-3.3-0.7-4.5-4.3-4.5-4.3s0-0.1-0.1-0.1h-0.1c-0.8,0.5-1.4,1-1.9,1.5L81,18.2
		l-0.1-0.1c0,0-0.1,0-0.1,0.1s-0.9,1.2-0.4,3c-0.4-0.5-1-1.2-1.1-2.1c0-0.1,0-0.1-0.1-0.1s-0.1,0-0.2,0c0,0-2.3,2.1-0.1,5.3
		c-0.5,0.2-2.3,0.7-5.7-0.3h-0.1L73,24.1c0,0-0.3,1.2,0.5,2.2c0.7,0.8,1.9,1.3,3.5,1.4c-0.6,0.4-2.1,1.2-5.2,0.3c-0.1,0-0.1,0-0.1,0
		s-0.1,0.1,0,0.1c0,0,0.9,3.7,5.7,3.1c-0.9,0.8-3.6,2.9-7.1,1.8h-0.1l-0.1,0.1c0,0.1,0.1,2.2,1.6,3c1.4,0.7,3.4,0.3,6-1.2
		C77.2,36,75.7,38.7,69.8,38.1L69.8,38.1z M77.9,28c0.2-0.2,0.2-0.6,0.1-0.8c-0.1-0.3-0.4-0.4-0.7-0.4c-1.6,0-2.7-0.4-3.2-1
		c-0.1-0.2-0.2-0.4-0.3-0.6c3.8,0.9,5.4,0,5.6-0.1s0.3-0.3,0.4-0.5c0-0.2,0-0.4-0.1-0.6c-0.9-1.2-1-2.2-0.9-2.9
		c0.5,0.8,1.2,1.4,1.2,1.4c0.3,0.2,0.7,0.2,1,0s0.4-0.6,0.2-0.9c-0.3-0.6-0.4-1.1-0.3-1.6l1.6,1.8c-0.1,0.2-0.1,0.3-0.2,0.5
		c-0.2,1,0.1,1.9,0.3,2.2c-2.6,1.7-2.7,3.2-2.6,3.9c-0.3,0.5-1.4,1.8-3.2,2.2c-1.9,0.2-3-0.4-3.7-1.1C76.5,29.6,77.8,28.1,77.9,28
		L77.9,28z M84.5,20.4c0.3,0.5,0.6,1.1,1.1,1.7l-1.3,0.1l-0.8-0.9C83.8,21.1,84.1,20.8,84.5,20.4L84.5,20.4z M93.8,27.5
		c-0.1-0.1-0.2-0.2-0.3-0.3c-0.9-0.8-2.4-0.8-4.5,0c-0.3,0.1-0.5,0.4-0.5,0.7c0,0.3,0.2,0.6,0.4,0.7c0.1,0,0.5,0.2,1.2,0.3
		c-0.5,0.2-1.1,0.3-1.8,0.3c-1,0-1.8-0.3-2.6-0.7c0.3-0.5,0.7-0.7,1.1-1c0.1-0.1,0.3-0.2,0.4-0.3c0.7-0.6,1.3-1.7,1.8-2.6
		c0.1,0,0.2,0,0.3,0.1c1.3,0.3,4.2,0.9,4.6,2C94,26.7,94,27.1,93.8,27.5L93.8,27.5z M89.3,39.6c-0.5,0.4-1,0.6-1.5,0.7
		c-1.4,0.1-2.6-1.3-2.6-1.3c-0.1-0.1-0.3-0.2-0.4-0.3c-0.2-0.4-0.5-1.1-0.6-1.9c0.1,0,0.2,0,0.3,0c0.3,0.8,0.8,1.5,1.5,2
		C86.9,39.5,88.3,39.6,89.3,39.6L89.3,39.6z M83.2,22.3l0.6,0.7c0.1,0.2,0.4,0.3,0.6,0.3c0,0,0.5,0,1-0.1c-0.1,0.3-0.3,0.6-0.5,0.7
		c-0.4,0.2-0.9,0.2-1.4,0c0-0.1,0-0.1-0.1-0.1C83.4,23.8,83,23.2,83.2,22.3L83.2,22.3z M86.8,26.3c-0.1,0.1-0.3,0.2-0.4,0.3
		c-0.5,0.4-1,0.7-1.4,1.3c-0.1-0.1-0.3-0.2-0.4-0.3c0.4-0.6,1-1.1,1.8-1.6c1-0.5,1.1-1.6,1.1-2.3c0.2,0.1,0.4,0.2,0.7,0.3
		C87.9,25,87.3,25.9,86.8,26.3L86.8,26.3z M80.7,37.8c-0.2-0.1-0.6-0.5-0.5-2.3c0.6-0.4,1.1-0.9,1.5-1.3c-0.1,0.9,0.1,1.6,0.6,2
		c0.1,0.1,0.2,0.2,0.3,0.3C82,37.2,81.1,38,80.7,37.8L80.7,37.8z M80.5,31.8C80.6,31.8,80.6,31.8,80.5,31.8c0.1,0,0.9-0.3,1.5-0.9
		c0,0.2,0,0.5,0.1,0.8c-1.3,2.2-2.5,3.1-3.1,3.1C79,34.6,79.7,33.2,80.5,31.8L80.5,31.8z M84.1,35.6c-0.5,0.1-0.8,0-1.1-0.2
		c-0.5-0.6-0.2-2.1,0-3.1c0.3-0.1,0.7-0.2,1-0.3c0,0.7-0.1,1.4-0.1,2.3C84,34.8,84.1,35.2,84.1,35.6L84.1,35.6z M83.2,24.8
		c0.6,0.2,1.3,0.3,2,0c0.4-0.2,0.9-0.7,1.1-1.7c0.1,0,0.1,0,0.2,0l0.1,0.2v0.1l0,0c0,0,0.3,1.4-0.5,1.8c-0.9,0.5-1.6,1.1-2.1,1.8
		c-0.3-0.3-0.4-0.4-0.4-0.4c-0.2-0.2-0.6-0.3-0.9-0.2c-0.2,0.1-0.4,0.3-0.5,0.5c0,0.1-0.3,0.3-1.2,0.6C81,26.9,81.5,26,83.2,24.8
		C83.2,24.9,83.2,24.9,83.2,24.8L83.2,24.8z M83.3,37.3c0.2,0.5,0.4,1.2,0.6,1.7c0,0.1-0.1,0.1-0.1,0.2c-0.2,0.7-0.5,1.1-0.8,1.2
		c-0.5,0.1-1.3-0.7-2-1.6C82,38.4,82.7,38,83.3,37.3L83.3,37.3z M83.1,31.2c-0.1-0.4-0.4-1.5-0.2-2.4c0-0.1,0-0.1-0.1-0.2
		c-0.1,0-0.1,0-0.2,0c0,0-0.9,1-1.7,1.5c-0.1-0.2-0.3-0.7-0.3-1.6c0,0,0-0.1,0.1-0.1c1.5-0.3,2-0.8,2.2-1.1c0.3,0.3,0.9,0.9,1.7,1.4
		c-0.2,0.5-0.3,1.1-0.4,2C84,30.9,83.6,31.1,83.1,31.2L83.1,31.2z M78.2,31.5c0.1-0.2,0.2-0.3,0.2-0.5c0.3-0.1,0.8-0.4,1.3-0.9
		c0.1,0.2,0.1,0.5,0.2,0.9c-0.7,1.3-1.7,2.4-2.2,3c-0.1,0-0.2,0-0.3,0.1c-2.5,1.5-4.3,2-5.4,1.4c-0.5-0.3-0.8-0.8-1-1.2
		C75.2,34.8,78.1,31.7,78.2,31.5L78.2,31.5z M78.3,35.7c0.3,0.1,0.6,0.2,0.9,0.2c0,0.3,0.1,0.9,0.3,1.5c-0.1,0-0.2,0.1-0.2,0.2
		c0,0-2.9,2.9-5.9,2.9c-1.5,0-2.2-0.7-2.5-1.3C75.9,39.3,77.7,37,78.3,35.7L78.3,35.7z"/>
	<path class="st0" d="M18.9,96.8c0.1-0.4,0.1-1-0.2-1.1c-0.3-0.1-0.5,0.2-0.6,0.3l0,0l0,0c0,0-0.4,0.8-1.7,0.8c-0.9,0-1.7,0.4-2.2,1
		c-0.3,0.4-0.4,0.9-0.2,1.3c0.3,0.8,0.9,1.2,1.3,1.1c0.1,0,0.3-0.1,0.2-0.5v-0.2c0-0.2-0.1-0.4-0.1-0.5c0,0,0.1,0,0.2,0.1
		c0.5,0.2,0.9,0.3,1.2,0.1c0.1-0.1,0.3-0.3,0.2-0.7c-0.1-0.2-0.1-0.3-0.2-0.5c0-0.1-0.1-0.2-0.1-0.2s0.1-0.1,0.6-0.1
		C18.4,97.8,18.7,97.8,18.9,96.8L18.9,96.8z M15.6,98.2c-0.1,0-0.1,0-0.2,0C15.5,98.2,15.5,98.1,15.6,98.2
		C15.6,98.2,15.6,98.2,15.6,98.2L15.6,98.2z"/>
	<path class="st0" d="M125.1,95.7c-0.3-0.1-0.5-0.2-0.7-0.4c-0.3-0.2-0.6-0.5-1.4-0.5c-0.4,0-0.6,0.1-0.8,0.3
		c-0.3,0.4-0.1,1.1,0.3,2.1c0.1,0.3,0.2,0.4,0.2,0.5c-0.5-0.2-1.1-0.3-1.6-0.5c-0.3-0.2-0.7-0.1-0.9,0c-0.6,0.4-0.7,1.8-0.7,3
		c-1.5,0.1-2.6,1.1-3.5,1.9c0-0.5-0.1-1.2-0.3-1.5c-0.2-0.2-0.6-0.3-1.1-0.3s-1.1,0.2-1.7,0.6c0-0.3,0-0.6-0.1-0.9
		c-0.1-0.2-0.3-0.4-0.6-0.5c-0.4-0.1-1.1-0.1-1.6,0.4c-0.2,0.2-0.3,0.5-0.2,0.8c0.1,0.5,0.7,1,1.2,1.3c-0.1,0.1-0.1,0.2-0.2,0.3
		c-0.3,0.4-0.4,0.8-0.2,1.2c0.2,0.7,1.2,1.2,2.2,1.5c-1.3,1.2-2.8,2.2-4.4,1.8c-0.3-0.3-1.9-2-5.1-1.2l-0.3,0.1
		c-3.2,0.8-5.7,1.4-6.9,4.5c-0.4,1-0.7,1.4-1.1,1.8c-0.8,1-1.4,1.7-1.9,7.6c-0.5,0.2-2.8,0.9-4.3,1.8c-0.3,0.1-0.6,0.2-1,0.2
		c-0.8,0.1-1.7,0.1-2.8,1.5c-0.7,0.5-1,0.4-1.4,0.4c-0.4-0.1-0.9-0.1-1.5,0.4c-0.4,0.2-0.9,0.3-1.2,0.3c0.2-0.5,0.8-1.9,2.1-2.2
		c1.2-0.3,4.2-1.3,5.5-2.9l0,0c0.4-0.9,1.1-1.4,1.6-1.8c0.6-0.5,1.2-0.9,0.8-1.9c-0.3-0.7,0-1.4,0.3-2.1s0.5-1.4,0.1-1.9
		c0.5-0.2,1.7-0.6,2-1.1c0.1-0.2,0.1-0.4,0.1-0.5c-0.1-0.3,0-0.7,0.1-1.2c0.2-0.8,0.3-1.6,0-2.1c-0.2-0.2-0.5-0.3-0.8-0.4
		c-0.1-0.2-0.4-0.8-1-0.9c-0.4-0.1-0.9,0.1-1.4,0.5c-0.3-0.1-1-0.3-1.5,0c-0.3,0.2-0.4,0.6-0.4,1.2l-1,1.6c-0.4-0.1-1.5-0.2-3.5,1.1
		l-0.8,0.5c-2,1.3-3.6,2.3-4.1,4.7c-0.3,1.2-0.5,1.8-0.6,2.2c-0.1-0.1-0.3-0.2-0.4-0.3c-0.5-0.3-1-0.5-1.5-0.7
		c-0.9-0.4-1.7-0.7-2.2-1.4c-1-1.4-2.5-1.5-4.4-0.3c-2.1,1.3-3.8,1.1-6.1,0.2c-0.4-0.2-0.8-0.3-1.3-0.5c-2.4-0.9-5.8-2.2-7-3.9
		c-0.2-0.3-0.4-0.6-0.6-1c-1-1.6-1.9-2.9-4.1-2.9c-0.2-0.1-1.6-0.6-3.2,0.5l0,0l-0.1,0.1c-0.1,0-0.2-0.1-0.3-0.2
		c-0.5-0.5-1-0.7-2.1,0.1c-0.1,0.1-1.9,1.4-2.5,2.8c-0.1,0-0.2-0.1-0.2-0.2c-0.8-1.9-1.7-3-2.7-3.3c-0.8-0.2-1.4-0.9-2-1.7
		c-0.4-0.5-0.8-0.9-1.3-1.3c-0.4-0.3-0.8-0.5-1.1-0.4c-0.7,0.1-1.3,0.8-1.8,1.6l-0.2,0.2c-0.6,0.8-1.7,1.6-2.6,2.3
		c-0.4,0.3-0.8,0.6-1.1,0.8c0,0,0,0-0.1,0.1c-0.4-0.3-0.7-0.6-0.8-0.9c-0.4-1.3-1.6-2.9-2.2-3.6c0.2-0.8,0.1-1.7-0.5-2.4
		c0.7,0,1.1-0.4,1.6-1.3c0.2-0.4,0.2-0.7,0-1c-0.3-0.4-1-0.7-2.2-0.7c-1,0-1.9,0.8-2.3,1.3c-0.6,0-1.3,0.1-2.1,0.4
		c0.1-0.4,0-0.9-0.3-1.2c-1.4-1.2-3.6,0.9-4.6,1.9c-0.8,0.8-0.9,1.6-0.8,2.1l0,0c-0.1,0-0.1,0-0.2,0.1c0,0-0.2,0-0.3-0.1
		c-0.3-0.1-0.7-0.2-1.3-0.2c-0.2-0.9-0.7-2.4-1.9-2.4c-0.2,0-0.3,0-0.5,0.1c0-0.1,0-0.2,0-0.3c0-0.4-0.2-0.8-0.4-1
		c-0.3-0.3-0.6-0.4-1-0.4c-0.8,0-1.5,0.7-1.5,1.5c0,0.4,0.2,0.8,0.4,1c0.1,0.1,0.2,0.1,0.3,0.2c-0.3,0.2-0.5,0.5-0.7,0.8
		c-0.1,0.3-0.1,0.7,0.3,1.2c0.4,0.4,0.9,0.9,1.5,1.4c-0.2,0.4-0.3,0.9-0.4,1.4c0,0,0,0,0,0.1c-0.3,0.1-0.8,0.4-0.8,0.8
		s0.4,0.7,0.7,1c0,0.7,0,1.4,0.1,2.1c-0.2,0.3-0.4,0.6-0.1,0.9c0.1,0.1,0.3,0.2,0.5,0.3c0.1,0.1,0.1,0.2,0.2,0.3
		c0.3,0.3,0.6,0.7,0.9,1c0.1,0.1,0.1,0.1,0.2,0.2c-0.1,0.4-0.2,1.1,0.3,1.3c0.3,0.1,0.7,0.1,1,0c0.3,0.2,0.5,0.4,0.9,0.6
		s0.8,0.5,1.2,0.8c0,0.4,0,1.1,0.5,1.1c0.3-0.1,0.6-0.1,0.8-0.1c1.1,0.8,1.9,1.6,1.9,1.8c-0.4,0.5-1.7,1.9-2.3,1.9
		c-0.3,0-0.5,0.1-0.6,0.3c-0.3,0.4-0.3,1.2,0,2c-0.3,0.2-1.2,1.1-0.8,1.7c0.1,0.2,0.3,0.4,0.5,0.6s0.5,0.5,0.4,0.7
		c0,0.1-0.2,0.2-0.4,0.3c-0.7,0.3-1.7,0.7-1.9,1.6c-0.2,0.6,0.1,1.3,0.7,2.1c0,0,0,0,0.1,0.1l-0.4,0.5c0,0-1.3,0.3-0.9,1.3
		c0.4,1,2.1,1.1,1.8-0.5l0.4-0.4c0.7,0.5,1.5,0.7,2.2,0.5c0.7-0.2,1.1-0.9,1.2-1.8c0.7,0.3,3.3,1.3,5.8,1.2c0.3,0.3,0.7,0.6,1.2,0.4
		c0.4-0.1,0.6-0.4,0.7-0.6c0.6,0,1.9,0.1,3.1,0c0.2,0.2,0.4,0.5,0.9,0.4c0.5,0,0.6-0.4,0.5-0.7c0.3-0.1,0.5-0.2,0.7-0.3
		c0.5-0.3,1.7-0.5,3.6-0.5c0,0.1,0.1,0.2,0.2,0.3c0.6,1,0.9,1.3,1.1,1.5c0.1,0.1,0.1,0.1,0.1,0.3c-0.1,0.3-0.1,0.6,0.1,0.8
		c0.2,0.2,0.5,0.4,1,0.4l0,0c1,0.1,1.7,0.2,2.2,1l0.1,0.1c0.2,0.4,0.4,0.7,0.7,0.7c0.3,0.1,0.7-0.1,1.4-0.5c1.1-0.7,2.2-0.1,2.4,0.1
		c0.1,0.2,0.6,1,1.2,0.9c0.4,0,0.6-0.4,0.8-1c0.3-0.2,0.6-0.2,1-0.2c0.6,0,1.2,0,2.4-0.6c0,0,2.4-1.6,3.8-2.3
		c0.2,0.4,0.3,0.8,0.4,1.2c0.2,1.2-5,3.6-3,6.8c0.3,0.4,0.5,0.3,0.5,0.3s-0.4-1.1,0.2-1.8c0.6-0.6,3.3,0.2,4.8-1.5
		c0.4,1.8,2.4,2,2.4,2c0.1,0,0.1-0.1,0.2-0.1l0.7-4.6c0.3,0.6,0.6,1,1.1,1.3c0.6,0.3,1.1,0.2,1.4,0.2c1.4,2.3,3.3,1.7,3.6,1.6
		c0.9,0,1.3-0.2,1.4-0.5c0-0.1,0.1-0.5-1.4-1.4c-0.2-0.1-0.2-0.2-0.2-0.2c0-0.1,0.1-0.1,0.3-0.2c0.6-0.1,1.8,0.3,2.9,2.2
		c1.4,2.7,4.3,1.9,4.3,1.9c0.1,0,0.1-0.1,0.1-0.1c0-0.1,0-0.1-0.1-0.1c-0.7-0.2-0.9-1-0.9-1.4c1.7,1.3,3.3,1.9,4.7,1.7
		c1.6-0.2,2.4-1.3,2.4-1.3c0-0.1,0-0.1,0-0.2c0-0.1-0.1-0.1-0.2-0.1c-1.8,0.5-2.6-0.2-3.4-1.2c0.8-0.1,2-0.7,3.6-2.8
		c0.3-0.1,2.7-0.7,5,0c0.2,0.1,0.5,0.2,0.8,0.3c2.9,1,8.8,3,12.8-0.2c2.7-2.1,3.3-3.4,3.4-4.2c0-0.2,0-0.3,0-0.4
		c0.5,0.1,0.8,0.1,0.9,0.1h0.1c0.9,0.1,2.1,0.4,3.1,0.8c0.2,0.1,0.4,0.2,0.7,0.3c-0.2,0.3-0.7,1-0.1,1.3c0.8,0.4,2.6-0.8,2.6,0.3
		s0.9,0.9,2.5,0.2c0,0,0.7-0.2,0.8,0.2c0.1,0.4,0.5,0.9,1.1,0.8c0.3,0,0.7-0.5,1.1-0.9c0.5,0,1-0.1,1.6-0.2c0.5,0.4,1,0.5,1.3,0.2
		c0.2-0.2,0.3-0.5,0.3-0.8c0.7-0.4,1.2-0.9,1.5-1.5c0.4-0.9,0.4-1.8,0.3-2.4c0.2-0.2,0.5-0.6,0.6-1.1c0.1-0.7-0.7-0.6-1.2-1.4
		c-0.2-0.4-0.5-0.8-0.8-1.1c-0.1-0.2-0.2-0.5-0.3-1c-0.1-1.1-1.2-1.6-1.5-0.3c-2.8-1.4-6.6-1.2-9.2-0.6c-0.7,0.2-1.5,0.4-2.2,0.6
		c-2.2,0.7-4.4,1.3-5.4,0.2c0.1-0.4,0.7-2,3.9-3.1c2.3-0.8,7.6-3,8.6-6.4c1.1,0.1,8.8,0.4,10.7-2.3c1.7-2.4,3.1-4.4,1.5-6.5
		c0.8-0.6,1.3-1.2,1.8-1.9c0.3-0.5,0.4-0.8,0.3-1.2c-0.1-0.3-0.4-0.6-0.8-0.8c0.1-0.2,0.4-0.5,1.3-0.7c0.6-0.1,0.7-0.5,0.8-0.7
		C126.3,96.4,125.7,95.8,125.1,95.7L125.1,95.7z M25.9,98.6c0.7,0,1.1,0.1,1.3,0.2c-0.4,0.8-0.5,0.8-1.3,0.5
		c-0.3-0.1-0.5-0.2-0.7-0.3C25.4,98.7,25.7,98.6,25.9,98.6L25.9,98.6z M112,100.9c-0.1-0.1-0.2-0.2-0.3-0.2c0.1,0,0.2-0.1,0.3-0.1
		C112,100.7,112,100.8,112,100.9L112,100.9z M117.2,124.4c0,0.1,0,0.3,0.1,0.4c0,0,0.4,1.1-0.1,2c-0.3,0.6-0.9,1.1-1.9,1.3
		c-3.1,0.9-7.2-0.7-9.4-1.6c-0.3-0.1-0.6-0.2-0.9-0.3c-2-0.7-4.4-1-4.5-1s-0.2,0-0.3,0c-1.5-0.4-1.7-0.8-1.7-1.9
		c0-0.9,0.6-1.3,1-1.4c1.3,0.1,2.9-0.3,4.6-0.8c0.7-0.2,1.4-0.4,2.1-0.6c2.6-0.6,6.5-0.8,9,0.8C117.3,122.5,117.2,124.3,117.2,124.4
		L117.2,124.4z M99.6,126.6c0,0.1,0,1.2-3,3.5c-3.5,2.8-8.9,1-11.8,0l0,0c-0.3-0.1-0.5-0.2-0.8-0.3c-2.4-0.8-4.8-0.2-5.5-0.1
		c0-0.7,0.1-1.8-0.1-2.4c-0.2-0.7,0.5-1.4,1-1.8c0.9-0.1,1.6-0.3,2.1-0.5c0.3,0,0.9,0,1.6-0.3c-0.2,0.4-0.6,1.3-0.1,1.4
		c0.6,0.2,2,0.5,1.5-1.7c0.5,0.1,1.1,0,2-0.6c0.1,0,0.1-0.1,0.1-0.1c0.9-1,1.4-1.1,2.1-1.1c0.4,0,0.9-0.1,1.4-0.3h0.1
		c1.6-0.9,4.2-1.7,4.2-1.7s0,0,0.1,0c0.6,0.4,2,0.9,3.2,0.4l0,0c0.2,0.2,0.4,0.4,0.7,0.6c-0.5,0.4-0.8,1.1-0.8,1.9
		c-0.1,0.6,0.1,1.1,0.5,1.6s1,0.8,1.6,1C99.4,126.2,99.5,126.4,99.6,126.6L99.6,126.6z M71,133.5c-0.3,0.1-0.5,0.5-0.5,0.8
		s0.1,0.7,0.1,1c-0.6-0.2-1.1-0.7-1.5-1.3c-1.2-2.3-2.9-2.9-4-2.8c-0.2,0-0.4,0.1-0.6,0.2c0.2-0.3,0.3-0.6,0.3-1
		c0.5,0.1,2.1,0.2,2.9-0.5c0.1,0.1,0.2,0.1,0.3,0.2c0.1,0,0.2,0,0.3,0.1c0.9,0.5,3.8,2.1,4.9,3.2c0.3,0.3,0.5,0.5,0.7,0.8
		c0.4,0.4,0.8,0.9,1.3,1.3c-1-0.1-2.1-0.7-3.3-1.7C71.7,133.4,71.3,133.4,71,133.5L71,133.5z M55.2,133.7L55.2,133.7L55.2,133.7
		L55.2,133.7L55.2,133.7z M55.3,133.4L55.3,133.4L55.3,133.4L55.3,133.4L55.3,133.4z M56.9,133.8c0-0.1-0.1-0.3-0.1-0.4
		c0.2-0.8,0.5-2.4,0.4-3.1c0-0.4-0.2-0.6-0.4-0.7c-0.4-0.2-0.6,0.1-0.7,0.2c0,0,0.5,3.7-1.7,4.5c-0.6,0.2-1.5,0.2-2.2,0.4
		c-0.5,0.1-1,0.4-1.1,0.3c0.2-1.8,3.3-2.4,3.3-4.4c0-1.6-1.5-3.1-1.8-3.4c-0.1-0.1-2-2-2.3-4.1c0,0,0.1-0.1,0-0.1
		c0-0.2-0.1-0.3-0.1-0.5s0-0.5,0.1-0.7c0.5-2.1,2-4.4,4.6-3.8c0.1,0.1,0.8,0.2,1.3,0.8c0.3,0.4,0.4,0.8,0.5,1c0.1,1-1.3,1.4-1.4,1.3
		c0,0,0-2.1-1.1-2.1c-1,0-2,0.9-2.2,1.9c-0.3,1.1,0.3,2,1.5,2.5c0.4,0.2,0.8,0.3,1.1,0.5c0.6,0.3,1.1,0.5,1.6,0.6
		c-0.1,0-0.1,0-0.2,0c-0.1,0-0.1,0-0.1,0.1c0,0-0.1,0.2,0.1,0.5c0.2,0.4,0.8,0.6,1.7,0.7c1.8,0.2,3.7,0.7,3.7,2.6
		c0,1.4-0.8,2.1-1.1,2.3c-0.2-0.6-1-2.6-3.5-3.6c-3.1-1.1-4.3-2.2-4.7-4.4c0,0,0-0.1-0.1-0.1s-0.5-0.3-0.9,0
		c-0.2,0.1-0.2,0.4-0.2,0.8c0,0.1,0.6,2.5,2.8,3.5c0.4,0.2,0.8,0.4,1.2,0.6c1.6,0.7,3,1.3,3.7,2.6c-0.3,0.1-0.4,0.4-0.5,0.7
		l-0.6,4.2C57.2,134.7,56.9,134.3,56.9,133.8L56.9,133.8z M44.8,132.2c0-0.1-0.1-0.1-0.1-0.2c-0.1-0.1-0.2-0.2-0.3-0.3
		s-1.8-1.3-3.6-0.1c-0.2,0.1-0.4,0.2-0.5,0.3c0-0.1-0.1-0.1-0.1-0.2l-0.1-0.1c-0.7-1.2-1.9-1.3-2.9-1.5l0,0c-0.1,0-0.1,0-0.2,0
		c0.1-0.5,0.1-0.8-0.3-1.2c-0.1-0.1-0.4-0.4-0.9-1.3c-0.9-1.5,0.5-3.7,1-4.4c0.4-0.7,3-2.3,5.4-2.3c1.9,0,5.4,1.3,7,1.8
		c0.2,2.7,2.6,5.1,2.7,5.3c0,0,0.2,0.2,0.5,0.5c-1.4,0.8-3.4,2.1-3.7,2.3c-0.9,0.5-1.4,0.5-1.9,0.5c-0.4,0-0.9,0-1.5,0.3
		C45.1,131.7,44.9,131.9,44.8,132.2L44.8,132.2L44.8,132.2z M25.4,127.8c-2.8,0.8-6.9-0.9-6.9-1c-0.3-0.1-0.6-0.1-0.9,0.1
		s-0.4,0.4-0.4,0.7c0,0.3-0.1,0.9-0.5,1s-1.3-0.1-2-1.1c-0.4-0.5-0.6-0.9-0.5-1.2c0.1-0.2,0.3-0.5,1.3-0.9c0.6-0.2,0.9-0.6,1.1-1
		c0.2-0.7-0.4-1.3-0.7-1.6c-0.1-0.1-0.1-0.1-0.2-0.2c0.1-0.2,0.3-0.4,0.5-0.6c0.3-0.3,0.4-0.7,0.3-1c-0.2-0.5-0.2-0.8-0.2-1
		c1.3-0.2,2.9-2.3,2.9-2.3c0.2-0.2,0.2-0.5,0.2-0.8c-0.3-1.4-4.7-4.1-4.8-4.2c-1-0.6-1.5-1.2-2.1-1.9c-0.3-0.3-0.6-0.7-0.9-1
		c-0.4-0.4-0.5-2.6-0.3-4.6c0.1-1,0.5-1.7,1-2.1c0.9-0.6,2.2-0.3,2.8-0.1c0.3,0.1,0.5,0.1,0.8,0.1c0.1,0,0.2-0.1,0.3-0.1
		c0.2-0.1,0.3-0.1,0.3-0.1l0,0c0.2,0.3,0.2,0.4,0.3,0.5c0.1,0.2,0.1,0.4,0.3,0.8c0.2,0.4,0.8,1.2,1.5,2.2c0.5,0.7,1,1.4,1.3,1.8
		c0.5,0.7,1.4,2.5,2.6,5c0.2,0.3,0,1.9-0.3,3.2c0,0.2,0,0.4,0,0.5c-0.2,0.6-0.4,1.4-0.1,1.5c0.4,0.2,0.8,0.1,1.3-1
		c0.2-0.1,0.3-0.2,0.4-0.3l0,0c0,0,0.3-0.3,2.5,0.2h0.1c0.8,0.2,2.2,0.7,2.8,1.2c0.2,0.2,0.6,0.6,1,1c1,1,2.3,2.3,3.2,3
		c0.7,0.5,1.4,0.8,2,0.9c-0.4,0.8-0.9,2-0.8,3.1c-2,0.1-3.3,0.3-3.9,0.7c-0.6,0.4-3,0.5-4.9,0.4C25.6,127.8,25.5,127.8,25.4,127.8
		L25.4,127.8z M12.9,101.9c-0.4,0.1-0.9,0.2-1.3,0.5c-0.2,0.1-0.4,0.3-0.5,0.5c-0.5-0.5-0.9-0.9-1.3-1.2l-0.1-0.1
		c0.2-0.4,1.4-1,2.4-1C12.4,100.5,12.7,101.1,12.9,101.9L12.9,101.9z M17.3,100.8c2.2-2.1,2.9-2.1,3.2-1.9c0,0.1,0,0.5-0.7,1.6
		c-0.4,0.7-0.8,1.3-0.8,2c-0.5,0.2-1,0.4-1.4,0.6c-0.1-0.2-0.2-0.3-0.4-0.6c-0.1-0.2-0.3-0.3-0.5-0.4
		C16.8,101.8,16.8,101.3,17.3,100.8L17.3,100.8z M34.6,104.8l0.2-0.2c0.3-0.4,0.8-1.1,1.1-1.1c0,0,0.2,0.1,0.3,0.2
		c0.4,0.3,0.8,0.8,1.1,1.2c0.7,0.9,1.5,1.8,2.6,2.1c0.2,0,1,0.4,2,2.7c0.2,0.4,0.5,0.7,1,0.9c0,0.3,0.2,0.6,0.5,0.8
		c1.1,1,2.2,1.1,3.1,1.2c0.7,0.1,1.3,0.2,1.8,0.6c1.3,1.3,2.6,2.2,3.7,2.7c0.5,0.2,1.2,0.7,1.8,1.2c-2.1,0.2-3.8,2-4.4,4.7v0.1
		c-0.8-0.3-1.8-0.7-2.9-1c0.1-0.2-0.1-0.6-0.2-1c-0.3-0.8-1.5-1.8-1.3-1c0,0,0.1,0.4,0.1,0.9c0,0.2,0,0.5,0.1,0.7
		c-0.8-0.2-1.7-0.4-2.3-0.4c0-0.2-0.1-0.4-0.3-0.7c-0.5-0.6-0.6-0.5-0.6-0.2c0,0-0.2,0.5,0,0.9c-1,0.1-2.1,0.4-3,0.8
		c0.1-0.3,0-0.7-0.1-1.1c-0.1-0.5-0.2-1.1-0.4-0.7c0,0-0.5,0.5-0.4,1.3c0.1,0.5,0.2,0.8,0.4,0.8c-1.1,0.6-1.9,1.2-2.2,1.7v0.1
		c-0.5-0.1-1.2-0.3-1.9-0.8c-0.6-0.5-1.5-1.3-2.3-2.1c0.1-0.5,0.3-1.4,0.1-1.7c-0.3-0.3-0.7,0.1-0.9,0.8c-0.4-0.4-0.7-0.7-0.9-0.9
		c-0.1-0.1-0.3-0.2-0.5-0.4c0-0.4,0-1.1-0.2-1.1c-0.3-0.1-0.5,0.3-0.6,0.7c-0.7-0.3-1.4-0.6-2-0.7H27c-0.1,0-0.2,0-0.3-0.1
		c0.1-0.4,0.3-1.1,0.1-1c-0.2,0-0.7,0.5-1,0.9c-0.7-0.1-1.5-0.1-2,0.2c0.1-0.6,0.3-1.9,0.3-2.8l0.1-0.1c1.4-1.1,6.1-4.8,7.1-5.5
		c0.3-0.2,0.6-0.5,1-0.8C32.8,106.5,33.9,105.7,34.6,104.8L34.6,104.8z M44.1,109.8L44.1,109.8l0.1-0.2c0.4-0.7,1.4-1.6,2.1-2.2
		c0.3-0.2,0.5-0.3,0.6-0.3l0.1,0.1c0.4,0.4,0.9,0.5,1.2,0.5s0.5-0.2,0.8-0.4c1.1-0.8,2.1-0.4,2.1-0.4c0.1,0.1,0.2,0.1,0.4,0.1
		c1.7,0,2.2,0.9,3.3,2.5c0.2,0.3,0.4,0.6,0.7,1c1.1,1.5,3.5,2.7,5.7,3.6c0,0,0,0-0.1,0.1c0,0-0.4,0.3,0,0.8s1.4,1.8,1.6,1.5
		c0.1-0.3-0.2-1.4-0.4-1.9c0.2,0.1,0.5,0.2,0.7,0.3c0.4,0.2,0.9,0.3,1.3,0.5c2.5,1,4.5,1.3,7-0.3c1.8-1.1,2.5-0.6,3,0
		c0.6,0.9,1.6,1.3,2.6,1.7c0.5,0.2,0.9,0.4,1.4,0.7c0.5,0.3,0.6,0.5,0.6,0.5l0,0l0,0l0,0l0,0v0.1c0,0-0.5,1.7-1.1,4
		c-0.3,1.2-1.1,1.4-1.4,1.4c-4-1.6-6.5,0.3-8.2,1.6c-0.6,0.5-1.3,1-1.6,1c-0.4,0-0.6-0.1-0.8-0.3c-0.1-0.1-0.1-0.2-0.2-0.3
		c-0.1-0.2-0.3-0.4-0.4-0.6s-0.2-0.4-0.3-0.6c-0.3-0.6-0.6-1.2-1-1.8c-1.1-1.5-4.5-3.4-6.5-4.5c-0.3-0.4-0.8-0.7-1.5-0.9
		c-0.7-0.7-2.1-1.9-3.1-2.3s-2.1-1.2-3.3-2.4c-0.4-0.4-0.9-0.6-1.4-0.8c-0.1-0.6-0.3-1.5-0.6-1.5c-0.4,0-0.7,0.9-0.8,1.3
		c-0.7-0.1-1.4-0.3-2.2-0.9c-0.1-0.1-0.1-0.1-0.1-0.2C43.9,110,44,109.9,44.1,109.8L44.1,109.8L44.1,109.8z M87.8,109.2L87.8,109.2
		c0.1,0,0.1,0,0.2,0c-0.1,0.3-0.3,0.8,0.3,0.8c0.8,0,1.5-0.6,0.7-1.5c0.3-0.5,0.9-1.4,0.9-1.4c0.1-0.2,0.2-0.4,0.1-0.5
		c0-0.1,0-0.2,0-0.3c0.1,0,0.3,0,0.5,0.1c0.3,0.1,0.7,0.1,1-0.2c0.3-0.3,0.5-0.3,0.5-0.3c0.1,0,0.2,0.2,0.3,0.3
		c0.1,0.3,0.5,0.6,0.8,0.6h0.1c0,0.1,0,0.4-0.2,1.2c-0.1,0.5-0.2,1-0.2,1.5c-0.2,0.2-0.9,0.5-1.6,0.7c-0.4,0.1-0.6,0.4-0.7,0.7
		c-0.1,0.3,0.1,0.7,0.4,0.9c0,0.2-0.2,0.7-0.3,0.9c-0.3,0.8-0.7,1.9-0.2,2.9c0.1,0.2,0.1,0.2-0.5,0.6c-0.5,0.4-1.3,1-1.9,2.1
		c-0.8,0.9-2.6,1.8-4.9,2.5c-2.1,0.6-2.9,3-2.9,3.1c-0.1,0.2-0.1,0.4,0,0.6c-0.9,0.3-2.9,0.8-3.4-0.5c0.5-0.3,1-0.8,1.3-1.8
		c0.6-2.1,1.1-3.8,1.1-3.9s0.1-0.3,0.1-0.6c0.3-0.4,0.6-1.3,1-3c0.4-2,1.7-2.8,3.7-4l0.8-0.5C86.9,109,87.8,109.2,87.8,109.2
		L87.8,109.2L87.8,109.2z M57.6,119.7c0-0.1,0-0.1,0-0.2c1.8,1,4.1,2.4,4.9,3.5l0,0c-0.6-0.2-1.4-0.2-2.3,0.1
		c-2.8,0.9-3.7,0.5-5.3-0.2c-0.3-0.1-0.7-0.3-1.1-0.5c-0.7-0.3-1-0.7-0.8-1.2c0.2-0.6,0.8-1.2,1.1-1.1c0,0,0.7,0.3,0.4,1.5
		c-0.1,0.5,1.6,0.5,2.4,0C57.3,121.3,57.7,120.6,57.6,119.7L57.6,119.7z M20.8,107.8c-0.3-0.5-0.9-1.2-1.4-1.9
		c-0.6-0.8-1.1-1.5-1.4-1.9c2.1-1,4.1-1.5,4.7-1.1l0,0c0.7,0.4,1.2,0.7,1.2,1.1s-0.2,1.5-3.1,4.1C20.9,107.9,20.8,107.9,20.8,107.8
		L20.8,107.8z M60.6,124.1c1.7-0.5,2.5,0.1,3.2,1.1c0.2,0.4,0.4,0.7,0.7,1c0.6,0.8,1.3,1.6,2.3,1.8c0.6,0.1,0.8,0.2,0.8,0.2
		s0,0.1-0.1,0.3v0.1c0,0.1,0,0.1,0,0.2c-0.6,0.4-1.9,0.9-3.8,0.2h-0.1c0,0-0.4,0.3-0.2,1.1c0.1,0.2,0,0.4,0,0.5
		c-0.1,0.2-0.6,0.3-1.1,0.3c-0.2,0-0.4,0-0.6,0.1c0.4-0.5,0.8-1.3,0.8-2.5c0-2.5-1.6-3.5-4.2-3.8C58.9,124.6,59.7,124.4,60.6,124.1
		L60.6,124.1z M23.3,112.6c-0.6-1.2-1.3-2.6-1.8-3.7c1.2-1.1,2.1-2,2.7-2.8c0.4,0,1.6,0,2.2-1.2c0.1-0.2,0.2-0.5,0.3-0.8
		c0.6,0.7,1.2,1.8,1.5,2.6c0.1,0.4,0.5,0.8,1,1.2C27.5,109.3,24.5,111.7,23.3,112.6L23.3,112.6z M25.4,104.5
		c-0.1,0.3-0.4,0.5-0.6,0.5c0.2-0.4,0.3-0.8,0.2-1.2c-0.1-1-1-1.5-1.7-1.9l0,0c-0.7-0.4-2-0.2-3.2,0.2c0.1-0.3,0.3-0.7,0.5-1
		c0.1-0.2,0.2-0.3,0.3-0.5c0.1-0.1,0.3-0.1,0.5-0.2c2.5-1,3.1-0.4,4.2,0.7C26.3,101.6,26.2,102.7,25.4,104.5L25.4,104.5z M64,132
		c0,0.1-0.1,0.1-0.1,0.2c0,0.2-0.1,0.9,0.7,1.3c0,0,0,0,0.1,0c-0.3,0.1-1.3,0.3-2.3-1.2C62.9,132.4,63.5,132.3,64,132L64,132z
		 M74.6,132.6L74.6,132.6C74.5,132.6,74.5,132.6,74.6,132.6c-0.1,0-0.3-0.1-0.6-0.1c-0.6-0.6-1.8-1.4-2.8-2c0-0.2,0.1-0.6-0.1-0.9
		c-0.2-0.4-1,0-1.3,0.1c-0.6-0.3-1-0.6-1.2-0.6l0,0V129c0.1-0.3,0.2-0.7,0-1.1s-0.8-0.6-1.6-0.7c-0.2,0-0.3-0.1-0.4-0.1
		c0.6-0.2,1.2-0.6,1.9-1.1c1.7-1.3,3.7-2.9,7.2-1.4l0,0c0,0,0.2,0,0.5,0c0.2,0.5,0.6,1.2,1.9,1.3c-0.6,0.6-0.7,1.2-0.6,2.2
		c0.1,0.7,0.1,1.9,0.1,2.6C75.7,132.9,74.6,132.6,74.6,132.6L74.6,132.6z M97.4,119.9c-0.6,0.1-1.7,0.2-2.5-0.3c0.5-5.5,1-6.2,1.7-7
		c0.4-0.5,0.8-1,1.2-2.1c1-2.6,3.1-3.1,6.2-3.8l0.3-0.1c2.1-0.5,3.4,0.3,3.8,0.7c-0.3,0.5-0.8,1.6-0.4,2.5c0.2,0.7,0.9,1.2,1.9,1.5
		c-1.1,1.7-3.8,3.5-7.6,4.9C98.6,117.4,97.7,119.2,97.4,119.9L97.4,119.9z M110,110.4c-0.7-0.2-1.2-0.5-1.3-0.9
		c-0.2-0.5,0.2-1.3,0.3-1.6c2.9,0.6,5.2-2.1,6.8-3.9c0.3-0.4,0.6-0.7,0.9-0.9c1.6-1.5,3-2.6,4.9-1s1.3,2.8-0.9,5.9
		c-1.1,1.6-6.4,2-9.9,1.8C110.5,109.7,110.1,110,110,110.4L110,110.4z M112.4,102.9c1-1.3,2.2-1.5,2.6-1.5c0.1,0.2,0.1,0.8,0,1.4
		c0,0.2,0,0.3,0,0.5c-0.2,0.2-0.4,0.5-0.7,0.8c-1.6-0.5-1.9-0.8-2-1C112.3,103.1,112.3,103.1,112.4,102.9L112.4,102.9z M122.3,101.3
		c-0.6-0.5-1.1-0.7-1.6-0.9c0-1,0-1.8,0.2-2.2c0.5,0.2,1.1,0.4,1.6,0.6c0.4,0.1,1.4,0.4,1.6,0.6c0,0,0,0.1-0.1,0.2
		C123.6,100.2,123.1,100.8,122.3,101.3L122.3,101.3L122.3,101.3z M123.6,96.8c-0.2-0.5-0.3-0.7-0.3-0.9c0.3,0,0.3,0.1,0.5,0.3
		c0.2,0.2,0.5,0.4,1,0.6l0,0c-0.4,0.1-0.8,0.3-1.1,0.6C123.7,97.1,123.6,96.9,123.6,96.8L123.6,96.8z M9.8,98.9
		c0.1-0.1,0.2-0.1,0.3-0.1s0.2,0,0.3,0.1s0.1,0.2,0.1,0.3c0,0.2-0.2,0.4-0.4,0.4c-0.1,0-0.2,0-0.3-0.1s-0.1-0.2-0.1-0.3
		C9.7,99.1,9.8,99,9.8,98.9L9.8,98.9z"/>
	<path class="st0" d="M31,109c-0.6,0.1-1.6,1.6-0.8,1.7c0,0,1.4-0.8,1.6-1.2C32,109.1,31.5,108.8,31,109L31,109z"/>
	<path class="st0" d="M32.2,111.1c0.6,0.2,0.9-0.3,1.3-0.8c0.3-0.6,0-1.4-0.5-0.7C32.9,109.6,31.5,110.9,32.2,111.1L32.2,111.1z"/>
	<path class="st0" d="M34.6,112c0.4-0.6,0.8-1.3,0.6-1.9c-0.1-0.6-0.5-0.3-0.5-0.3s-1.1,1.3-1,1.7C33.8,112,34.2,112.6,34.6,112
		L34.6,112z"/>
	<path class="st0" d="M37.5,112.6c0.6-0.1,0.4-0.9,0.2-1.6s-0.3-1.1-0.6-0.8c0,0-0.4,0.5-0.4,1.1C36.7,112,36.9,112.7,37.5,112.6
		L37.5,112.6z"/>
	<path class="st0" d="M53.1,30.8c0,0-0.6,0.2-0.5,1s0.3,1.3,1.3,1.2c1.1-0.1,0.3-2,0.1-2.2C53.8,30.6,53.1,30.8,53.1,30.8L53.1,30.8
		z M53.5,32.2c0,0-0.1-0.2-0.1-0.5c0-0.2,0-0.2,0-0.2c0.1,0,0.1,0,0.2,0c0.1,0.2,0.2,0.6,0.2,0.8C53.6,32.2,53.5,32.2,53.5,32.2
		L53.5,32.2z"/>
	<path class="st0" d="M53.1,33.4c0,0-0.4,0.3-0.3,0.9c0.1,0.6,0,1.1,0.9,1.1s1-0.6,0.9-1.3C54.4,33.4,53.5,33.1,53.1,33.4L53.1,33.4
		z M53.8,34.6c0,0-0.1,0-0.2,0l0,0c0-0.1,0-0.2,0-0.2c0-0.1,0-0.1,0-0.2c0-0.1,0-0.1,0-0.2h0.1c0.1,0,0.1,0.1,0.1,0.1
		C53.8,34.5,53.8,34.6,53.8,34.6L53.8,34.6z"/>
	<path class="st0" d="M53.1,35.9c0,0-1,1.1-0.3,1.4c0.7,0.3,1.2,0.5,1.5-0.5C54.6,35.9,53.9,35.2,53.1,35.9L53.1,35.9z M53.6,36.6
		c0,0.1-0.1,0.2-0.1,0.2s-0.1,0-0.1-0.1c0.1-0.1,0.1-0.2,0.2-0.3l0,0C53.6,36.4,53.6,36.5,53.6,36.6L53.6,36.6z"/>
	<path class="st0" d="M54.7,29.7c0,0-0.6,0.1-0.4,0.8c0.2,0.7,0.5,1.6,1.3,1.4c0.8-0.3,0.7-0.9,0.4-1.8
		C55.6,29.2,55.1,29.5,54.7,29.7L54.7,29.7z M55.3,31.1L55.3,31.1c-0.1,0-0.2-0.2-0.3-0.7l0.1-0.1h0.1l0,0
		C55.3,30.5,55.4,30.9,55.3,31.1C55.4,31.1,55.4,31.1,55.3,31.1L55.3,31.1z"/>
	<path class="st0" d="M54.8,32.9c0,0-0.3,1.5,0.5,1.5s1.3-0.2,1.3-1.2C56.5,31.8,54.9,31.6,54.8,32.9L54.8,32.9z M55.8,33.6
		c0,0-0.1,0-0.3,0c0-0.2,0-0.4,0-0.6c0,0,0,0,0-0.1c0-0.2,0.1-0.2,0.1-0.2s0,0,0.1,0c0,0,0.1,0.1,0.1,0.4
		C55.8,33.4,55.8,33.5,55.8,33.6L55.8,33.6z"/>
	<path class="st0" d="M55.5,34.7c0,0-0.7,0.2-0.7,0.8s-0.3,1.6,0.5,1.5s1.6-0.3,1.4-1.5C56.5,34.2,56.1,34.5,55.5,34.7L55.5,34.7z
		 M56,36c-0.1,0.1-0.3,0.1-0.4,0.2c0-0.1,0-0.1,0-0.2c0-0.1,0-0.3,0-0.4c0,0,0.1-0.1,0.2-0.1c0.1,0,0.1,0,0.2-0.1c0,0,0,0.1,0,0.2
		C56,35.8,56,35.9,56,36L56,36z"/>
	<path class="st0" d="M56.5,27.9c0,0-0.7,0.4-0.4,1.5c0.3,1,0.9,1.1,1.3,0.9c0.4-0.2,0.7-0.5,0.4-1.5C57.5,27.7,56.9,27.3,56.5,27.9
		L56.5,27.9z M56.9,28.5L56.9,28.5L56.9,28.5L56.9,28.5L56.9,28.5z M57.2,29.5c0,0-0.1,0-0.1,0.1l0,0c0,0-0.1-0.2-0.2-0.4
		c-0.1-0.4,0-0.6,0.1-0.7c0.1,0.1,0.1,0.2,0.2,0.4C57.2,29.3,57.2,29.5,57.2,29.5L57.2,29.5z"/>
	<path class="st0" d="M56.7,31.6c0.2,0.7,0,1.7,0.9,1.2c0.9-0.4,0.9-0.8,0.7-1.7C58.1,29.9,56.5,30.9,56.7,31.6L56.7,31.6z
		 M57.7,31.9c0,0,0,0-0.1,0.1c0-0.2,0-0.3-0.1-0.5l0.1-0.1C57.7,31.8,57.7,31.9,57.7,31.9L57.7,31.9z"/>
	<path class="st0" d="M57,34.2c0,0.9,0.1,1.7,0.8,1.5c0.8-0.2,1.1-0.6,0.9-1.7C58.6,32.5,57,33.3,57,34.2L57,34.2z M57.8,34.9
		c0-0.2,0-0.5-0.1-0.8c0,0,0-0.1,0.1-0.1c0.1-0.1,0.1-0.1,0.2-0.1V34C58.1,34.7,58,34.8,57.8,34.9L57.8,34.9z"/>
	<path class="st0" d="M79.7,38.7c-0.2,0-0.5,0.2-0.8,0.5l-0.3,0.3c-0.5,0.5-1.7,1.7-2,1.8c-0.1,0-0.1,0.1-0.1,0.2
		c0,0.1,0.1,0.1,0.2,0.1h4.9c0.1,0,0.1,0,0.1-0.1s0-0.1,0-0.2c-0.4-0.5-1.5-2-1.6-2.3C80,38.9,79.9,38.8,79.7,38.7L79.7,38.7z
		 M79.1,40.6c0.1-0.1,0.3-0.3,0.3-0.3l0.1-0.1c0.1,0.1,0.2,0.3,0.3,0.4L79.1,40.6L79.1,40.6z"/>
	<path class="st0" d="M12.6,86.8c3,9.7,5.1,11.5,4.3,6c-0.7-5.5-1.7-9.9-1.1-10.8c0.6-0.9,0.2-2.3-0.1-3.7c-0.3-1.4,0.5-1.7-0.6-5.2
		s0.1-2.6,0.1-4.4c-0.1-1.8-0.7-1.7-0.4-3.9c0.2-2.2,0.3-5.3,0.3-5.3s-1.9-0.1-2.1,1.2s-0.2,16,0.7,21.2c1,5.2-1.7,0.1-2.1-6.3
		s-0.1-13.7-0.1-13.7s0.3-1.7-1.8-2.2C9.6,59.7,9.6,77.1,12.6,86.8L12.6,86.8z"/>
	<path class="st0" d="M21.1,82.4c0-3.6-1.3-5.2-0.7-7.4c0.6-2.2,1-3-0.1-4.8s-0.7-1.6-0.4-3.9s-0.3-5.5-0.1-7.3c0,0-1-0.8-1.2,0.1
		c-0.1,1,0.3,13.1,1,18c0.7,4.9-0.6,2.8-1-1.3c-0.3-2.8-1-16.3-1-16.3s-1.3-1-1.6-0.1c0,0-0.3,16.3,2.8,22.5
		C21.6,88.3,21.1,86,21.1,82.4L21.1,82.4z"/>
	<path class="st0" d="M25.3,78.6c-0.5-1.9-0.5-2.3-0.4-4s-0.6-3.1-0.9-5.4s-0.5-7.9-0.4-11c0,0-0.4-0.5-1.3,0.1
		c0,0,0.1,8.1,0.4,11.1c0.4,3-1.2-0.2-1.3-5.4c-0.1-5.2,0-6.2-1-5.2c0,0-0.3,15.8,4.1,20.7C24.6,79.5,25.8,80.5,25.3,78.6L25.3,78.6
		z"/>
	<path class="st0" d="M24.5,57.1c0,0-0.5,14.5,3.4,18.5c4,4,1,0.2,1-4.4c0-5.4-1.1-4.2-1.2-5.5c0,0-0.2-5.5-0.4-7.1
		c-0.2-1.6-1.4-2.4-1,0.2c0.4,2.6,1.1,9.5,0.1,9.6s-0.8-4.3-0.9-6.9C25.4,58.8,25.8,57.3,24.5,57.1L24.5,57.1z"/>
	<path class="st0" d="M30.1,56.6c0,0-0.7-0.6-0.4,1.9c0.2,2.5,0.7,5-0.1,4.9c-0.9-0.1-0.5-3.2-0.7-4.5c-0.1-1.3-0.4-2.8-0.9-1.9
		c0,0,0.1,9.8,2.8,13.8s2.7,1,1.4-1.4s-1.5-5.4-1.5-7.5C30.7,59.8,30.1,56.6,30.1,56.6L30.1,56.6z"/>
	<path class="st0" d="M32.7,66.2c1.7,2.4,1.2,0.4,0.8-2.1s-0.4-6.3-0.3-8.1c0,0-0.4-0.4-1,0c0,0,0.5,4.4,0.1,4.3
		c-0.4-0.1-0.6-1.6-0.7-3.2c-0.1-1.6-0.3-1.1-0.7-0.8C30.9,56.2,31,63.8,32.7,66.2L32.7,66.2z"/>
	<path class="st0" d="M10.8,44.5c0,0-0.5,3.1-0.7,7.7s0.1,5.3,1.9,5.4c2.3,0.1,2.7-1.5,3.1-5.1c0.4-3.9,0.4-6,0.5-6.5
		c0.1-0.6-1.2-2.2-1.5,0.2c-0.2,2.4-0.1,9.9-1.6,9.6c-1.5-0.3-1.1-4.1-0.8-6.7c0.3-2.6,1.1-5.7,0.1-6C10.8,43,10.8,44.5,10.8,44.5
		L10.8,44.5z"/>
	<path class="st0" d="M16.3,46c0,0-1.9,11.1,0.1,11.2c3,0.1,2.5-3.1,2.9-6.5c0.3-3.5,0.6-4.5-0.1-4.5s-0.9,3.3-1.1,5.1
		c-0.1,1.8,0,4.2-0.9,4c-0.9-0.1-0.8-2.7-0.5-4.8C17.4,45.6,17.1,44.9,16.3,46L16.3,46z"/>
	<path class="st0" d="M20.9,47.2c0,0-0.2-0.5-0.6-0.4c0,0-0.4,3.9-0.5,6.2s0.3,3.3,1.8,3.3s1.4-2.7,1.4-4.8c0.1-2.2,0.6-4.1,0-4.3
		s-0.7,1.4-0.7,2.9c-0.1,1.4-0.2,4.6-0.8,4.6c-0.6,0-1-0.7-0.9-3C20.7,49.3,20.9,47.2,20.9,47.2L20.9,47.2z"/>
	<path class="st0" d="M64.2,56.5c0.5-0.1,0.4-0.5,0.9,0c0.4,0.5,0.5,0.5,1,0.4s1.2,0.2,1.5,0.5s0.8,0.3,0.7,0.6
		c-0.1,0.3-0.6,0.6,0.6,0.9c1.2,0.2,1.6,0.4,2,0c0.3-0.4,0.9-0.4-0.1-1s-1.3-0.5-2.1-1.3c-0.8-0.8-0.7-0.8-1.2-1s-1.2-0.5-1.9-0.3
		c-0.8,0.2-1.8,0.2-1.8,0.2s-0.4,0.3-0.1,0.6C63.8,56.4,63.6,56.6,64.2,56.5L64.2,56.5z"/>
	<path class="st0" d="M69.4,59.5c-0.4,0-0.6-0.3-1-0.3c0,0-0.6-0.1-0.3,0.5c0.3,0.5,0.6,0.6,1,0.5C69.5,60,69.8,59.5,69.4,59.5
		L69.4,59.5z"/>
	<path class="st0" d="M72.3,59.9c0,0,0.8,0,1.2-0.3c0.4-0.2,0.8,0.1,1.2,0.2c0.4,0.1,0.7,0.1,1-0.4s-0.1-0.8-0.4-1.1
		S74.4,58,74,58.2s-0.3,0.3-0.7,0.4C72.9,58.6,71.8,59.7,72.3,59.9L72.3,59.9z"/>
	<path class="st0" d="M77,60.2c0.2,0,0.7,0.1,0.9,0.1c0.2,0,0.5,0,0.2-0.6s-0.2-0.7-0.8-0.6c-0.6,0.1-0.5,0.3-0.5,0.3
		S76.8,60.2,77,60.2L77,60.2z"/>
	<path class="st0" d="M79.4,67.4c0.1,0.1,0.4,0.3,0.5-0.1s0.1-1-0.8-0.8c0,0-0.3,0.2-0.1,0.4C79.3,67.1,79.3,67.3,79.4,67.4
		L79.4,67.4z"/>
	<path class="st0" d="M31.3,49.5c-0.9,6.7,1.7,4.3,1.7,4.3c0.1-1.7,0.4-4,0.4-4c-0.2-0.4-0.5-0.2-0.6,0.7c-0.1,0.8-0.1,2.8-0.8,2.6
		s-0.1-3.7-0.4-3.8C31.4,49.3,31.3,49.5,31.3,49.5L31.3,49.5z"/>
	<path class="st0" d="M28.1,48.8c0,0-0.5,3.3-0.5,4.3s0.5,1.8,1.9,1.7c1.3-0.1,1-1.9,1.1-3.3c0.1-1.4,0.2-2.3,0.2-2.3
		C30.1,49,30.2,49.1,30,51c-0.2,1.9-0.2,2.6-1.1,2.7c-0.9,0.1-0.4-3.5-0.3-4.3C28.7,48.5,28.1,48.8,28.1,48.8L28.1,48.8z"/>
	<path class="st0" d="M24.3,47.9c0,0-0.5,3.2-0.5,5.8c0,2.5,2.9,1.8,3-0.1c0.1-1.9,0.7-5.2,0.7-5.2c-1-0.7-1,1.2-1.2,2.9
		C26.1,53,26,54,25.1,53.9c-0.9-0.2-0.3-4.8-0.2-5.5C24.9,47.5,24.3,47.9,24.3,47.9L24.3,47.9z"/>
	<path class="st0" d="M23,107.7c-0.4,0.8-0.2,1.1,0.3,1.1c0.5,0.1,0.6-1.4,0.6-1.4C23.8,106.9,23.5,106.9,23,107.7L23,107.7z"/>
	<path class="st0" d="M25,107.3c0,0-0.7-0.1-0.5,0.9c0.1,1,0.7,1.1,0.9,1c0.3-0.2,0.2-1.1,0.2-1.3C25.5,107.6,25.3,107,25,107.3
		L25,107.3z"/>
	<path class="st0" d="M26.4,107.1c0,0-0.1,0.8,0.3,1.4c0.4,0.5,1.1,0.8,0.9-0.3C27.2,107,27,106.7,26.4,107.1L26.4,107.1z"/>
	<path class="st0" d="M15.7,105.2c-0.3-0.1-0.5-0.2-0.7,0.2c0,0-0.2,0.6,0.4,0.6S16,105.4,15.7,105.2L15.7,105.2z"/>
	<path class="st0" d="M13.1,106.8L13.1,106.8c0,0.1,0,0.6,0.3,0.6s0.4-0.2,0.4-0.4C13.8,106.7,13.3,106.4,13.1,106.8L13.1,106.8z"/>
	<path class="st0" d="M14,110.2c0,0-0.4,0.4,0.1,0.7c0.5,0.3,0.6,0.2,0.5-0.4C14.4,110,14.2,110,14,110.2L14,110.2z"/>
	<path class="st0" d="M16.9,110.1c0,0,0.4,0.2,0.4,0.1c0.1-0.2-0.1-0.4-0.1-0.4S16.7,109.6,16.9,110.1L16.9,110.1z"/>
	<path class="st0" d="M17.4,112.7c0,0-0.2,0.6,0.3,0.7s0.5-0.4,0.3-0.6C17.9,112.5,17.4,112.5,17.4,112.7L17.4,112.7z"/>
	<path class="st0" d="M20,113.4c0,0,0.4,0.1,0.4,0s0.1-0.3-0.1-0.4C20.2,112.8,19.8,113,20,113.4L20,113.4z"/>
	<path class="st0" d="M19.5,122.7c0,0,0.9-2.2-0.4-1.7c0,0-0.7,0.4-0.5,1.5c0,0-0.7-0.3-0.2,0.6c0.4,0.9,0.8,1.7,1.6,0.9
		C20.9,123.2,19.5,122.7,19.5,122.7L19.5,122.7z"/>
	<path class="st0" d="M22.8,124.2c0,0-0.8,0.6-0.5,0.9c0.2,0.3,1.2,0.4,1.3,0C23.6,124.8,23.1,123.9,22.8,124.2L22.8,124.2z"/>
	<path class="st0" d="M26.1,124.8c0,0-0.9,0.3-0.4,0.7c0.4,0.4,1.2,0.5,1.3,0.4C26.9,125.8,27.3,124.6,26.1,124.8L26.1,124.8z"/>
	<path class="st0" d="M23.5,121c0,0-1,0.5-0.6,0.9s1.1-0.3,1.1-0.3S24.2,120.9,23.5,121L23.5,121z"/>
	<path class="st0" d="M26.5,120c0.7,0.3,1-0.3,1-0.3s-0.5-1.2-1.1-0.8C26.4,119,25.8,119.8,26.5,120L26.5,120z"/>
	<path class="st0" d="M30.5,124.3c0.7,0.3,1,0,1,0s0.4-0.7-1.3-1C30.2,123.3,29.8,124,30.5,124.3L30.5,124.3z"/>
	<path class="st0" d="M40,123.9c0-0.7-0.8-0.4-0.8-0.4s-0.4,0.1-0.5,0.4c0,0.3,0.6,0.4,0.6,0.4S40,124.6,40,123.9L40,123.9z"/>
	<path class="st0" d="M40.1,127.8c-0.3-0.2-0.8,0.3-0.8,0.3S39,129,39.9,129c0.9,0,0.8-0.6,0.8-0.6S40.8,128.2,40.1,127.8
		L40.1,127.8z"/>
	<path class="st0" d="M44.5,126.5c0-0.5-0.5-0.8-0.9-0.7c0,0-0.8,0.1-1,0.8c-0.2,0.7,1.1,0.7,1.1,0.7S44.5,127,44.5,126.5
		L44.5,126.5z"/>
	<path class="st0" d="M43.5,129.1c0,0,0,0.6,0.8,0.6c0.7,0,0.7-0.5,0.7-0.5S43.7,128.6,43.5,129.1L43.5,129.1z"/>
	<path class="st0" d="M47.9,126.7c0.8,0,0.6-0.6,0.6-0.6s-0.3-0.3-0.8-0.3s-0.6,0-0.7,0.4C47.1,126.2,47.1,126.7,47.9,126.7
		L47.9,126.7z"/>
	<path class="st0" d="M39.9,112.9c0.5-0.1,0.1-1.6,0.1-1.6s-0.3-0.9-0.6-0.9c0,0-0.7,0-0.5,1.2C39.2,112.8,39.4,112.9,39.9,112.9
		L39.9,112.9z"/>
	<path class="st0" d="M41.7,112.2c0.3,0.5,0.6,0.5,1,0.3s-0.7-2-0.7-2s-1.1-0.6-1,0C40.9,110.5,41.4,111.8,41.7,112.2L41.7,112.2z"
		/>
	<path class="st0" d="M27.5,111.8c-0.3,0-1.6,0.9-1.1,1.1c0,0,0.6,0.2,1.1-0.3C27.8,112.1,27.8,111.9,27.5,111.8L27.5,111.8z"/>
	<path class="st0" d="M29.4,112.8c0,0-1.4,1.4-0.9,1.7c0.6,0.3,1-0.5,1.2-1.1C30,112.8,29.7,112.5,29.4,112.8L29.4,112.8z"/>
	<path class="st0" d="M30.8,115c0.2,0.4,0.6,1,1-0.1c0.4-1.1,0.2-1.2-0.1-0.9C31.6,114,30.6,114.5,30.8,115L30.8,115z"/>
	<path class="st0" d="M34.3,115.4c0.2-1.3,0-1.2-0.3-0.9c0,0-0.9,0.7-0.7,1.1C33.6,116,34.1,116.8,34.3,115.4L34.3,115.4z"/>
	<path class="st0" d="M36.9,117.3c0.7,0.1,0.5-1.1,0.3-1.9s-0.4-0.8-0.6-0.8c0,0-0.4-0.1-0.4,0.9C36.2,116.4,36.2,117.2,36.9,117.3
		L36.9,117.3z"/>
	<path class="st0" d="M39.4,115.1c0,0-0.7,1.5,0.2,2.2c1,0.6,0.6-0.5,0.4-1.2C39.9,115.4,39.6,114.7,39.4,115.1L39.4,115.1z"/>
	<path class="st0" d="M42.2,114.8c0,0-0.5-0.1-0.3,0.7c0.2,0.8,0.5,1.6,1.3,1.4C44,116.8,42.8,115.2,42.2,114.8L42.2,114.8z"/>
	<path class="st0" d="M46.6,116.8c0.4-0.8-1.7-2.4-2.1-2.2c0,0-0.6,0.3,0,1C45.2,116.3,46.2,117.7,46.6,116.8L46.6,116.8z"/>
	<path class="st0" d="M49.3,116.4c0.5-0.3-0.8-1.6-0.8-1.6s-1-1-1.2-0.8c0,0-0.5,0.6,0.2,1.4C48.2,116.2,48.7,116.7,49.3,116.4
		L49.3,116.4z"/>
	<path class="st0" d="M34.8,118.7c0,0-1.4,1.9-0.5,2.3c0.9,0.3,0.9-1.4,0.9-2.1C35.1,118.2,34.8,118.7,34.8,118.7L34.8,118.7z"/>
	<path class="st0" d="M47.6,118.2c0,0,0.5,1,0.6,1.4s0.5,1.1,0.9,0.5s0.2-0.9-0.3-1.4C48.5,118.1,47.3,117.7,47.6,118.2L47.6,118.2z
		"/>
	<path class="st0" d="M19,40.3c0,0-1.4-0.3-1.9,1.2s-0.2,2.1,0.2,2.1c0.3-0.1,0.5-1.5,0.9-1.4s-0.4,1.4,0.1,1.6
		c0.5,0.1,0.7-1.5,1.1-1.3c0.4,0.1-0.4,1.5,0.2,1.6C20.2,44.2,21,40.8,19,40.3L19,40.3z"/>
	<path class="st0" d="M23,41.7c0,0-1.3-0.2-1.7,1.2c-0.4,1.4-0.1,1.9,0.2,1.9c0.3-0.1,0.4-1.4,0.7-1.3c0.4,0.1-0.3,1.3,0.1,1.4
		c0.5,0.1,0.6-1.3,1-1.2S23,45,23.5,45.2C24.2,45.2,24.8,42.1,23,41.7L23,41.7z"/>
	<path class="st0" d="M15.1,42.4c0.8,0.3,2.1-3.7-0.4-4.6c0,0-1.8-0.5-2.6,1.3s-0.4,2.5,0,2.5c0.4-0.1,0.8-1.8,1.2-1.6
		c0.5,0.2-0.7,1.7,0,1.9s1.1-1.7,1.6-1.5C15.5,40.7,14.3,42.1,15.1,42.4L15.1,42.4z"/>
	<path class="st0" d="M26.7,43c0,0-1.1-0.3-1.5,1c-0.4,1.2-0.1,1.7,0.1,1.6c0.3-0.1,0.4-1.2,0.7-1.1c0.3,0.1-0.3,1.1,0.1,1.3
		c0.4,0.1,0.6-1.2,0.9-1c0.3,0.1-0.3,1.2,0.2,1.3C27.6,46.2,28.3,43.5,26.7,43L26.7,43z"/>
	<path class="st0" d="M30.3,46.7c0.4,0.1,0.9-2.1-0.3-2.5c0,0-0.9-0.2-1.3,0.8c-0.3,1-0.1,1.4,0.1,1.3c0.2,0,0.3-1,0.6-0.9
		c0.3,0.1-0.3,0.9,0.1,1c0.3,0.1,0.5-0.9,0.7-0.9C30.4,45.7,29.9,46.6,30.3,46.7L30.3,46.7z"/>
	<path class="st0" d="M33.4,47.4c0.4,0.1,0.7-2.2-0.7-2.4c0,0-0.9-0.1-1.1,1c-0.2,1,0.1,1.4,0.3,1.3c0.2-0.1,0.2-1,0.4-1
		c0.3,0.1-0.2,1,0.2,1s0.3-1,0.6-0.9C33.4,46.4,33,47.4,33.4,47.4L33.4,47.4z"/>
	<path class="st0" d="M12.9,45.3c-0.2,1.3-1.3,8.9-0.6,9c0.7,0.1,0.6-3.3,0.8-5.1c0.2-1.7,0.5-4.4,0.5-4.4S13.1,44,12.9,45.3
		L12.9,45.3z"/>
	<path class="st0" d="M17.6,46.9c-0.2,1-0.9,7-0.4,7.1s0.4-2.6,0.6-4c0.1-1.4,0.4-3.5,0.4-3.5S17.8,45.9,17.6,46.9L17.6,46.9z"/>
	<path class="st0" d="M21.5,47.9c-0.1,0.8-0.6,5.6-0.1,5.6c0.5,0.1,0.3-2.1,0.4-3.2c0.1-1.1,0.2-2.8,0.2-2.8S21.6,47.1,21.5,47.9
		L21.5,47.9z"/>
	<path class="st0" d="M25.5,48.4c-0.1,0.6-0.7,4.3-0.2,4.3s0.4-1.6,0.4-2.4c0.1-0.8,0.3-2.1,0.3-2.1S25.6,47.8,25.5,48.4L25.5,48.4z
		"/>
	<path class="st0" d="M29.7,49.1c0,0-0.3-0.3-0.4,0.2s-0.5,3.3,0,3.3s0.3-1.3,0.3-1.9C29.5,50.1,29.7,49.1,29.7,49.1L29.7,49.1z"/>
	<path class="st0" d="M32.7,49.6c0,0-0.3-0.2-0.4,0.2c-0.1,0.4-0.4,2.9,0,2.9c0.4,0,0.2-1.1,0.3-1.6C32.6,50.4,32.7,49.6,32.7,49.6
		L32.7,49.6z"/>
	<path class="st0" d="M94.4,46.5v2.4c0,0,1.2-0.1,1.2-0.4c0-0.3,0.5,0.1,0.5,0.1S95.9,47.3,94.4,46.5L94.4,46.5z"/>
	<path class="st0" d="M96.2,53.2c-0.4,0-0.8,0.1-0.8-1s0.2-2-0.9-1.6v3.7c0,0,1.6,1.1,2.6,0c0,0,0.4-2.2-0.3-3.8
		c0,0-0.1-0.1-0.5,0.2C96.3,50.7,96.7,53.2,96.2,53.2L96.2,53.2z"/>
	<path class="st0" d="M94.5,55.9c0,0-0.2,2.7,0,2.7s1,0,1-1.7S94.9,55.4,94.5,55.9L94.5,55.9z"/>
	<path class="st0" d="M96.5,55.5c0,0-0.3,0-0.3,1.1s-0.3,1.9,0,1.9s0.6-1,0.9-2C97.3,55.6,97,55.3,96.5,55.5L96.5,55.5z"/>
	<path class="st0" d="M94.8,61.2c0.6,0,1.6,0,1.7-1.1s-1.1-0.8-2,0.1C94.5,60.2,94.1,61.1,94.8,61.2L94.8,61.2z"/>
	<path class="st0" d="M94.5,62.5c0,0-0.1,3.1,0,3c0.2-0.1,1.1-2.1,1.4-2.8C96.2,61.9,94.7,62,94.5,62.5L94.5,62.5z"/>
	<path class="st0" d="M94,82.6c0.4,1.8,0.1,1.7-0.3,1.7s-0.9-2.6-1.5-0.9c-0.4,1-1,2.5,0.2,2.4s4.2,0.1,3.2-2.3
		C94.6,81.2,93.5,80.8,94,82.6L94,82.6z"/>
	<path class="st0" d="M96.7,90.2c0,0,0.4-0.4,0.2-1c-0.2-0.7-2.1-0.2-2.1-0.2l-4.4,0.2c0,0-0.5,1-0.4,1.1
		C90,90.3,96.3,90.4,96.7,90.2L96.7,90.2z"/>
	<path class="st0" d="M92.7,94c0-1.7-0.4-3.2-1.7-3.1c0,0-1.9-0.1-1.9,1.1c-0.1,1.2-0.3,3,0.3,3s0.1-2.2,0.6-2.3
		c0.5,0,0.5,0.9,0.5,1.5s0.8,0.9,0.8-0.1c-0.1-0.9-0.5-1.7,0-1.5c0.5,0.1,0.6,0.2,0.5,1.1C91.7,94.7,92.7,95.7,92.7,94L92.7,94z"/>
	<path class="st0" d="M94.5,92.6c0.4,0,0.5,0.8,0.5,1.4s0.8,0.8,0.7-0.1c-0.1-0.9-0.4-1.5,0-1.4c0.5,0.1,0.6,0.2,0.5,1
		s0.9,1.7,0.8,0.2c0-1.6-0.3-3-1.6-2.9c0,0-1.7-0.1-1.8,1.1c-0.1,1.1-0.2,2.8,0.3,2.8C94.5,94.6,94.1,92.6,94.5,92.6L94.5,92.6z"/>
	<path class="st0" d="M49.7,112.5c0.7,0,0.3-3.3-0.4-2.7c0,0-0.4,0.3-0.4,1.1C48.8,111.6,49,112.4,49.7,112.5L49.7,112.5z"/>
	<path class="st0" d="M52.4,112.2c-0.2-1.3-0.8-1.9-0.8-1.4c0,0-0.2,0.8,0,1.6C51.8,113.3,52.6,113.4,52.4,112.2L52.4,112.2z"/>
	<path class="st0" d="M55.2,112.5c0.2-0.2-0.9-2.2-1.3-1.6c0,0-0.5,0.2,0.1,1C54.5,112.7,55,112.7,55.2,112.5L55.2,112.5z"/>
	<path class="st0" d="M58,116.4c-0.1-0.3-0.6-0.7-0.8-0.7c0,0-0.5,0.3-0.1,0.7C57.6,117,58,116.7,58,116.4L58,116.4z"/>
	<path class="st0" d="M60.3,116.6c0.6-0.3-0.6-1.4-1.4-1.4c0,0-0.4,0,0,0.7C59.4,116.5,59.7,116.9,60.3,116.6L60.3,116.6z"/>
	<path class="st0" d="M63.2,120.5c0.7,0.6,1.3,0.6,0.9-0.2c-0.4-0.8-0.8-1.3-1.1-1C63,119.3,62.5,119.8,63.2,120.5L63.2,120.5z"/>
	<path class="st0" d="M66.7,119.8c0.2-0.5-1-2.2-1.6-2.1c0,0-0.7,0.1-0.1,1.1C65.7,119.8,66.5,120.3,66.7,119.8L66.7,119.8z"/>
	<path class="st0" d="M68.6,119.2c0-0.5-0.9-2.4-1-1.8c0,0-0.3,1.2,0.2,1.9C68.3,119.9,68.6,119.7,68.6,119.2L68.6,119.2z"/>
	<path class="st0" d="M71.1,118.4c-0.1-0.7-0.7-1.9-1-1.6c0,0-0.6,0.3-0.1,1.1C70.5,118.8,71.2,119.2,71.1,118.4L71.1,118.4z"/>
	<path class="st0" d="M72.9,117.5c1.2,0-0.3-1-0.4-1.2s-0.7-0.3-0.6,0C71.9,116.3,71.6,117.5,72.9,117.5L72.9,117.5z"/>
	<path class="st0" d="M72.9,121.5c-0.1-0.4-0.4-0.7-0.7-0.7c0,0-0.8-0.1-0.3,0.6S72.9,121.9,72.9,121.5L72.9,121.5z"/>
	<path class="st0" d="M75.1,121.2c-0.4-1.2-0.8-1.7-1.2-1.5c0,0-0.3,0.5,0.2,1.3C74.6,121.7,75.5,122.3,75.1,121.2L75.1,121.2z"/>
	<path class="st0" d="M76.6,119.6c-0.2-0.9-1.7-3.2-1.7-2.4c0,0-0.2,0.7,0.4,1.5C75.8,119.5,76.7,120.5,76.6,119.6L76.6,119.6z"/>
	<path class="st0" d="M71.6,124.6c-0.2,0.4-0.5,1.5,0.2,1.2c0,0,1.2-0.7,1-1C72.5,124.4,71.8,124.2,71.6,124.6L71.6,124.6z"/>
	<path class="st0" d="M73.8,127c-0.6,0.2-1.2,0.7-0.9,1.1c0,0,0.3,0.7,1.1,0C74.8,127.5,74.4,126.8,73.8,127L73.8,127z"/>
	<path class="st0" d="M83.7,128.1c0,0-1.4,1.1-0.2,1.2c1.2,0.1,1.4-0.3,1-0.9C84.1,128,84.1,127.9,83.7,128.1L83.7,128.1z"/>
	<path class="st0" d="M91.3,129.2c-0.3,0-1.4,0.6-1,1.1c0,0,0.9,0.4,1.4-0.3C92.2,129.4,91.6,129.2,91.3,129.2L91.3,129.2z"/>
	<path class="st0" d="M94.3,126.9c-0.5,0.2-0.9,0.7,0,1.1c0,0,0.6,0.1,0.9-0.5C95.6,126.9,94.9,126.6,94.3,126.9L94.3,126.9z"/>
	<path class="st0" d="M89.3,126.4c0,0-1.2,1.5,0,1.6c1.2,0.1,0.6-1,0.6-1S89.5,126.1,89.3,126.4L89.3,126.4z"/>
	<path class="st0" d="M89.4,123.9c-0.6-0.5-0.9-0.2-1.2,0.1c0,0-0.8,1.4,0.2,1.3C89.3,125.3,90,124.4,89.4,123.9L89.4,123.9z"/>
	<path class="st0" d="M93.8,123.6c-0.2-0.5-0.3-0.7-0.7-0.5c0,0-0.9,0.7-0.3,0.9C93.3,124.3,94,124.2,93.8,123.6L93.8,123.6z"/>
	<path class="st0" d="M80.3,120.5c0,0-0.3,0.6,0.4,0.7c0.7,0.1,0.7-0.4,0.7-0.6C81.4,120.3,80.7,120,80.3,120.5L80.3,120.5z"/>
	<path class="st0" d="M81.4,116c0,0-0.2,0.9,0.5,1.1s0.5-0.5,0.4-0.7C82.3,116.2,81.4,115.5,81.4,116L81.4,116z"/>
	<path class="st0" d="M85.2,117.8c0,0-0.7,0.7-0.2,0.9C85.4,118.8,86.3,118,85.2,117.8L85.2,117.8z"/>
	<path class="st0" d="M88,115.9c0.6,0.1,1-0.7,0.2-0.8C88.2,115.1,87.4,115.8,88,115.9L88,115.9z"/>
	<path class="st0" d="M84.6,115.7c0,0-0.9,0.1-0.4,0.5c0.5,0.5,0.7,0.5,0.9-0.1C85.2,115.5,85.1,115.5,84.6,115.7L84.6,115.7z"/>
	<path class="st0" d="M86.1,112.7c0,0-0.2,0.6,0.3,0.9s0.5,0,0.5-0.3C86.9,112.9,86.1,112.2,86.1,112.7L86.1,112.7z"/>
	<path class="st0" d="M85.1,111.3c0,0,0.4,0.2,0.8-0.1C86.2,111,85,110.7,85.1,111.3L85.1,111.3z"/>
	<path class="st0" d="M92.1,107.8c0.4-0.3-0.5-0.7-0.7-0.2C91.4,107.6,91.7,108.2,92.1,107.8L92.1,107.8z"/>
	<path class="st0" d="M114.6,127.1c0.9-0.3,1.5-1.8-0.1-1.4c0,0-0.7,0.7-0.7,1C113.8,126.8,113.7,127.3,114.6,127.1L114.6,127.1z"/>
	<path class="st0" d="M108.8,124.6c0,0-0.3,0.9,0.1,0.9c0.4-0.1,1.1-0.3,0.7-0.7C109.1,124.3,108.9,124.3,108.8,124.6L108.8,124.6z"
		/>
	<path class="st0" d="M106,123.4c0,0-0.8,0.3-0.8,0.6c0,0.3,0,0.9,0.7,0.4C106.7,123.9,107.1,122.9,106,123.4L106,123.4z"/>
	<path class="st0" d="M103,122.3c0,0-1,0.3-0.7,0.6c0.3,0.4,1,1,1.2,0.3C103.7,122.6,103.5,122,103,122.3L103,122.3z"/>
	<path class="st0" d="M109.6,121c0,0-0.7,0.3-0.6,0.6c0.1,0.3,0.6,0.6,0.9,0.2C110.3,121.5,110.4,120.7,109.6,121L109.6,121z"/>
	<path class="st0" d="M112,124.1c0.6-0.2,1.4-1.6,0.2-1.4c0,0-0.5,0.2-0.7,0.6C111.3,123.8,111.4,124.3,112,124.1L112,124.1z"/>
	<path class="st0" d="M98,112c0,0,0,1,0.7,0.8c0.6-0.2,0.4-0.8,0.4-0.8S97.8,111.3,98,112L98,112z"/>
	<path class="st0" d="M97.9,116.4c-0.6-0.3-0.6-0.4-0.8-0.2c0,0-0.5,0.9,0.1,1C97.8,117.3,98.5,116.7,97.9,116.4L97.9,116.4z"/>
	<path class="st0" d="M100.6,113.6c0.1-0.4-2,0.5-1.2,0.9c0,0,0.7,0.3,1,0.2C100.8,114.5,100.5,114,100.6,113.6L100.6,113.6z"/>
	<path class="st0" d="M102.6,109.6c0.6,0,0.5-0.6,0.3-0.9s-1.1-0.3-1.1,0.3C101.9,109,102,109.6,102.6,109.6L102.6,109.6z"/>
	<path class="st0" d="M102.8,111.3c1.2,0.7,0.8-1.2,0.2-0.9C103.1,110.4,102.3,111,102.8,111.3L102.8,111.3z"/>
	<path class="st0" d="M104.7,109.9c1.3,0,0.6-1.3,0.1-1.1c0,0-0.6,0.5-0.6,0.6C104.1,109.5,103.7,109.9,104.7,109.9L104.7,109.9z"/>
	<path class="st0" d="M103.2,113.4c0,0.3,0.3,0.4,0.8,0.3c0.5-0.2,0.5-0.9-0.1-0.7C103.9,113,103.3,113.2,103.2,113.4L103.2,113.4z"
		/>
	<path class="st0" d="M106.1,112.6c0.3-0.1,0.2-0.6,0.2-1.1c0-0.4-0.2-0.6-0.6-0.2c0,0-0.3,0.1-0.3,0.5
		C105.5,112.2,105.9,112.7,106.1,112.6L106.1,112.6z"/>
	<path class="st0" d="M117,106.1c0.4-0.4,0.8-1.1-0.1-1.2c0,0-0.6,0-0.5,0.6C116.4,106,116.6,106.5,117,106.1L117,106.1z"/>
	<path class="st0" d="M118.3,106.6c0,0,0.6,0.3,1,0.2c0.4-0.1,0.2-0.7-0.1-0.8C118.9,105.9,117.8,106.5,118.3,106.6L118.3,106.6z"/>
	<path class="st0" d="M120.5,104.2c1,0.2,1.1-1,0.7-0.9C121.2,103.3,119.5,104,120.5,104.2L120.5,104.2z"/>
	<path class="st0" d="M118.5,104c0.5,0,0.8-0.2,0.5-0.4c-0.3-0.2-0.8-0.7-0.8-0.5C118.3,103.1,118,104,118.5,104L118.5,104z"/>
	<path class="st0" d="M115.1,42.5c-0.1-1-0.3-1.2-0.4-1.1c0,0-0.2,2.8,0,2.8C115.1,44.3,115.2,43.5,115.1,42.5L115.1,42.5z"/>
	<path class="st0" d="M101.5,48.8c-0.6,0.1-0.7-0.8-0.8-1.3c0-0.6-0.5-0.9-0.8-0.2c0,0,0.1,2.4,1.2,2.3c1.4-0.1,1.8-0.8,1.2-2.7
		c0,0-0.3-0.5-0.7-0.1C101.2,47,102.1,48.7,101.5,48.8L101.5,48.8z"/>
	<path class="st0" d="M103.3,46.2c0,0-0.2,2.6,0.9,2.6c1.4,0.1,1.9-0.7,1.6-2.7c0,0-0.2-0.6-0.7-0.3s0.1,2.2-0.4,2.2
		c-0.6,0-0.6-0.9-0.6-1.6C104.1,45.9,103.7,45.5,103.3,46.2L103.3,46.2z"/>
	<path class="st0" d="M106.6,45.4c0,0-0.2,2.7,0.8,2.7c1.3,0,1.7-0.7,1.5-2.9c0,0-0.2-0.6-0.7-0.3c-0.5,0.4,0.1,2.3-0.4,2.3
		s-0.6-1-0.5-1.6C107.4,45.1,107,44.7,106.6,45.4L106.6,45.4z"/>
	<path class="st0" d="M109.8,44v2.3c0,0-0.2,1.5,1.5,1.6c1.6,0,1.2-2.1,1.2-3s-0.1-2.2-0.5-2.2c-0.4,0.1-0.5,0.6-0.5,1.5
		c0,1,0.2,2.1-0.3,2.1s-0.5-0.7-0.5-1.7C110.6,43.6,109.9,42.9,109.8,44L109.8,44z"/>
	<path class="st0" d="M114.2,41.7c0,0-1-0.9-1,0.4c0,1.3-0.4,5.1,1.8,5.2c2.2,0.1,1.8-2.7,1.8-4.5s0.3-3.6-0.4-3.1
		c-0.7,0.5-0.8,1-0.9,2.3s0.3,3.3-0.4,3.4c-0.6,0.1-1.1-0.1-1-2C114.4,42,114.2,41.7,114.2,41.7L114.2,41.7z"/>
	<path class="st0" d="M119,43c-0.1-2.1,0-3.6-0.4-3.6c0,0-0.7-0.1-0.8,1c0,1-0.4,5.2,0.9,5.8c1.4,0.6,3.3,0.3,3.3-1.3
		c0-1.5,0-4.9,0-5.8c0-0.9-0.9-1.3-1.1-0.1c-0.2,1.3,0.6,6.2-0.6,6.1C119.3,45.1,119.1,45.1,119,43L119,43z"/>
	<path class="st0" d="M119.9,39.8c0,0-0.4,3.7,0.1,3.9s0.3-2.5,0.3-3.3C120.3,39.5,120,39.1,119.9,39.8L119.9,39.8z"/>
	<path class="st0" d="M114.5,97.6c0.9,0.1,3.7-6.3,4.4-10.3c0.7-4.1,1-5,1.7-6.9c0.8-1.9,1.9-9.3,1.9-13.1c0-3.8,0.2-7.2,0-7.8
		s-0.4-0.8-1.1-0.3c-0.6,0.5-1.4,0.2-1.3,1.9s0.2,12.2-0.4,13.9c-0.6,1.7-1.2,4.3-1.6,6c-0.5,1.7-1.1,3.7-0.7,0.1s1.1-3.7,1.2-5.9
		c0.1-2.2,0.6-4.8,0.5-7.9s0.2-7.1,0.2-7.1s-1.6-2.1-1.6-0.2c-0.1,1.9,0.1,11.8-0.1,13.1s-0.6,3.3-0.4,4.7c0.2,1.3-0.5,1.7-0.6,3.9
		c-0.1,2.2-0.7,10.4-1.7,12.6C113.7,96.6,113.6,97.5,114.5,97.6L114.5,97.6z"/>
	<path class="st0" d="M113,87.7c0.7-0.4,3.4-6.8,3.6-16.6s0.5-10.8,0.1-11.6c-0.4-0.7-1.3-1-1.2,1.1c0.2,2-0.4,16.1-1.1,16.1
		c-0.6,0.5,0.5-12,0.2-16.8l-0.1-0.1c0,0-0.8-2.3-0.9-0.5c-0.1,1.7-0.1,9.4-0.3,10c-0.2,0.6-1.1,3.9-0.8,6.2
		c0.3,2.3,0.5,8.3,0.2,9.8C112.5,86.8,112.4,88.1,113,87.7L113,87.7z"/>
	<path class="st0" d="M112.4,65.7c0.2-2.1,0.7-6.2,0.5-7.2c0,0-1.2-0.4-1.2,0.9c-0.1,0.7-0.1,4-0.2,5.1c-0.2,1.1-0.2,5.9-0.8,5.9
		c-0.7-0.1-0.3-2.4-0.1-4.5c0.2-2.1,1-4.2,0.4-7.1c0,0-1-1.1-1-0.1c-0.1,1,0.1,3.5-0.2,3.9c-0.3,0.4-0.6,1.8-0.5,3.3s0.3,4-0.3,5
		s-0.4,2.2-0.6,3.4c-0.2,1.3-0.5,4.1-1.6,5.9s1.3,2.3,3.7-4.5C112.7,69,112.3,67.8,112.4,65.7L112.4,65.7z"/>
	<path class="st0" d="M106.1,58.8c0,1.1-0.1,7.9-0.6,9.1c-0.5,1.2-0.7,3.6-1,4.2s-1.5,3.7-2.1,4.6c-0.6,1-0.5,2.1,0.6,1.3
		c1.1-0.8,4.3-5,4.8-8.7s1.1-6.1,1.2-7.1c0.2-1,0.5-3.7,0.1-3.9c-0.3-0.2-1-0.4-1,0.6s-0.3,4.5-0.8,6.2s-0.6,2.3-0.6,0.2
		c-0.1-2.1,0.4-6.3,0.1-7.3C106.8,57.9,106.1,57.7,106.1,58.8L106.1,58.8z"/>
	<path class="st0" d="M102.6,57.7c0,0-0.1,1-0.1,3.9c0,3.7-1.9,7.4-3,9.8c-1.1,2.3,0.4,1.7,1.2,1c0.8-0.7,2.4-3.6,3.2-5.2
		c0.8-1.6,1.5-9.3,1.5-9.3c-0.1-0.3-0.8-0.5-1.1-0.1c-0.3,0.4-0.6,0.6-0.8,0.1C103.4,57.4,102.6,57.7,102.6,57.7L102.6,57.7z"/>
	<path class="st0" d="M101.2,64.9c0.5-1.3,0.6-6.9,0.6-6.9c0-0.9-0.4-1.5-0.5,0.1s-0.6,0.9-0.9-0.5s-0.8,2.7-0.6,4
		c0.2,1.4-1.2,5.1-1.7,7.5C97.6,71.4,100.7,66.1,101.2,64.9L101.2,64.9z"/>
	<path class="st0" d="M101.8,51.3c-0.2,1.8,0.1,2.5-0.5,2.3s0-3-0.5-3s-0.4,1.1-0.5,1.9c-0.1,0.8-0.2,2.9,0.9,2.9
		c1.9,0,1.5-3.6,1.5-4.2C102.7,50.5,102,49.5,101.8,51.3L101.8,51.3z"/>
	<path class="st0" d="M105.6,50.1c-0.5,0-0.7,0.1-0.6,1.2c0,1,0.2,2.1-0.3,1.9c-0.5-0.1-0.3-1.3-0.3-2.2s-0.3-0.9-0.3-0.9
		s-0.5-0.1-0.5,0.9s-0.2,4.3,0.8,4.4c1,0.1,1.6-0.8,1.7-3C106.1,50.1,106.1,50.1,105.6,50.1L105.6,50.1z"/>
	<path class="st0" d="M107.8,56.1c1.8,0.2,1.4-3,1.5-3.8c0-0.8,0.2-2.6-0.2-2.6c-0.4,0-0.4,0.5-0.4,1.3c0,0.9-0.1,2.9-0.6,2.9
		s-0.6-1-0.5-2.5s0.1-1.7-0.1-1.7c0,0-0.6,0-0.6,1.2C106.7,52.1,106,55.9,107.8,56.1L107.8,56.1z"/>
	<path class="st0" d="M112.8,49.4c-0.5-0.1-0.9,0-0.9,1s0.1,4.2-0.5,4.2s-0.8-0.9-0.8-2.5s0.4-2.6,0.1-2.7c0,0-0.9-0.5-0.9,1.1
		s-0.3,5.9,1,6.1c1.3,0.2,2.1-1.4,2-3.4C112.7,51.3,113.3,49.5,112.8,49.4L112.8,49.4z"/>
	<path class="st0" d="M114.5,49c0,0-0.7-0.1-0.8,1.2c-0.1,1.3,0.1,3.7,0.1,4.9s0.1,2.2,1.3,2.3c1.1,0.1,1.9-1.7,1.9-3.6
		c0-1.9,0.5-5-0.3-5.1c-0.7-0.1-0.6,0.6-0.5,1.3c0,0.7,0,5.5-0.9,5.4s-1-2.2-0.7-4.3C114.9,48.6,114.5,49,114.5,49L114.5,49z"/>
	<path class="st0" d="M115.4,49.8c0,0-0.3-0.2-0.3,1c0,1.3-0.3,3.3,0.2,3.4c0.5,0,0.1-1.1,0.3-2.2C115.7,50.8,115.7,49.8,115.4,49.8
		L115.4,49.8z"/>
	<path class="st0" d="M122.3,48.1c-0.6-0.1-0.9-0.2-0.9,1.2s-0.1,5.5-0.1,5.5s0.1,1.6-1,1.6s-1.1-0.7-1.1-2.2s0.4-5.5-0.6-5.6
		c0,0-0.7,0-0.8,1.3c0,1.4,0,5.3,0,6s0.3,2.3,2.2,2.6c1.9,0.3,2.4-2.4,2.5-5C122.5,50.8,123,48.2,122.3,48.1L122.3,48.1z"/>
	<path class="st0" d="M120.3,49.5c0,0-0.5-0.2-0.5,1s-0.3,4.7,0.2,4.7c0.4,0,0.5-0.2,0.5-1.2C120.3,51.1,120.7,49.6,120.3,49.5
		L120.3,49.5z"/>
	<path class="st0" d="M99.4,16.1l0.6-4.3c0.1-0.6,0-1.1-0.8-1.2l-1-0.1l-0.9,6.3l1,0.1C99.1,17.1,99.4,16.8,99.4,16.1L99.4,16.1z
		 M98,16.5l0.3-2.3l0.6,0.1l0.1-0.6l-0.6-0.1l0.3-2.4H99c0.4,0.1,0.5,0.2,0.4,0.6l-0.6,4.4c-0.1,0.4-0.2,0.5-0.6,0.4L98,16.5
		L98,16.5z"/>
	<path class="st0" d="M49.1,47.7c0,0-0.9,0.1-0.9-0.8c0-0.2,0-0.5,0-0.8h1.7c0.7,0,1.3-0.5,1.3-1.2c0-0.6-0.6-1.2-1.3-1.2h-1.7h-0.6
		h-0.8v0.6c0,0,0.5-0.1,0.5,0.5s0,2.4,0,2.4s-0.1,0.4-0.5,0.4V48h2.4L49.1,47.7L49.1,47.7z M49.4,44.2c0.3,0,0.6,0.3,0.6,0.6
		s-0.3,0.6-0.6,0.6h-1.1c0-0.5,0-0.9,0-1.2L49.4,44.2L49.4,44.2z"/>
	<path class="st0" d="M42.5,74.3c0.6,0,2.4,0,2.4,0s0.4,0.1,0.4,0.5h0.4v-2.4h-0.4c0,0,0.1,0.9-0.8,0.9c-0.2,0-0.5,0-0.8,0v-1.7
		c0-0.7-0.5-1.3-1.2-1.3c-0.6,0-1.2,0.6-1.2,1.3v1.7V74v0.8H42C42,74.8,41.9,74.3,42.5,74.3L42.5,74.3z M41.9,72.2
		c0-0.3,0.3-0.6,0.6-0.6s0.6,0.3,0.6,0.6v1.1c-0.5,0-0.9,0-1.2,0L41.9,72.2L41.9,72.2z"/>
	<path class="st0" d="M84.3,93.5c0,0-0.2,0.5-0.7,0.1s-2-1.4-2-1.4s-0.3-0.3,0-0.7l-0.4-0.3l-1.6,2.1l0,0L79,94.1
		c-0.5,0.6-0.4,1.5,0.2,1.9c0.4,0.3,0.9,0.3,1.3,0c0,0.3,0.2,0.6,0.4,0.8c0.5,0.4,1.3,0.2,1.7-0.4l1-1.3l0.1-0.2l0.3-0.4l0.5-0.7
		L84.3,93.5L84.3,93.5z M80.2,94.9c-0.3-0.2-0.3-0.6-0.1-0.9l0.7-0.9c0.1,0,0.3,0,0.5,0.2c0.2,0.1,0.4,0.3,0.6,0.5l-0.8,1
		C80.9,95.1,80.5,95.1,80.2,94.9L80.2,94.9z M82.8,95.8c-0.2,0.3-0.6,0.3-0.8,0.1c-0.3-0.2-0.3-0.6-0.1-0.8l0.6-0.9
		c0.4,0.3,0.7,0.5,1,0.7L82.8,95.8L82.8,95.8z"/>
	<path class="st0" d="M55.1,43.8c-1.4,0-2.5,1-2.5,2.3s1.1,2.3,2.5,2.3s2.5-1,2.5-2.3C57.5,44.8,56.5,43.8,55.1,43.8L55.1,43.8z
		 M55.1,47.6c-0.4,0-1-0.8-1-1.6s0.6-1.6,1-1.6s1,0.8,1,1.6S55.5,47.6,55.1,47.6L55.1,47.6z"/>
	<path class="st0" d="M61.7,47.7c0,0-0.9,0.1-0.9-0.8c0-0.2,0-0.5,0-0.8h0.7l1.3,2c0,0,0.8,0.2,1.4-0.5L64,47.3c0,0-0.5,0.4-0.8-0.1
		c-0.2-0.3-0.5-0.9-0.7-1.1c0.7,0,1.2-0.5,1.2-1.2c0-0.6-0.6-1.2-1.3-1.2h-1.7h-0.6h-0.8v0.6c0,0,0.5-0.1,0.5,0.5s0,2.4,0,2.4
		s-0.1,0.4-0.5,0.4V48h2.4V47.7L61.7,47.7z M62,44.2c0.3,0,0.6,0.3,0.6,0.6s-0.3,0.6-0.6,0.6h-1.1c0-0.5,0-0.9,0-1.2L62,44.2
		L62,44.2z"/>
	<path class="st0" d="M42.4,65.8c0.6,0,2.4,0,2.4,0s0.4,0.1,0.4,0.5h0.4V64h-0.4c0,0,0.1,0.9-0.8,0.9c-0.2,0-0.5,0-0.8,0v-0.7l2-1.3
		c0,0,0.2-0.8-0.5-1.4l-0.3,0.2c0,0,0.4,0.5-0.1,0.8c-0.3,0.2-0.9,0.5-1.1,0.7c0-0.7-0.5-1.2-1.2-1.2c-0.6,0-1.2,0.6-1.2,1.3V65v0.6
		v0.8H42C42,66.3,41.8,65.8,42.4,65.8L42.4,65.8z M41.8,63.7c0-0.3,0.3-0.6,0.6-0.6s0.6,0.3,0.6,0.6v1.1c-0.5,0-0.9,0-1.2,0
		L41.8,63.7L41.8,63.7z"/>
	<path class="st0" d="M65.3,103.6c0,0,0.9,0.2,0.6,1c-0.1,0.2-0.1,0.5-0.2,0.8l-0.7-0.2l-0.7-2.3c0,0-0.7-0.4-1.5,0.1l0.1,0.3
		c0,0,0.6-0.2,0.7,0.3c0.1,0.4,0.3,1,0.3,1.3c-0.7-0.2-1.3,0.2-1.5,0.8c-0.2,0.6,0.2,1.3,0.9,1.5l2.2,0.6l0.8,0.2l0.2-0.6
		c0,0-0.5,0-0.3-0.6s0.7-2.3,0.7-2.3s0.2-0.4,0.6-0.3l0.1-0.4l-2.3-0.7L65.3,103.6L65.3,103.6z M63.6,106.2c0.1-0.3,0.4-0.5,0.7-0.4
		l1.1,0.3c-0.1,0.4-0.2,0.9-0.3,1.2L64,107C63.7,106.8,63.5,106.5,63.6,106.2L63.6,106.2z"/>
	<path class="st0" d="M91,49.1c0,0,0.1,0.5-0.5,0.5s-2.4,0-2.4,0s-0.4-0.1-0.4-0.5h-0.4v2.4h0.4c0,0-0.1-0.9,0.8-0.9
		c0.2,0,0.5,0,0.8,0v0.7l-2,1.3c0,0-0.2,0.8,0.5,1.4l0.3-0.2c0,0-0.4-0.5,0.1-0.8c0.3-0.2,0.9-0.5,1.1-0.7c0,0.7,0.5,1.2,1.2,1.2
		c0.6,0,1.2-0.6,1.2-1.3v-1.7v-0.6v-0.8L91,49.1L91,49.1z M91.2,51.7c0,0.3-0.3,0.6-0.6,0.6c-0.3,0-0.6-0.3-0.6-0.6v-1.1
		c0.5,0,0.9,0,1.2,0V51.7L91.2,51.7z"/>
	<polygon class="st0" points="73.5,47.8 72.9,47.8 74.5,45.4 76.9,48.1 78.9,45.9 80.2,47.8 79.4,47.8 79.4,48.2 82.4,48.2 
		82.4,47.8 82,47.8 80,44.8 80,44.8 80,43.9 79,43.9 79,44.5 77.4,46.3 75.4,43.9 73.3,43.9 73.3,44.6 73.8,44.6 73.8,44.6 
		71.7,47.8 71.3,47.8 71.3,48.2 73.5,48.2 	"/>
	<polygon class="st0" points="86.2,47.5 85.9,47.5 85.9,44.6 86.2,44.6 86.2,43.9 84.2,43.9 84.2,44.6 84.5,44.6 84.5,47.5 
		84.2,47.5 84.2,48.2 86.2,48.2 	"/>
	<polygon class="st0" points="42.1,60.1 45,60.1 45,60.5 45.7,60.5 45.7,58.5 45,58.5 45,58.8 42.1,58.8 42.1,58.5 41.4,58.5 
		41.4,60.5 42.1,60.5 	"/>
	<polygon class="st0" points="42.1,52 45.8,49.6 42.1,46.6 42.1,45.9 41.5,45.9 41.5,48 42.1,48 42.1,47.4 44.2,49 42.1,50.3 
		42.1,50.2 41.5,50.2 41.5,52.6 42.1,52.6 	"/>
	<polygon class="st0" points="41.8,57.5 42.7,57.5 42.7,57.1 42.3,57.1 42.3,55.9 45,55.9 45,56.7 45.7,56.7 45.7,53.8 45,53.8 
		45,54.5 42.3,54.5 42.3,53.3 42.7,53.3 42.7,53 42.3,53 42.3,53 41.4,53 41.4,57.5 41.8,57.5 	"/>
	<polygon class="st0" points="42.1,69.5 45,69.5 45,69.8 45.7,69.8 45.7,67.8 45,67.8 45,68.1 42.1,68.1 42.1,67.8 41.4,67.8 
		41.4,69.8 42.1,69.8 	"/>
	<path class="st0" d="M79.9,98.8c0,0-0.2-0.1-0.3-0.2l-1.8-1.9c-0.1-0.1-0.1-0.1-0.1-0.2c0,0,0.1-0.2,0.3-0.4l-0.4-0.4l-3.2,3.1
		l0.5,1.1l0.4-0.4c-0.1-0.2,0-0.6,0-0.7s0-0.2,0.1-0.2l1.3-1.3l1.9,2c0.1,0.1,0.2,0.2,0.2,0.3c0,0-0.5,0.5-0.7,0.7l0.4,0.4l2-1.9
		l-0.4-0.4C80.1,98.6,80,98.7,79.9,98.8L79.9,98.8z"/>
	<path class="st0" d="M49.5,93.6l2.2-1.4c0.1-0.1,0.1-0.1,0.2,0c0,0,0.1,0.2,0.3,0.4l0.5-0.3l-2.4-3.8l-1.2,0.3l0.3,0.5
		c0.2-0.1,0.6,0.1,0.6,0.1c0.1,0,0.1,0.1,0.2,0.2l1,1.5l-2.3,1.5c-0.1,0.1-0.3,0.2-0.3,0.2S48.2,92.2,48,92l-0.5,0.3l1.5,2.4
		l0.5-0.3c-0.1-0.2-0.2-0.4-0.2-0.4C49.3,93.8,49.4,93.6,49.5,93.6L49.5,93.6z"/>
	<path class="st0" d="M51.9,93.4l0.4,0.5c0.2-0.1,0.3-0.1,0.4-0.2c0.1,0,0.2-0.1,0.2-0.1c0.1,0,0.3,0.3,0.4,0.3l0.8,1L53,95.8
		l-1-1.3L51.3,95l1.1,1.3L51.5,97l-0.9-1.1v-0.1v-0.1c0,0,0-0.1,0.1-0.1l0.2-0.3l-0.4-0.5l-0.7,1l2.4,3l0.4-0.3
		c-0.1-0.1-0.2-0.2-0.2-0.2c-0.1-0.1-0.1-0.1-0.1-0.2c0,0,0-0.1,0.1-0.1l2.2-1.8c0.1-0.1,0.1-0.1,0.2-0.1c0,0,0.1,0.1,0.3,0.3
		l0.4-0.3L53,92.9L51.9,93.4L51.9,93.4z"/>
	<path class="st0" d="M44.9,84.8l2.7-0.9c0.1,0,0.2,0,0.2,0s0.1,0.2,0.2,0.4l0.5-0.2l-1.3-3.8L46,80.4l0.2,0.6c0.2,0,0.4,0,0.4,0
		c0.1,0,0.2,0,0.2,0c0.1,0,0.2,0.3,0.2,0.4l0.4,1.2L46,83.1l-0.5-1.6l-0.6,0.2l0.5,1.6l-1.1,0.4l-0.5-1.4v-0.1c0,0,0-0.1,0.1-0.1
		c0,0,0.1,0,0.1-0.1l0.3-0.2l-0.2-0.6l-1,0.6l1.2,3.6l0.5-0.2c-0.1-0.2-0.1-0.2-0.1-0.3c0-0.1,0-0.1,0-0.2
		C44.7,84.9,44.8,84.8,44.9,84.8L44.9,84.8z"/>
	<path class="st0" d="M43.5,80.2c0.5,0,0.9-0.5,1.1-1.4c0.1-0.3,0.1-0.6,0.2-0.9c0.1-0.4,0.2-0.7,0.3-0.8c0.1-0.1,0.3-0.2,0.4-0.2
		c0.1,0,0.2,0.1,0.3,0.2s0.1,0.3,0.1,0.5c0,0.3,0,0.8-0.1,1s-0.5,0.4-0.9,0.6l0.3,0.8c0.4-0.2,0.9-0.4,1.2-0.5
		c0.1-0.7,0.2-1,0.1-1.7c-0.1-0.9-0.3-1.3-0.6-1.8c-0.3-0.4-0.6-0.6-1-0.6c-0.3,0-0.6,0.2-0.8,0.5c-0.2,0.2-0.3,0.7-0.4,1.2
		c0,0.1-0.1,0.3-0.2,0.9c-0.1,0.4-0.2,0.7-0.2,0.8c0,0.1-0.1,0.1-0.2,0.1c-0.2,0-0.4-0.2-0.4-0.6c0-0.3-0.1-1.4,0-1.5
		s0.4-0.3,0.8-0.5l-0.2-0.7c-0.5,0.2-0.9,0.3-1.2,0.4c-0.1,0.7-0.2,1-0.1,1.6c0.1,0.8,0.2,1.4,0.5,1.8C42.8,80,43.1,80.3,43.5,80.2
		L43.5,80.2z"/>
	<path class="st0" d="M90.4,62.3C90.6,62.4,90.5,62.4,90.4,62.3c0.2,0.1,0.3,0.2,0.3,0.2s0,0.1,0,0.3v1.6l-3.1-2.7
		c0,0-0.4-0.5-0.4,0.4s0,4.2,0,4.2l1.2,0.3v-0.8c-0.3-0.1-0.2-0.2-0.3-0.3C88,65.4,88,65.3,88,65.1v-1.3l3.1,2.7
		c0,0,0.4,0.3,0.4-0.4s0-4.3,0-4.3l-1.2-0.3v0.8H90.4z"/>
	<path class="st0" d="M88,54.8c0,0,0-0.2,0-0.4h-0.7v1.8H88c0-0.2,0-0.3,0-0.4l0,0l0.7,0.4V58c-0.6,0.3-0.7,0.4-0.7,0.4s0-0.7,0-0.8
		h-0.7v2.9H88c0-0.2,0-0.4,0-0.4c0-0.1,0.1-0.1,0.2-0.2l3.4-2v-1.2l-3.5-1.8C88.1,54.8,88.1,54.8,88,54.8L88,54.8z M89.4,56.6
		l0.9,0.5l-0.9,0.6V56.6L89.4,56.6z"/>
	<path class="st0" d="M88,67.7c0,0,0-0.2,0-0.4h-0.7v1.8H88c0-0.2,0-0.3,0-0.4l0,0l0.7,0.4V71c-0.6,0.3-0.7,0.4-0.7,0.4s0-0.7,0-0.8
		h-0.7v2.9H88c0-0.2,0-0.4,0-0.4c0-0.1,0.1-0.1,0.2-0.2l3.4-2v-1.2l-3.5-1.8C88,67.8,88,67.8,88,67.7L88,67.7z M89.3,69.6l0.9,0.5
		l-0.9,0.6V69.6L89.3,69.6z"/>
	<path class="st0" d="M74.1,100.3l-0.4-0.6l-1.5,0.9l0.4,0.6c0.2-0.1,0.3-0.2,0.3-0.2l0,0l0.1,0.8l-1.6,1c-0.6-0.3-0.7-0.4-0.7-0.4
		s0.6-0.4,0.7-0.4l-0.4-0.6l-2.4,1.5l0.4,0.6c0.2-0.1,0.3-0.2,0.4-0.2s0.1,0,0.2,0.1l3.5,1.8l1.1-0.7l-0.3-3.9c0-0.1,0-0.1,0-0.2
		C73.8,100.4,73.9,100.4,74.1,100.3L74.1,100.3z M72,103.1l0.9-0.5l0.1,1.1L72,103.1L72,103.1z"/>
	<path class="st0" d="M61.3,101l-0.4,0.6c0.2,0.1,0.3,0.2,0.3,0.2l0,0l-0.7,0.4l-1.5-1.1c0.1-0.7,0.1-0.8,0.1-0.8s0.6,0.4,0.6,0.5
		l0.4-0.6l-2.3-1.7L57.3,99c0.2,0.1,0.3,0.2,0.3,0.3c0,0,0,0.1,0,0.3l-0.3,3.9l1,0.7l3.5-1.7c0.1,0,0.1,0,0.2,0c0,0,0.2,0.1,0.3,0.2
		l0.4-0.6L61.3,101L61.3,101z M58.7,102.9l0.1-1.1l0.8,0.6L58.7,102.9L58.7,102.9z"/>
	<path class="st0" d="M85,85.3c0,0,0.1-0.2,0.1-0.4l-0.7-0.3l-0.7,1.6l0.7,0.3c0.1-0.2,0.1-0.3,0.1-0.3l0,0l0.5,0.6l-0.8,1.7
		c-0.7,0.1-0.8,0.1-0.8,0.1l0.3-0.7L83,87.6l-1.2,2.6l0.7,0.3c0.1-0.2,0.2-0.3,0.2-0.4c0,0,0.1-0.1,0.2-0.1l3.9-0.5l0.5-1.1
		l-2.4-3.1C85,85.4,85,85.4,85,85.3L85,85.3z M86.1,88.4L85,88.5l0.4-0.9L86.1,88.4L86.1,88.4z"/>
	<path class="st0" d="M90,79.2C90,79.3,89.9,79.3,90,79.2c-0.1,0.1-0.3,0.1-0.4,0l-2.5-0.7c-0.1,0-0.2-0.1-0.2-0.1s0-0.2,0.1-0.4
		h-0.5l-0.6,2.1l0.5,0.1c0-0.1,0.1-0.2,0.1-0.3c0-0.1,0-0.1,0.1-0.1c0,0,0.1,0,0.2,0l1.1,0.3L87.3,82l-1.1-0.3
		c-0.1,0-0.1-0.1-0.1-0.1s0-0.2,0.1-0.4l-0.5-0.1L85,83.3l0.5,0.1c0-0.2,0.1-0.3,0.1-0.3c0-0.1,0.1-0.1,0.1-0.1s0.1,0,0.2,0l2.5,0.7
		c0.1,0,0.3,0.1,0.3,0.1s0,0.2-0.1,0.4l0.6,0.2l0.6-2.1l-0.6-0.2c0,0.1-0.1,0.2-0.1,0.3c0,0.1,0,0.1-0.1,0.1c0,0-0.2,0-0.3-0.1
		l-0.9-0.2l0.5-1.9l0.9,0.2c0.1,0,0.3,0.1,0.3,0.1s0,0.2-0.1,0.4l0.6,0.2l0.6-2.1L90,78.9C90,79.1,90,79.2,90,79.2L90,79.2z"/>
	<g>
		<path class="st0" d="M21.5,143.6v13.6c0,4.1,1.5,6.1,4.3,6.1s4.3-2,4.3-6.1v-13.6h5.3v13.2c0,7.3-3.7,10.7-9.8,10.7
			c-6,0-9.5-3.3-9.5-10.8v-13.2h5.4V143.6z"/>
		<path class="st0" d="M40,167.1v-23.6h6.2l4.9,8.6c1.4,2.5,2.8,5.4,3.9,8.1h0.1c-0.4-3.1-0.5-6.3-0.5-9.8v-6.9h4.9v23.6H54l-5-9.1
			c-1.4-2.5-2.9-5.6-4.1-8.3h-0.1c0.1,3.1,0.2,6.4,0.2,10.3v7.1L40,167.1L40,167.1z"/>
		<path class="st0" d="M69.7,161.1l-1.7,6.1h-5.5l7.2-23.6h7l7.3,23.6h-5.7l-1.8-6.1H69.7z M75.7,157.1l-1.5-5
			c-0.4-1.4-0.8-3.2-1.2-4.5h-0.1c-0.4,1.4-0.7,3.2-1.1,4.5l-1.4,5H75.7z"/>
		<path class="st0" d="M107.1,158.1c-0.1-2.8-0.2-6.3-0.2-9.7h-0.1c-0.7,3-1.7,6.4-2.6,9.1l-2.9,9.2h-4.2l-2.5-9.1
			c-0.8-2.8-1.6-6.1-2.1-9.2h-0.1c-0.1,3.2-0.2,6.8-0.4,9.8l-0.4,9h-4.9l1.5-23.6h7.1l2.3,7.9c0.7,2.7,1.5,5.7,2,8.4h0.1
			c0.7-2.7,1.5-5.8,2.2-8.5l2.5-7.8h7l1.3,23.6h-5.2L107.1,158.1z"/>
	</g>
</g>
</svg>
