<svg id="Capa_1" data-name="Capa 1" xmlns="http://www.w3.org/2000/svg" viewBox="0 0 216.06 84.39"><defs><style>.cls-1{fill:#fff;}</style></defs><title>logo_cuaed2</title><circle class="cls-1" cx="47.21" cy="16.96" r="1.33"/><path class="cls-1" d="M44.55,65A22.74,22.74,0,0,1,22.12,45.85l-6-.12a28.62,28.62,0,0,0,28.41,25.2V65Zm0-51.32A28.62,28.62,0,0,0,16.21,38.37l6,0A22.74,22.74,0,0,1,44.55,19.62V13.71Z"/><circle class="cls-1" cx="19.55" cy="42.52" r="1.33"/><circle class="cls-1" cx="47.21" cy="69.09" r="1.33"/><path class="cls-1" d="M44.55,24.2A18.09,18.09,0,0,1,62.39,39.45l4.75,0.1a22.76,22.76,0,0,0-22.6-20v4.7Zm0,40.82A22.76,22.76,0,0,0,67.09,45.4H62.33a18.09,18.09,0,0,1-17.78,14.9V65Z"/><circle class="cls-1" cx="64.98" cy="42.52" r="1.52"/><path class="cls-1" d="M53.47,44.5l-1.68-1a10,10,0,1,1,0-2.39l1.68-1,2.93-1.69a15,15,0,1,0,0,7.71Z"/><rect class="cls-1" x="41.64" y="42.3" width="23.13" height="0.44" transform="translate(-0.33 0.42) rotate(-0.45)"/><circle class="cls-1" cx="41.64" cy="42.33" r="3.41"/><path class="cls-1" d="M191.88,44.11h3.23c1,0,1.46-.37,1.46-1s-0.47-1-1.46-1h-3.23V40.79H195c1.73,0,2.56.88,2.56,2.34s-0.78,2.25-2.58,2.25h-3.13V44.11Z"/><path class="cls-1" d="M197.49,38.72h-5.62V37.24l2.06-1.17a16.27,16.27,0,0,1,1.93-.92v0a20.84,20.84,0,0,1-2.34.11h-1.64V34.07h5.62v1.33l-2.17,1.2a20.88,20.88,0,0,1-2,1v0c0.74,0,1.53,0,2.45,0h1.69v1.17Z"/><path class="cls-1" d="M196.05,30.55l1.44,0.4v1.32l-5.62-1.72V28.88l5.62-1.74v1.37l-1.44.43v1.61Zm-1-1.43-1.19.35c-0.33.1-.75,0.2-1.08,0.28v0c0.33,0.08.76,0.17,1.08,0.26l1.19,0.33V29.12Z"/><path class="cls-1" d="M195.34,21.24c-0.68,0-1.49.05-2.31,0.05v0c0.72,0.17,1.52.41,2.18,0.63l2.19,0.68v1l-2.18.6c-0.66.18-1.46,0.37-2.19,0.51v0c0.76,0,1.63.06,2.33,0.1l2.13,0.1v1.18l-5.62-.36V24.06l1.88-.55c0.65-.17,1.35-0.35,2-0.47v0c-0.65-.16-1.39-0.35-2-0.53l-1.87-.6V20.22l5.62-.31v1.24Z"/><path class="cls-1" d="M96.43,39.23A12.52,12.52,0,0,1,94.34,42a13.84,13.84,0,0,1-2.74,2.16,13.39,13.39,0,0,1-6.89,1.89A12.91,12.91,0,0,1,79.51,45a13.58,13.58,0,0,1-7.15-7.15,13.27,13.27,0,0,1,0-10.41,13.58,13.58,0,0,1,7.15-7.15,12.91,12.91,0,0,1,5.2-1.06,13.4,13.4,0,0,1,6.89,1.89,13.85,13.85,0,0,1,2.74,2.16,12.9,12.9,0,0,1,2.09,2.78L91.79,28a9.9,9.9,0,0,0-1.33-1.59,9.63,9.63,0,0,0-1.68-1.31,8.56,8.56,0,0,0-1.95-.89,7.13,7.13,0,0,0-2.12-.32,7.67,7.67,0,0,0-3.31.73,8.77,8.77,0,0,0-2.67,1.93,9.28,9.28,0,0,0-1.8,2.81,8.7,8.7,0,0,0,0,6.71,9.33,9.33,0,0,0,1.8,2.8,8.75,8.75,0,0,0,2.67,1.93,7.66,7.66,0,0,0,3.31.73,7.14,7.14,0,0,0,2.12-.32,8.54,8.54,0,0,0,1.95-.89A9.16,9.16,0,0,0,90.46,39a10.55,10.55,0,0,0,1.33-1.61Z"/><path class="cls-1" d="M108.89,46.06a12.79,12.79,0,0,1-4.57-.78,10,10,0,0,1-3.5-2.19,9.69,9.69,0,0,1-2.25-3.43,12.14,12.14,0,0,1-.8-4.5V19.73h5V35.14a7.16,7.16,0,0,0,.64,3.22,5.84,5.84,0,0,0,1.58,2,5.45,5.45,0,0,0,2,1,6.73,6.73,0,0,0,3.86,0,5.46,5.46,0,0,0,2-1,5.85,5.85,0,0,0,1.58-2,7.16,7.16,0,0,0,.64-3.22V19.73h5V35.16a12.39,12.39,0,0,1-.78,4.5A9.51,9.51,0,0,1,117,43.09a10.06,10.06,0,0,1-3.5,2.19A12.9,12.9,0,0,1,108.89,46.06Z"/><path class="cls-1" d="M118.08,45.6l13.24-25.87h0.49L145.05,45.6h-5.38l-2-4.07H125.44l-2,4.07h-5.38Zm9.77-8.39h7.4l-3.68-7.82Z"/><path class="cls-1" d="M150.59,24.08v6.48h12.53v4.5H150.59v6.09h14.12V45.6H145.63V19.69h19.08v4.39H150.59Z"/><path class="cls-1" d="M175.89,45.6H165.68V19.69h10.21A13,13,0,0,1,185,22.95a11.11,11.11,0,0,1,2.88,4.19,14.87,14.87,0,0,1,1,5.5,15,15,0,0,1-1,5.54A11.1,11.1,0,0,1,185,42.38a11.58,11.58,0,0,1-4,2.41A15.17,15.17,0,0,1,175.89,45.6Zm-5.26-4.39h5.27a12.72,12.72,0,0,0,2.8-.32,6.15,6.15,0,0,0,2.57-1.26,6.92,6.92,0,0,0,1.89-2.6,10.78,10.78,0,0,0,.74-4.35,10.91,10.91,0,0,0-.74-4.37,6.66,6.66,0,0,0-1.91-2.6,6.41,6.41,0,0,0-2.58-1.24,12.56,12.56,0,0,0-2.76-.32h-5.27V41.21Z"/><path class="cls-1" d="M75.06,56.69a3.17,3.17,0,0,1-1.3.23,2.31,2.31,0,0,1-2.44-2.5,2.46,2.46,0,0,1,2.58-2.59,2.65,2.65,0,0,1,1.17.22l-0.15.52a2.33,2.33,0,0,0-1-.2,1.84,1.84,0,0,0-1.93,2,1.8,1.8,0,0,0,1.9,2,2.56,2.56,0,0,0,1-.2Z"/><path class="cls-1" d="M79,55a1.73,1.73,0,0,1-1.77,1.88,1.69,1.69,0,0,1-1.7-1.82,1.73,1.73,0,0,1,1.76-1.88A1.68,1.68,0,0,1,79,55Zm-2.81,0a1.11,1.11,0,1,0,1.09-1.38A1.21,1.21,0,0,0,76.15,55.09Z"/><path class="cls-1" d="M83,55a1.73,1.73,0,0,1-1.77,1.88,1.69,1.69,0,0,1-1.7-1.82,1.73,1.73,0,0,1,1.76-1.88A1.68,1.68,0,0,1,83,55Zm-2.81,0a1.11,1.11,0,1,0,1.09-1.38A1.21,1.21,0,0,0,80.18,55.09Z"/><path class="cls-1" d="M83.8,54.41c0-.42,0-0.78,0-1.11h0.56l0,0.7h0a1.06,1.06,0,0,1,1-.78l0.18,0v0.61l-0.22,0a0.9,0.9,0,0,0-.86.83,1.82,1.82,0,0,0,0,.3v1.89H83.8V54.41Z"/><path class="cls-1" d="M89.19,51.65v4.29c0,0.32,0,.67,0,0.92H88.64l0-.62h0a1.31,1.31,0,0,1-1.21.7,1.62,1.62,0,0,1-1.52-1.8,1.7,1.7,0,0,1,1.59-1.91,1.19,1.19,0,0,1,1.07.54h0V51.65h0.64Zm-0.64,3.1a1.14,1.14,0,0,0,0-.27,1,1,0,0,0-.93-0.75,1.18,1.18,0,0,0-1.06,1.37,1.13,1.13,0,0,0,1,1.31,1,1,0,0,0,.95-0.77,1.12,1.12,0,0,0,0-.28V54.75Z"/><path class="cls-1" d="M91,52.31a0.4,0.4,0,0,1-.8,0,0.39,0.39,0,0,1,.4-0.4A0.38,0.38,0,0,1,91,52.31Zm-0.72,4.54V53.3h0.64v3.55H90.26Z"/><path class="cls-1" d="M92,54.26c0-.37,0-0.67,0-1h0.57l0,0.59h0a1.3,1.3,0,0,1,1.17-.67A1.29,1.29,0,0,1,95,54.73v2.12H94.35v-2a0.87,0.87,0,0,0-.82-1,0.92,0.92,0,0,0-.86.66,0.93,0.93,0,0,0,0,.3v2.13H92V54.26Z"/><path class="cls-1" d="M98,56.85L98,56.4h0a1.32,1.32,0,0,1-1.08.53,1,1,0,0,1-1.08-1c0-.86.76-1.33,2.13-1.32V54.52a0.73,0.73,0,0,0-.81-0.82,1.77,1.77,0,0,0-.92.26L96,53.54a2.2,2.2,0,0,1,1.16-.31,1.26,1.26,0,0,1,1.35,1.45V56a5,5,0,0,0,.06.85H98ZM97.91,55c-0.7,0-1.5.11-1.5,0.8a0.57,0.57,0,0,0,.61.62,0.88,0.88,0,0,0,.86-0.59,0.67,0.67,0,0,0,0-.2V55Z"/><path class="cls-1" d="M102.1,56.72a2.38,2.38,0,0,1-1,.2,1.68,1.68,0,0,1-1.77-1.81,1.8,1.8,0,0,1,1.91-1.88,2.15,2.15,0,0,1,.89.18l-0.15.5a1.49,1.49,0,0,0-.75-0.17,1.34,1.34,0,0,0,0,2.67,1.84,1.84,0,0,0,.79-0.18Z"/><path class="cls-1" d="M103.58,52.31a0.4,0.4,0,0,1-.8,0,0.39,0.39,0,0,1,.4-0.4A0.38,0.38,0,0,1,103.58,52.31Zm-0.72,4.54V53.3h0.64v3.55h-0.64Z"/><path class="cls-1" d="M107.78,55A1.73,1.73,0,0,1,106,56.93a1.69,1.69,0,0,1-1.7-1.82,1.73,1.73,0,0,1,1.76-1.88A1.68,1.68,0,0,1,107.78,55Zm-2.81,0a1.11,1.11,0,1,0,1.09-1.38A1.21,1.21,0,0,0,105,55.09Zm2-3.31-0.89,1h-0.46l0.64-1H107Z"/><path class="cls-1" d="M108.6,54.26c0-.37,0-0.67,0-1h0.57l0,0.59h0a1.3,1.3,0,0,1,1.17-.67,1.29,1.29,0,0,1,1.25,1.51v2.12H111v-2a0.87,0.87,0,0,0-.82-1,0.92,0.92,0,0,0-.86.66,0.93,0.93,0,0,0,0,.3v2.13H108.6V54.26Z"/><path class="cls-1" d="M117.28,51.65v4.29c0,0.32,0,.67,0,0.92h-0.58l0-.62h0a1.31,1.31,0,0,1-1.21.7,1.62,1.62,0,0,1-1.52-1.8,1.7,1.7,0,0,1,1.59-1.91,1.19,1.19,0,0,1,1.07.54h0V51.65h0.64Zm-0.64,3.1a1.14,1.14,0,0,0,0-.27,1,1,0,0,0-.93-0.75,1.18,1.18,0,0,0-1.06,1.37,1.13,1.13,0,0,0,1,1.31,1,1,0,0,0,.95-0.77,1.12,1.12,0,0,0,0-.28V54.75Z"/><path class="cls-1" d="M118.71,55.2a1.14,1.14,0,0,0,1.22,1.23,2.33,2.33,0,0,0,1-.18L121,56.7a2.88,2.88,0,0,1-1.18.22,1.65,1.65,0,0,1-1.74-1.79,1.72,1.72,0,0,1,1.66-1.91,1.5,1.5,0,0,1,1.47,1.67,2.43,2.43,0,0,1,0,.3h-2.49Zm1.89-.46a0.92,0.92,0,0,0-.89-1,1.07,1.07,0,0,0-1,1h1.88Z"/><path class="cls-1" d="M124.24,51.91v2.92c0,1.11.49,1.58,1.15,1.58s1.2-.48,1.2-1.58V51.91h0.64v2.88c0,1.52-.8,2.14-1.87,2.14s-1.77-.58-1.77-2.11V51.91h0.64Z"/><path class="cls-1" d="M128.32,54.26c0-.37,0-0.67,0-1h0.57l0,0.59h0a1.3,1.3,0,0,1,1.17-.67,1.29,1.29,0,0,1,1.25,1.51v2.12H130.7v-2a0.87,0.87,0,0,0-.82-1,0.92,0.92,0,0,0-.86.66,0.93,0.93,0,0,0,0,.3v2.13h-0.64V54.26Z"/><path class="cls-1" d="M133.11,52.31a0.4,0.4,0,0,1-.8,0,0.39,0.39,0,0,1,.4-0.4A0.38,0.38,0,0,1,133.11,52.31Zm-0.72,4.54V53.3H133v3.55h-0.64Z"/><path class="cls-1" d="M134.35,53.3l0.7,2a9.08,9.08,0,0,1,.29.91h0c0.08-.29.18-0.59,0.3-0.91l0.69-2H137l-1.39,3.55H135l-1.35-3.55h0.69Z"/><path class="cls-1" d="M137.91,55.2a1.14,1.14,0,0,0,1.22,1.23,2.33,2.33,0,0,0,1-.18l0.11,0.46a2.88,2.88,0,0,1-1.18.22,1.65,1.65,0,0,1-1.74-1.79A1.72,1.72,0,0,1,139,53.22a1.5,1.5,0,0,1,1.47,1.67,2.43,2.43,0,0,1,0,.3h-2.49Zm1.89-.46a0.92,0.92,0,0,0-.89-1,1.07,1.07,0,0,0-1,1h1.88Z"/><path class="cls-1" d="M141.23,54.41c0-.42,0-0.78,0-1.11h0.56l0,0.7h0a1.06,1.06,0,0,1,1-.78l0.18,0v0.61l-0.22,0a0.9,0.9,0,0,0-.86.83,1.82,1.82,0,0,0,0,.3v1.89h-0.64V54.41Z"/><path class="cls-1" d="M143.54,56.19a1.69,1.69,0,0,0,.85.26,0.57,0.57,0,0,0,.69-0.53,0.73,0.73,0,0,0-.66-0.65,1.14,1.14,0,0,1-.94-1,1.09,1.09,0,0,1,1.22-1,1.77,1.77,0,0,1,.87.22l-0.16.47a1.38,1.38,0,0,0-.73-0.21,0.52,0.52,0,0,0-.59.48c0,0.29.21,0.42,0.67,0.6a1.09,1.09,0,1,1-.4,2.13,2,2,0,0,1-1-.24Z"/><path class="cls-1" d="M147.24,52.31a0.4,0.4,0,0,1-.8,0,0.39,0.39,0,0,1,.4-0.4A0.38,0.38,0,0,1,147.24,52.31Zm-0.72,4.54V53.3h0.64v3.55h-0.64Z"/><path class="cls-1" d="M151.3,51.65v4.29c0,0.32,0,.67,0,0.92h-0.58l0-.62h0a1.31,1.31,0,0,1-1.21.7,1.62,1.62,0,0,1-1.52-1.8,1.7,1.7,0,0,1,1.59-1.91,1.19,1.19,0,0,1,1.07.54h0V51.65h0.64Zm-0.64,3.1a1.14,1.14,0,0,0,0-.27,1,1,0,0,0-.93-0.75,1.18,1.18,0,0,0-1.06,1.37,1.13,1.13,0,0,0,1,1.31,1,1,0,0,0,.95-0.77,1.12,1.12,0,0,0,0-.28V54.75Z"/><path class="cls-1" d="M154.34,56.85l-0.05-.45h0a1.32,1.32,0,0,1-1.08.53,1,1,0,0,1-1.08-1c0-.86.76-1.33,2.13-1.32V54.52a0.73,0.73,0,0,0-.81-0.82,1.77,1.77,0,0,0-.92.26l-0.15-.42a2.2,2.2,0,0,1,1.16-.31,1.26,1.26,0,0,1,1.35,1.45V56a5,5,0,0,0,.06.85h-0.59ZM154.24,55c-0.7,0-1.5.11-1.5,0.8a0.57,0.57,0,0,0,.61.62,0.88,0.88,0,0,0,.86-0.59,0.67,0.67,0,0,0,0-.2V55Z"/><path class="cls-1" d="M159,51.65v4.29c0,0.32,0,.67,0,0.92h-0.58l0-.62h0a1.31,1.31,0,0,1-1.21.7,1.62,1.62,0,0,1-1.52-1.8,1.7,1.7,0,0,1,1.59-1.91,1.19,1.19,0,0,1,1.07.54h0V51.65H159Zm-0.64,3.1a1.14,1.14,0,0,0,0-.27,1,1,0,0,0-.93-0.75,1.18,1.18,0,0,0-1.06,1.37,1.13,1.13,0,0,0,1,1.31,1,1,0,0,0,.95-0.77,1.12,1.12,0,0,0,0-.28V54.75Z"/><path class="cls-1" d="M162.42,55.3l-0.51,1.55h-0.66l1.68-4.94h0.77l1.69,4.94h-0.68l-0.53-1.55h-1.75Zm1.62-.5-0.48-1.42c-0.11-.32-0.18-0.62-0.26-0.9h0c-0.07.29-.15,0.59-0.25,0.89l-0.48,1.43H164Z"/><path class="cls-1" d="M166,56.85c0-.24,0-0.6,0-0.92V51.65h0.64v2.23h0a1.32,1.32,0,0,1,1.21-.65A1.59,1.59,0,0,1,169.41,55a1.69,1.69,0,0,1-1.59,1.9,1.26,1.26,0,0,1-1.19-.67h0l0,0.59H166Zm0.67-1.42a1.21,1.21,0,0,0,0,.23,1,1,0,0,0,1,.75,1.38,1.38,0,0,0,0-2.68,1,1,0,0,0-1,.79,1.27,1.27,0,0,0,0,.26v0.64Z"/><path class="cls-1" d="M170.95,52.31a0.4,0.4,0,0,1-.8,0,0.39,0.39,0,0,1,.4-0.4A0.38,0.38,0,0,1,170.95,52.31Zm-0.72,4.54V53.3h0.64v3.55h-0.64Z"/><path class="cls-1" d="M172.3,55.2a1.14,1.14,0,0,0,1.22,1.23,2.33,2.33,0,0,0,1-.18l0.11,0.46a2.88,2.88,0,0,1-1.18.22,1.65,1.65,0,0,1-1.74-1.79,1.72,1.72,0,0,1,1.66-1.91,1.5,1.5,0,0,1,1.47,1.67,2.43,2.43,0,0,1,0,.3H172.3Zm1.89-.46a0.92,0.92,0,0,0-.89-1,1.07,1.07,0,0,0-1,1h1.88Z"/><path class="cls-1" d="M175.62,54.41c0-.42,0-0.78,0-1.11h0.56l0,0.7h0a1.06,1.06,0,0,1,1-.78l0.18,0v0.61l-0.22,0a0.9,0.9,0,0,0-.86.83,1.82,1.82,0,0,0,0,.3v1.89h-0.64V54.41Z"/><path class="cls-1" d="M179,52.29v1h0.92V53.8H179v1.91c0,0.44.12,0.69,0.48,0.69a1.43,1.43,0,0,0,.37,0l0,0.48a1.58,1.58,0,0,1-.57.09,0.89,0.89,0,0,1-.7-0.27,1.31,1.31,0,0,1-.25-0.92V53.8h-0.55V53.3h0.55V52.45Z"/><path class="cls-1" d="M182.58,56.85l-0.05-.45h0a1.32,1.32,0,0,1-1.08.53,1,1,0,0,1-1.08-1c0-.86.76-1.33,2.13-1.32V54.52a0.73,0.73,0,0,0-.81-0.82,1.77,1.77,0,0,0-.92.26l-0.15-.42a2.2,2.2,0,0,1,1.16-.31,1.26,1.26,0,0,1,1.35,1.45V56a5,5,0,0,0,.06.85h-0.59ZM182.48,55c-0.7,0-1.5.11-1.5,0.8a0.57,0.57,0,0,0,.61.62,0.88,0.88,0,0,0,.86-0.59,0.67,0.67,0,0,0,0-.2V55Z"/><path class="cls-1" d="M185.93,53.3l0.78,2.1c0.08,0.23.17,0.51,0.23,0.73h0c0.07-.21.14-0.48,0.23-0.74l0.7-2.08h0.68l-1,2.53a5.4,5.4,0,0,1-1.22,2.22,1.75,1.75,0,0,1-.79.42l-0.16-.54a1.71,1.71,0,0,0,.56-0.31,2,2,0,0,0,.54-0.72,0.46,0.46,0,0,0,.05-0.15,0.56,0.56,0,0,0,0-.17l-1.31-3.27h0.7Z"/><path class="cls-1" d="M99.82,63.33H97.9v1.78H100v0.53H97.27V60.71h2.67v0.53h-2V62.8h1.92v0.53Z"/><path class="cls-1" d="M103.88,60.44v4.29c0,0.32,0,.67,0,0.92h-0.58l0-.62h0a1.31,1.31,0,0,1-1.21.7,1.62,1.62,0,0,1-1.52-1.8A1.7,1.7,0,0,1,102.16,62a1.19,1.19,0,0,1,1.07.54h0V60.44h0.64Zm-0.64,3.1a1.14,1.14,0,0,0,0-.27,1,1,0,0,0-.93-0.75,1.18,1.18,0,0,0-1.06,1.37,1.13,1.13,0,0,0,1,1.31,1,1,0,0,0,.95-0.77,1.12,1.12,0,0,0,0-.28V63.54Z"/><path class="cls-1" d="M107.92,64.68c0,0.37,0,.69,0,1h-0.57l0-.58h0a1.33,1.33,0,0,1-1.17.66c-0.56,0-1.22-.31-1.22-1.55V62.1h0.64v2c0,0.67.2,1.13,0.79,1.13a0.91,0.91,0,0,0,.91-0.92V62.1h0.64v2.58Z"/><path class="cls-1" d="M111.52,65.51a2.38,2.38,0,0,1-1,.2,1.68,1.68,0,0,1-1.77-1.81A1.8,1.8,0,0,1,110.64,62a2.15,2.15,0,0,1,.89.18l-0.15.5a1.49,1.49,0,0,0-.75-0.17,1.34,1.34,0,0,0,0,2.67,1.84,1.84,0,0,0,.79-0.18Z"/><path class="cls-1" d="M114.24,65.65l-0.05-.45h0a1.32,1.32,0,0,1-1.08.53,1,1,0,0,1-1.08-1c0-.86.76-1.33,2.13-1.32V63.32a0.73,0.73,0,0,0-.81-0.82,1.77,1.77,0,0,0-.92.26l-0.15-.42a2.2,2.2,0,0,1,1.16-.31,1.26,1.26,0,0,1,1.35,1.45V64.8a5,5,0,0,0,.06.85h-0.59Zm-0.1-1.81c-0.7,0-1.5.11-1.5,0.8a0.57,0.57,0,0,0,.61.62,0.88,0.88,0,0,0,.86-0.59,0.67,0.67,0,0,0,0-.2V63.84Z"/><path class="cls-1" d="M118.34,65.51a2.38,2.38,0,0,1-1,.2,1.68,1.68,0,0,1-1.77-1.81A1.8,1.8,0,0,1,117.46,62a2.15,2.15,0,0,1,.89.18l-0.15.5a1.49,1.49,0,0,0-.75-0.17,1.34,1.34,0,0,0,0,2.67,1.84,1.84,0,0,0,.79-0.18Z"/><path class="cls-1" d="M119.81,61.1a0.4,0.4,0,0,1-.8,0,0.39,0.39,0,0,1,.4-0.4A0.38,0.38,0,0,1,119.81,61.1Zm-0.72,4.54V62.1h0.64v3.55h-0.64Z"/><path class="cls-1" d="M124,63.84a1.73,1.73,0,0,1-1.77,1.88,1.69,1.69,0,0,1-1.7-1.82A1.73,1.73,0,0,1,122.31,62,1.68,1.68,0,0,1,124,63.84Zm-2.81,0a1.11,1.11,0,1,0,1.09-1.38A1.21,1.21,0,0,0,121.2,63.88Zm2-3.31-0.89,1h-0.46l0.64-1h0.71Z"/><path class="cls-1" d="M124.83,63.06c0-.37,0-0.67,0-1h0.57l0,0.59h0A1.3,1.3,0,0,1,126.6,62a1.29,1.29,0,0,1,1.25,1.51v2.12h-0.64v-2a0.87,0.87,0,0,0-.82-1,0.92,0.92,0,0,0-.86.66,0.93,0.93,0,0,0,0,.3v2.13h-0.64V63.06Z"/><path class="cls-1" d="M132.42,65.65l-0.05-.45h0a1.32,1.32,0,0,1-1.08.53,1,1,0,0,1-1.08-1c0-.86.76-1.33,2.13-1.32V63.32a0.73,0.73,0,0,0-.81-0.82,1.77,1.77,0,0,0-.92.26l-0.15-.42A2.2,2.2,0,0,1,131.6,62a1.26,1.26,0,0,1,1.35,1.45V64.8a5,5,0,0,0,.06.85h-0.59Zm-0.1-1.81c-0.7,0-1.5.11-1.5,0.8a0.57,0.57,0,0,0,.61.62,0.88,0.88,0,0,0,.86-0.59,0.67,0.67,0,0,0,0-.2V63.84Z"/><path class="cls-1" d="M135.56,60.77a9.12,9.12,0,0,1,1.36-.1,2.83,2.83,0,0,1,2,.62,2.27,2.27,0,0,1,.7,1.77A2.61,2.61,0,0,1,138.9,65a3,3,0,0,1-2.18.71,10.28,10.28,0,0,1-1.16-.06V60.77Zm0.64,4.37a4,4,0,0,0,.64,0,1.9,1.9,0,0,0,2.1-2.1,1.76,1.76,0,0,0-2-1.91,3.62,3.62,0,0,0-.75.07v3.9Z"/><path class="cls-1" d="M141.14,61.1a0.4,0.4,0,0,1-.8,0,0.39,0.39,0,0,1,.4-0.4A0.38,0.38,0,0,1,141.14,61.1Zm-0.72,4.54V62.1h0.64v3.55h-0.64Z"/><path class="cls-1" d="M142,65a1.69,1.69,0,0,0,.85.26,0.57,0.57,0,0,0,.69-0.53,0.73,0.73,0,0,0-.66-0.65,1.14,1.14,0,0,1-.94-1,1.09,1.09,0,0,1,1.22-1,1.77,1.77,0,0,1,.87.22l-0.16.47a1.38,1.38,0,0,0-.73-0.21,0.52,0.52,0,0,0-.59.48c0,0.29.21,0.42,0.67,0.6a1.09,1.09,0,1,1-.4,2.13,2,2,0,0,1-1-.24Z"/><path class="cls-1" d="M145.82,61.08v1h0.92v0.49h-0.92V64.5c0,0.44.12,0.69,0.48,0.69a1.43,1.43,0,0,0,.37,0l0,0.48a1.58,1.58,0,0,1-.57.09,0.89,0.89,0,0,1-.7-0.27,1.31,1.31,0,0,1-.25-0.92V62.59h-0.55V62.1h0.55V61.25Z"/><path class="cls-1" d="M149.43,65.65l-0.05-.45h0a1.32,1.32,0,0,1-1.08.53,1,1,0,0,1-1.08-1c0-.86.76-1.33,2.13-1.32V63.32a0.73,0.73,0,0,0-.81-0.82,1.77,1.77,0,0,0-.92.26l-0.15-.42a2.2,2.2,0,0,1,1.16-.31A1.26,1.26,0,0,1,150,63.47V64.8a5,5,0,0,0,.06.85h-0.59Zm-0.1-1.81c-0.7,0-1.5.11-1.5,0.8a0.57,0.57,0,0,0,.61.62,0.88,0.88,0,0,0,.86-0.59,0.67,0.67,0,0,0,0-.2V63.84Z"/><path class="cls-1" d="M151,63.06c0-.37,0-0.67,0-1h0.57l0,0.59h0a1.3,1.3,0,0,1,1.17-.67A1.29,1.29,0,0,1,154,63.53v2.12h-0.64v-2a0.87,0.87,0,0,0-.82-1,0.92,0.92,0,0,0-.86.66,0.93,0.93,0,0,0,0,.3v2.13H151V63.06Z"/><path class="cls-1" d="M157.59,65.51a2.38,2.38,0,0,1-1,.2,1.68,1.68,0,0,1-1.77-1.81A1.8,1.8,0,0,1,156.71,62a2.15,2.15,0,0,1,.89.18l-0.15.5a1.49,1.49,0,0,0-.75-0.17,1.34,1.34,0,0,0,0,2.67,1.84,1.84,0,0,0,.79-0.18Z"/><path class="cls-1" d="M159.07,61.1a0.4,0.4,0,0,1-.8,0,0.39,0.39,0,0,1,.4-0.4A0.38,0.38,0,0,1,159.07,61.1Zm-0.72,4.54V62.1H159v3.55h-0.64Z"/><path class="cls-1" d="M162,65.65L162,65.2h0a1.32,1.32,0,0,1-1.08.53,1,1,0,0,1-1.08-1c0-.86.76-1.33,2.13-1.32V63.32a0.73,0.73,0,0,0-.81-0.82,1.77,1.77,0,0,0-.92.26L160,62.33a2.2,2.2,0,0,1,1.16-.31,1.26,1.26,0,0,1,1.35,1.45V64.8a5,5,0,0,0,.06.85H162Zm-0.1-1.81c-0.7,0-1.5.11-1.5,0.8a0.57,0.57,0,0,0,.61.62,0.88,0.88,0,0,0,.86-0.59,0.67,0.67,0,0,0,0-.2V63.84Z"/></svg>